<?xml version="1.0" standalone="no"?>
<!DOCTYPE svg PUBLIC "-//W3C//DTD SVG 20010904//EN"
 "http://www.w3.org/TR/2001/REC-SVG-20010904/DTD/svg10.dtd">
<svg version="1.0" xmlns="http://www.w3.org/2000/svg"
 width="300.000000pt" height="300.000000pt" viewBox="0 0 300.000000 300.000000"
 preserveAspectRatio="xMidYMid meet">
<metadata>
Created by potrace 1.11, written by Peter Selinger 2001-2013
</metadata>
<g transform="translate(0.000000,300.000000) scale(0.100000,-0.100000)"
fill="#000000" stroke="none">
<path d="M1453 2757 c-24 -38 -406 -671 -508 -843 -59 -99 -61 -108 -28 -132
33 -22 515 -309 556 -329 31 -17 -9 -37 392 199 170 100 231 142 233 157 2 13
-92 180 -260 458 -145 241 -265 442 -268 448 -3 5 -14 24 -24 40 -11 17 -21
31 -22 33 -1 1 -11 4 -23 7 -16 3 -28 -6 -48 -38z m0 -658 c-14 -13 -423 -198
-423 -191 1 4 43 77 95 162 51 85 146 244 212 353 l118 198 3 -257 c1 -142 -1
-261 -5 -265z m397 5 c10 -18 41 -68 69 -113 27 -45 46 -81 41 -81 -5 0 -40
14 -77 31 -38 17 -81 37 -98 44 -16 8 -79 36 -140 64 l-110 50 -1 253 c0 139
1 256 3 261 4 6 223 -351 313 -509z m-394 -551 c-2 -3 -105 55 -227 128 -128
76 -217 135 -209 137 21 7 368 165 405 184 l30 16 3 -230 c1 -127 0 -233 -2
-235z m249 387 c28 -12 91 -42 142 -65 50 -24 101 -46 112 -50 12 -3 21 -9 21
-13 0 -4 -83 -55 -183 -114 -100 -59 -200 -119 -222 -132 l-40 -24 0 237 0
238 60 -27 c33 -15 83 -37 110 -50z"/>
<path d="M1992 1651 c-44 -27 -86 -51 -94 -55 -7 -3 -26 -15 -43 -25 -16 -10
-106 -64 -198 -119 l-168 -100 -217 130 c-119 71 -226 135 -236 141 -11 7 -40
24 -65 40 -43 26 -85 35 -94 20 -5 -8 -13 -73 -22 -183 -3 -36 -8 -90 -11
-120 -9 -106 -12 -136 -19 -215 -3 -44 -8 -91 -10 -105 -2 -14 -7 -61 -10
-105 -4 -44 -8 -98 -10 -120 -2 -22 -7 -78 -11 -125 -3 -47 -8 -94 -10 -105
-2 -11 -6 -69 -9 -130 l-5 -110 100 -102 c55 -57 106 -103 113 -104 6 0 256
-1 554 -2 l543 0 88 92 88 92 -2 82 c0 45 -4 105 -8 132 -3 28 -8 73 -11 100
-2 28 -6 59 -9 70 -2 11 -7 56 -11 99 -4 43 -8 87 -10 97 -2 10 -6 44 -9 76
-4 32 -8 74 -11 93 -3 19 -7 55 -10 80 -9 86 -25 223 -30 260 -2 14 -7 57 -10
95 -4 39 -9 81 -10 95 -2 14 -3 33 -4 42 -1 10 -9 22 -19 27 -15 8 -36 0 -100
-38z m63 -166 c3 -33 8 -76 11 -95 2 -19 6 -53 8 -75 3 -22 8 -67 11 -100 3
-33 8 -71 10 -85 3 -14 7 -56 11 -95 3 -38 7 -76 9 -85 3 -18 12 -92 20 -170
4 -30 8 -66 10 -80 2 -14 6 -54 10 -90 4 -36 8 -78 10 -95 2 -16 7 -55 10 -85
l6 -55 -73 -71 -73 -71 -253 -1 c-252 0 -252 0 -252 21 -4 243 -1 558 5 569
18 30 508 728 511 726 1 -2 5 -30 9 -63z m-1096 33 c7 -13 44 -66 81 -118 37
-52 144 -204 238 -338 l172 -243 0 -242 c1 -133 1 -265 1 -293 l-1 -51 -229 0
-230 -1 -80 85 -81 84 5 47 c4 49 13 140 20 232 3 30 7 75 10 100 5 54 14 147
19 215 6 70 17 183 21 225 2 19 7 73 11 120 3 47 8 94 9 105 1 11 3 37 4 58 1
42 10 47 30 15z m334 -137 l157 -93 1 -74 c0 -41 0 -103 0 -139 0 -36 0 -79 0
-96 -1 -27 -20 -3 -147 178 -81 114 -171 242 -200 284 -30 42 -54 80 -54 83 0
4 19 -6 43 -22 23 -15 113 -70 200 -121z m635 132 c-13 -15 -305 -430 -374
-530 -12 -19 -24 -27 -26 -20 -2 6 -4 82 -3 167 l1 155 204 123 c113 67 207
122 209 122 2 0 -3 -8 -11 -17z"/>
</g>
</svg>
