<?xml version="1.0" encoding="utf-8"?>
<!-- Generator: Adobe Illustrator 16.0.4, SVG Export Plug-In . SVG Version: 6.00 Build 0)  -->
<!DOCTYPE svg PUBLIC "-//W3C//DTD SVG 1.1//EN" "http://www.w3.org/Graphics/SVG/1.1/DTD/svg11.dtd">
<svg version="1.1" id="Layer_1" xmlns="http://www.w3.org/2000/svg" xmlns:xlink="http://www.w3.org/1999/xlink" x="0px" y="0px"
	 width="280.565px" height="156.129px" viewBox="0 0 280.565 156.129" enable-background="new 0 0 280.565 156.129"
	 xml:space="preserve">
<g>
	<path d="M75.358,144.65c-1.355-1.198-3.407-1.78-6.25-1.78l-19.291-0.021V0.267L6.233,14.328c-2.298,0.827-3.749,1.597-4.576,2.425
		L1.53,16.899C0.514,18.22,0,19.678,0,21.231c0,1.792,0.662,3.361,1.965,4.661c1.302,1.305,2.788,1.966,4.418,1.966
		c0.898,0,2.278-0.253,4.121-0.806l26.312-8.501V143H17.299c-2.847,0-4.889,0.506-6.241,1.703c-1.39,1.229-2.095,2.821-2.095,4.809
		c0,1.894,0.697,3.479,2.07,4.745c1.356,1.254,3.406,1.854,6.266,1.854l51.817,0.019c2.858,0,4.908-0.612,6.267-1.866
		c1.373-1.269,2.069-2.872,2.069-4.765C77.452,147.512,76.748,145.881,75.358,144.65z"/>
	<path d="M279.388,145.699c-0.79-1.159-1.758-1.947-2.879-2.341c-0.648-0.227-1.892-0.485-5.751-0.51l-45.436-43.548l45.311-43.54
		c3.688-0.03,4.895-0.335,5.527-0.603c1.04-0.436,1.961-1.233,2.735-2.37c0.78-1.145,1.176-2.374,1.176-3.652
		c0-1.973-0.696-3.811-2.07-5.081c-1.358-1.253-3.407-2.056-6.266-2.056h-27.954c-2.942,0-5.032,0.803-6.388,2.056
		c-1.374,1.267-2.07,2.967-2.07,4.862c0,1.985,0.724,3.802,2.151,5.072c1.396,1.24,3.46,2.01,6.307,2.01h8.487l-36.01,34.679
		L180.26,56h4.206c2.865,0,4.021-0.714,5.39-1.977c1.372-1.269,2.068-2.928,2.068-4.819c0-1.974-0.696-3.845-2.07-5.115
		c-1.367-1.262-2.522-2.089-5.388-2.089h-5.878c-0.119,0-0.23-0.01-0.353-0.01L178.098,42h-22.633c-2.86,0-4.91,0.808-6.266,2.061
		c-1.374,1.267-2.07,3.011-2.07,4.987c0,1.895,0.696,3.66,2.068,4.926c1.357,1.254,3.407,2.026,6.268,2.026h3.294l-33.942,31.995V0
		H99.758c-2.86,0-4.911,0.561-6.266,1.813c-1.374,1.267-2.07,2.846-2.07,4.74c0,1.976,0.696,3.468,2.069,4.734
		C94.848,12.542,96.898,13,99.758,13h12.059v130H99.758c-2.848,0-4.89,0.506-6.242,1.703c-1.389,1.229-2.094,2.82-2.094,4.809
		c0,1.895,0.696,3.429,2.069,4.694c1.356,1.254,3.407,1.794,6.267,1.794h25.059v-45.29l33.94,32.29h-3.292
		c-2.86,0-4.91,0.475-6.266,1.727c-1.374,1.268-2.07,2.844-2.07,4.82c0,1.895,0.696,3.411,2.068,4.677
		c1.357,1.254,3.407,1.776,6.268,1.776h29.001c2.865,0,4.021-0.547,5.39-1.811c1.372-1.268,2.068-2.844,2.068-4.736
		c0-1.974-0.696-3.47-2.07-4.739c-1.367-1.262-2.522-1.714-5.388-1.714h-4.205l35.998-34.516L252.379,143h-13.231
		c-2.93,0-5.012,0.506-6.364,1.703c-1.39,1.229-2.094,2.82-2.094,4.809c0,1.895,0.696,3.429,2.068,4.694
		c1.357,1.254,3.447,1.794,6.39,1.794h32.959c2.94,0,5.029-0.559,6.39-1.812c1.372-1.27,2.068-2.847,2.068-4.739
		C280.565,148.089,280.169,146.844,279.388,145.699z M207.196,99.301l-37.687,36.12l-37.686-36.12l37.686-36.213L207.196,99.301z"/>
</g>
</svg>
