<?xml version="1.0" encoding="UTF-8"?>
<svg width="135px" height="24px" viewBox="0 0 135 24" version="1.1" xmlns="http://www.w3.org/2000/svg" xmlns:xlink="http://www.w3.org/1999/xlink">
    <!-- Generator: Sketch 49.3 (51167) - http://www.bohemiancoding.com/sketch -->
    <title>acamica</title>
    <desc>Created with Sketch.</desc>
    <defs>
        <polygon id="path-1" points="0 23.804878 135 23.804878 135 0.154536585 0 0.154536585"></polygon>
    </defs>
    <g id="Page-1" stroke="none" stroke-width="1" fill="none" fill-rule="evenodd">
        <g id="acamica" transform="translate(-13.000000, -18.000000)">
            <g id="Page-1" transform="translate(13.000000, 18.000000)">
                <polygon id="Fill-1" fill="#273B5A" points="48.8987046 4.45217561 47.7232837 7.45061463 51.4952504 16.9749073 43.9932475 16.9749073 41.3984652 23.6451512 43.7792852 23.6451512 45.5709253 19.1446634 52.3559978 19.1446634 54.1398004 23.6451512 56.5607874 23.6451512"></polygon>
                <g id="Group-12" transform="translate(0.000000, 0.040585)">
                    <path d="M34.9533614,18.179122 L34.5029042,18.7767805 C33.1593701,20.5605854 31.0495298,21.5838049 28.7141669,21.5838049 C24.6249797,21.5838049 21.5415327,18.4700488 21.5415327,14.340878 C21.5415327,10.2115122 24.5603208,7.09756098 28.5632961,7.09756098 C30.7530784,7.09756098 32.6887315,8.0035122 34.0150232,9.64878049 L34.4693991,10.2122927 L36.2808287,8.85931707 L35.7837388,8.256 C33.98818,6.07668293 31.4237678,4.87668293 28.5632961,4.87668293 C23.2579332,4.87668293 19.2371277,8.94380488 19.2106763,14.3371707 C19.1977446,16.9404878 20.1478389,19.3326829 21.8859884,21.0723902 C23.6466705,22.8343415 26.0717721,23.804878 28.7141669,23.804878 C31.7500015,23.804878 34.5166197,22.4649756 36.3037533,20.1287805 L36.761656,19.5301463 L34.9533614,18.179122 Z" id="Fill-2" fill="#273B5A"></path>
                    <mask id="mask-2" fill="white">
                        <use xlink:href="#path-1"></use>
                    </mask>
                    <g id="Clip-5"></g>
                    <polygon id="Fill-4" fill="#273B5A" mask="url(#mask-2)" points="88.9555951 23.6046829 91.2611756 23.6046829 91.2611756 5.07707317 88.9555951 5.07707317"></polygon>
                    <path d="M113.8831,18.1789268 L113.433035,18.7765854 C112.089501,20.5605854 109.979464,21.5838049 107.644298,21.5838049 C103.55511,21.5838049 100.471271,18.4700488 100.471271,14.340878 C100.471271,10.2115122 103.49006,7.09756098 107.493231,7.09756098 C109.682817,7.09756098 111.618862,8.0035122 112.944762,9.64839024 L113.399138,10.2122927 L115.210959,8.85931707 L114.713869,8.256 C112.918311,6.07668293 110.353898,4.87668293 107.493231,4.87668293 C102.188064,4.87668293 98.1672583,8.94380488 98.140611,14.3371707 C98.1276792,16.9406829 99.0777736,19.3326829 100.816119,21.0723902 C102.576997,22.8343415 105.001903,23.804878 107.644298,23.804878 C110.679936,23.804878 113.446358,22.4649756 115.233688,20.1287805 L115.691787,19.5301463 L113.8831,18.1789268 Z" id="Fill-6" fill="#273B5A" mask="url(#mask-2)"></path>
                    <polygon id="Fill-7" fill="#273B5A" mask="url(#mask-2)" points="71.8503897 16.7905756 62.3829514 4.41106341 62.3829514 8.14881951 69.5373636 17.4869659 71.8204115 20.4674537 73.7399978 17.9558439 78.9975522 11.1505756 78.9975522 23.6046244 81.3180239 23.6046244 81.3180239 4.41379512"></polygon>
                    <polygon id="Fill-8" fill="#273B5A" mask="url(#mask-2)" points="62.3828926 14.4776976 62.3828926 23.6039415 64.7035602 23.6039415 64.7035602 17.4966244"></polygon>
                    <polygon id="Fill-9" fill="#273B5A" mask="url(#mask-2)" points="7.50010232 4.41159024 6.32468142 7.41002927 10.096648 16.934322 2.59484107 16.934322 5.87808418e-05 23.6045659 2.38068287 23.6045659 4.17232293 19.104078 10.9573955 19.104078 12.7411981 23.6045659 15.1621851 23.6045659"></polygon>
                    <polygon id="Fill-10" fill="#273B5A" mask="url(#mask-2)" points="127.337643 4.41100488 126.162026 7.4094439 129.934189 16.9341268 122.430422 16.9341268 119.83564 23.6045659 122.216264 23.6045659 124.007904 19.1038829 130.794936 19.1038829 132.578935 23.6045659 134.999922 23.6045659"></polygon>
                    <polygon id="Fill-11" fill="#273B5A" mask="url(#mask-2)" points="52.4708948 0.154536585 50.7446974 3.03395122 49.4331009 3.03395122 50.5593418 0.154536585"></polygon>
                </g>
            </g>
            <rect id="Rectangle-8-Copy-7" fill-opacity="0" fill="#FFFFFF" opacity="0" x="0" y="0" width="160" height="60"></rect>
        </g>
    </g>
</svg>