<svg xmlns="http://www.w3.org/2000/svg" viewBox="0 0 120 120">
  <path fill="#0336F4" d="M0,0 L120,0 L120,120 L0,120 L0,0 Z M84.1628959,33.5540409 L84.1628959,56.273937 L96.2895928,56.273937 L96.2895928,52.3440091 L88.3371609,52.3440091 L88.3371609,46.9710606 L95.9544328,46.9710606 L95.9544328,43.0411327 L88.3371609,43.0411327 L88.3371609,37.4839689 L96.2895928,37.4839689 L96.2895928,33.5540409 L84.1628959,33.5540409 Z M64.1202083,33.5540409 L59.9095023,33.5540409 L59.9095023,47.9238486 C59.9095023,49.3302623 60.0529312,50.4716824 60.3397934,51.3481432 C60.6266556,52.2246039 60.9544932,52.9074177 61.323316,53.3966051 C61.5691978,53.7227301 61.8970354,54.0743282 62.3068386,54.4514102 C62.7166417,54.8284921 63.2032756,55.1800903 63.7667549,55.5062152 C64.3302342,55.8323401 64.9756644,56.1024083 65.703065,56.3164278 C66.4304655,56.5304472 67.2244472,56.6374554 68.0850337,56.6374554 C69.6422856,56.6374554 70.9997381,56.3062397 72.1574319,55.6437985 C73.3151257,54.9813572 74.2218016,54.1915352 74.8774866,53.2743089 C75.4102306,52.520145 75.7636805,51.6691755 75.9378468,50.721375 C76.1120132,49.7735744 76.199095,48.8410749 76.199095,47.9238486 L76.199095,33.5540409 L71.988389,33.5540409 L71.988389,47.9238486 C71.988389,48.2092079 71.9678991,48.6168579 71.9269188,49.1468109 C71.8859385,49.6767639 71.7425096,50.206709 71.4966277,50.736662 C71.2507458,51.266615 70.8614387,51.7303169 70.3286946,52.1277817 C69.7959506,52.5252464 69.0378261,52.7239758 68.0542986,52.7239758 C67.0707711,52.7239758 66.3126467,52.5252464 65.7799027,52.1277817 C65.2471586,51.7303169 64.8578515,51.266615 64.6119696,50.736662 C64.3660877,50.206709 64.2226588,49.6767639 64.1816785,49.1468109 C64.1406982,48.6168579 64.1202083,48.2092079 64.1202083,47.9238486 L64.1202083,33.5540409 Z M42.5339367,33.5540409 L42.5339367,56.273937 L53.5746606,56.273937 L53.5746606,52.3440091 L46.7008215,52.3440091 L46.7008215,33.5540409 L42.5339367,33.5540409 Z M45.2948042,64.6348588 L35.8371041,87.3547549 L40.4738337,87.3547549 L42.8996723,81.4905655 L51.0369792,81.4905655 L53.4628179,87.3547549 L58.0995475,87.3547549 L48.5804338,64.6348588 L45.2948042,64.6348588 Z M21.9004525,33.5540409 L21.9004525,56.273937 L27.935391,56.273937 C28.3011467,56.273937 28.7278552,56.2585859 29.2155295,56.2278832 C29.7032037,56.1971805 30.21627,56.135776 30.7547436,56.0436678 C31.2932172,55.9515597 31.8215231,55.8185166 32.339677,55.6445345 C32.8578308,55.4705524 33.3302582,55.2300514 33.7569731,54.9230243 C34.102409,54.6774026 34.4427599,54.3857311 34.778036,54.0480013 C35.113312,53.7102714 35.413024,53.3213762 35.6771808,52.8813039 C35.9413377,52.4412316 36.154692,51.9397615 36.3172501,51.3768783 C36.4798082,50.8139952 36.561086,50.1948331 36.561086,49.5193733 C36.561086,48.5573549 36.4290095,47.7488622 36.1648526,47.0938709 C35.9006958,46.4388796 35.5755845,45.8964731 35.189509,45.4666351 C34.8034336,45.0367971 34.3818049,44.6990723 33.9246103,44.4534505 C33.4674157,44.2078288 33.0559467,44.0133812 32.6901911,43.8701018 C32.8730689,43.7677595 33.1067426,43.6193652 33.3912193,43.4249147 C33.6756959,43.2304642 33.9550884,42.9643779 34.2294052,42.6266481 C34.5037219,42.2889182 34.7373957,41.8693207 34.9304334,41.367843 C35.1234711,40.8663653 35.2199885,40.2574373 35.2199885,39.5410406 C35.2199885,38.7632384 35.0421933,37.990565 34.6865975,37.2229971 C34.3310017,36.4554292 33.8687341,35.8157989 33.2997808,35.3040869 C32.8121066,34.8742489 32.2939605,34.5365241 31.7453269,34.2909024 C31.1966934,34.0452807 30.6277487,33.8713012 30.0384756,33.7689588 C29.4492026,33.6666164 28.8446988,33.6052119 28.2249461,33.5847435 C27.6051935,33.564275 26.9803702,33.5540409 26.3504577,33.5540409 L21.9004525,33.5540409 Z M26.4053254,78.9729554 L26.4053254,87.3547549 L30.5777932,87.3547549 L30.5777932,78.9729554 L38.0090498,64.6348588 L33.4101984,64.6348588 L28.4763314,75.07373 L23.5729203,64.6348588 L19.0045249,64.6348588 L26.4053254,78.9729554 Z M81.4479638,64.6348588 L81.4479638,87.3547549 L86.6584396,87.3547549 C87.2881689,87.3547549 87.9382022,87.3342868 88.6085592,87.2933498 C89.2789162,87.2524129 89.9391063,87.1756572 90.5891494,87.0630806 C91.2391925,86.950504 91.863834,86.7969927 92.4630925,86.6025422 C93.062351,86.4080916 93.6260518,86.1675906 94.1542118,85.881032 C94.9667657,85.4307255 95.70821,84.8576167 96.378567,84.1616885 C97.0489239,83.4657602 97.6177031,82.6879698 98.0849216,81.8282937 C98.5521401,80.9686177 98.9127055,80.04755 99.1666286,79.0650631 C99.4205517,78.0825762 99.5475113,77.0796359 99.5475113,76.056212 C99.5475113,75.1760675 99.4561004,74.3061703 99.2732757,73.4464942 C99.0904511,72.5868182 98.8314534,71.7783254 98.496275,71.0209918 C98.1610965,70.2636581 97.7649824,69.5677403 97.3079208,68.9332175 C96.8508593,68.2986947 96.3582559,67.7460542 95.8300958,67.2752792 C95.5050743,66.9887205 95.0988034,66.691932 94.6112711,66.3849049 C94.1237387,66.0778777 93.5143325,65.7913233 92.783034,65.5252331 C92.0517355,65.2591429 91.1782531,65.0442271 90.1625608,64.8804793 C89.1468684,64.7167315 87.9483694,64.6348588 86.5670277,64.6348588 L81.4479638,64.6348588 Z M61.1764706,64.6348588 L61.1764706,87.3547549 L65.3834413,87.3547549 L65.3834413,78.6659298 L65.4448569,78.6659298 L71.4635887,87.3547549 L76.561086,87.3547549 L70.3888151,78.9729554 C70.9620305,78.8296761 71.5659449,78.6454626 72.2005762,78.4203093 C72.8352076,78.1951561 73.4903011,77.7550904 74.1658764,77.1000991 C74.575316,76.7111981 74.9182165,76.2813665 75.1945882,75.8105915 C75.4709599,75.3398165 75.6961483,74.8588145 75.8701601,74.3675711 C76.044172,73.8763276 76.167002,73.3953256 76.2386539,72.9245506 C76.3103058,72.4537757 76.3461313,72.0341782 76.3461313,71.6657456 C76.3461313,71.0107543 76.2693625,70.4069433 76.1158227,69.8542944 C75.9622828,69.3016455 75.7575661,68.7950583 75.5016664,68.3345176 C75.2457666,67.8739768 74.9591632,67.4646134 74.6418475,67.1064151 C74.3245319,66.7482167 74.002103,66.4360771 73.6745513,66.1699869 C73.019448,65.6378065 72.2619962,65.2489113 71.402173,65.0032896 C70.5423499,64.7576678 69.4573513,64.6348588 68.1471446,64.6348588 L61.1764706,64.6348588 Z M44.3438914,77.5397598 L46.9374501,70.6329114 L46.9992015,70.6329114 L49.5927602,77.5397598 L44.3438914,77.5397598 Z M26.0633484,42.4602402 L26.0633484,37.5527426 L27.7722566,37.5527426 C28.9515091,37.5527426 29.7759741,37.7930031 30.2456764,38.2735313 C30.7153786,38.7540595 30.9502262,39.3317071 30.9502262,40.0064914 C30.9502262,40.6199317 30.810317,41.0953407 30.5304944,41.4327329 C30.2506718,41.770125 29.9208858,42.0154974 29.5411265,42.1688575 C29.1613672,42.3222176 28.7716201,42.4091203 28.3718735,42.4295683 C27.9721269,42.4500163 27.6523344,42.4602402 27.4124865,42.4602402 L26.0633484,42.4602402 Z M26.0633484,52.2752353 L26.0633484,46.2771827 L28.2667716,46.2771827 C29.1848692,46.2771827 29.9142358,46.3944904 30.4548932,46.6291093 C30.9955507,46.8637282 31.4137889,47.1391462 31.7096203,47.4553716 C32.0054517,47.7715971 32.194169,48.1031188 32.2757776,48.4499467 C32.3573863,48.7967746 32.39819,49.0823933 32.39819,49.3068113 C32.39819,50.0412704 32.2145733,50.6125078 31.8473343,51.0205406 C31.4800952,51.4285735 31.061857,51.7243928 30.5926072,51.9080076 C30.1233573,52.0916224 29.6541145,52.1987294 29.1848646,52.2293318 C28.7156147,52.2599343 28.378984,52.2752353 28.1749623,52.2752353 L26.0633484,52.2752353 Z M85.6108597,83.5378124 L85.6108597,68.6335605 L86.4049774,68.6335605 C87.7285134,68.6335605 88.9349493,68.7516027 90.0243213,68.9876905 C91.1136932,69.2237783 92.0961495,69.7421372 92.9717195,70.5427829 C93.7047548,71.1997229 94.2901562,72.0208856 94.7279412,73.0062956 C95.1657262,73.9917056 95.3846154,75.038688 95.3846154,76.1472743 C95.3846154,76.7631555 95.3133491,77.3790276 95.1708145,77.9949088 C95.0282798,78.6107901 94.8144811,79.1958685 94.5294118,79.7501616 C94.2443425,80.3044547 93.8880112,80.8125492 93.4604072,81.2744601 C93.0328033,81.736371 92.5441204,82.1212911 91.9943439,82.4292317 C91.5463779,82.6755842 91.1136899,82.8706103 90.696267,83.0143159 C90.2788441,83.1580216 89.856337,83.2657992 89.428733,83.337652 C89.0011291,83.4095048 88.5480793,83.4608275 88.0695701,83.4916215 C87.591061,83.5224156 87.0667449,83.5378124 86.4966063,83.5378124 L85.6108597,83.5378124 Z M65.3393665,75.540409 L65.3393665,68.6335605 L68.0180995,68.6335605 C68.8298409,68.6335605 69.4944441,68.7507109 70.0119292,68.9850152 C70.5294144,69.2193195 70.9403522,69.5147422 71.2447552,69.8712922 C71.5491582,70.2278422 71.7571638,70.6047609 71.8687783,71.0020594 C71.9803927,71.399358 72.0361991,71.7508092 72.0361991,72.0564235 C72.0361991,72.3620378 71.9905393,72.7134889 71.8992184,73.1107875 C71.8078975,73.5080861 71.6151119,73.8850047 71.3208556,74.2415547 C71.0265994,74.5981047 70.6156615,74.9037144 70.0880296,75.158393 C69.5603977,75.4130716 68.870428,75.540409 68.0180995,75.540409 L65.3393665,75.540409 Z"/>
</svg>
