<?xml version="1.0" encoding="utf-8"?>
<!-- Generator: Adobe Illustrator 21.1.0, SVG Export Plug-In . SVG Version: 6.00 Build 0)  -->
<svg version="1.1" id="Layer_1" xmlns="http://www.w3.org/2000/svg" xmlns:xlink="http://www.w3.org/1999/xlink" x="0px" y="0px"
	 viewBox="0 0 445.5 186" style="enable-background:new 0 0 445.5 186;" xml:space="preserve">
<style type="text/css">
	.st0{fill:#2C398F;}
	.st1{fill:#04FFCC;}
	.st2{fill:none;}
	.st3{fill:#7DF8FB;}
</style>
<g>
	<path class="st0" d="M174.9,73.7h-2.6c-1.6,0-2.5,0.9-2.5,2.5v14.6c-2.5-3.6-6.1-5.1-10.1-5.1c-8.6,0-14.5,6.9-14.5,15.6
		s5.9,15.6,14.5,15.6c4,0,7.6-1.5,10.1-5.1v2c0,1.6,0.9,2.5,2.5,2.5h2.6c1.6,0,2.5-0.9,2.5-2.5V76.2
		C177.4,74.6,176.5,73.7,174.9,73.7z M161.2,110.6c-5.4,0-8.4-4.2-8.4-9.3s3.1-9.3,8.4-9.3c5.2,0,8.8,3.9,8.8,9.3
		C169.9,106.6,166.4,110.6,161.2,110.6z"/>
	<path class="st0" d="M189.6,73.1c-2.9,0-4.8,1.9-4.8,4.4s1.9,4.4,4.8,4.4c2.9,0,4.8-1.9,4.8-4.4C194.4,75.1,192.5,73.1,189.6,73.1z
		"/>
	<path class="st0" d="M190.9,86.4h-2.6c-1.6,0-2.5,0.9-2.5,2.5v24.9c0,1.6,0.9,2.5,2.5,2.5h2.6c1.6,0,2.5-0.9,2.5-2.5V88.9
		C193.4,87.3,192.5,86.4,190.9,86.4z"/>
	<path class="st0" d="M214.8,98.9l-4-1.4c-1.6-0.5-3.1-1.4-3.1-2.9c0-1.7,1.4-3.1,3.6-3.1c1.2,0,2.4,0.3,3.2,1.4
		c0.9,1,1.7,1.5,3.1,1.2l1.4-0.4c1.6-0.4,2.5-1.6,1.5-3.2c-2.1-3.5-5.5-4.8-9.3-4.8c-6.2,0-10.5,3.9-10.5,9.2c0,4.9,4.1,7.2,7.9,8.4
		l3.8,1.4c1.9,0.7,3.2,1.5,3.2,3.1c0,1.9-1.8,3.3-4.4,3.3c-2.1,0-3.9-0.8-4.9-2.1c-1-1.1-1.7-1.8-3.1-1.4l-1.5,0.4
		c-1.6,0.4-2.4,1.5-1.6,3.1c2,3.9,6.2,5.9,11.2,5.9c6.1,0,11.4-3.2,11.4-9.2C222.6,104.3,220.8,100.8,214.8,98.9z"/>
	<path class="st0" d="M248.1,105.1H245c-0.9,0-1.2,0.5-1.1,1.5c0.1,0.4,0.1,0.8,0.1,1.1c0,1.8-1.4,2.9-3,2.9s-2.9-1.1-2.9-3.8V92.1
		h7.4c0.9,0,1.4-0.5,1.4-1.4v-3.1c0-0.8-0.5-1.4-1.4-1.4h-7.4V80c0-1.2-0.7-1.9-1.9-1.9h-2.1c-1.1,0-1.9,0.6-2.1,1.8l-1.1,6.4h-3.6
		c-0.9,0-1.4,0.5-1.4,1.4v3.1c0,0.9,0.5,1.4,1.4,1.4h3.3v14.4c0,8,5,10.3,9.9,10.3c5.6,0,9.5-2.9,9.5-8.5c0-0.2-0.1-1.2-0.3-2.2
		C249.4,105.4,248.8,105.1,248.1,105.1z"/>
	<path class="st0" d="M271.6,85.8c-0.3-0.1-0.9-0.1-1.2-0.1c-3.1,0-6.9,2.2-7.9,7.3v-4.1c0-1.6-0.9-2.5-2.5-2.5h-2.5
		c-1.6,0-2.5,0.9-2.5,2.5v24.9c0,1.6,0.9,2.5,2.5,2.5h2.6c1.6,0,2.5-0.9,2.5-2.5v-9.3c0-9.8,4.2-11.5,7.1-11.5c0.5,0,1,0.1,1.5,0.2
		c1.1,0.2,1.8-0.5,1.8-2v-2.9C273.1,87,272.9,85.9,271.6,85.8z"/>
	<path class="st0" d="M281.7,73.1c-2.9,0-4.8,1.9-4.8,4.4s1.9,4.4,4.8,4.4c2.9,0,4.8-1.9,4.8-4.4C286.5,75.1,284.6,73.1,281.7,73.1z
		"/>
	<path class="st0" d="M283.1,86.4h-2.7c-1.6,0-2.5,0.9-2.5,2.5v24.9c0,1.6,0.9,2.5,2.5,2.5h2.6c1.6,0,2.5-0.9,2.5-2.5V88.9
		C285.5,87.3,284.6,86.4,283.1,86.4z"/>
	<path class="st0" d="M309.2,92.1c0.7,0,2.9,0.1,5.2,1.2c1.5,0.7,2.5,0.6,3.5-0.6l0.7-0.9c1-1.3,0.8-2.6-0.6-3.5
		c-3.3-1.9-6.6-2.5-9.2-2.5c-10.7,0-17,7.1-17,15.8c0,8.5,6.6,15.3,17,15.3c2.4,0,5.5-0.5,8.5-2.1c1.9-1,2.2-2.5,1.3-3.8l-0.7-0.9
		c-0.9-1.2-2-1.3-3.5-0.6c-2.2,1.1-4.5,1.2-5.2,1.2c-5.7,0-9.9-3.8-9.9-9.3C299.4,95.9,303.5,92.1,309.2,92.1z"/>
	<path class="st0" d="M345.6,105.1h-3.2c-0.9,0-1.2,0.5-1.1,1.5c0.1,0.4,0.1,0.8,0.1,1.1c0,1.8-1.4,2.9-3,2.9s-2.9-1.1-2.9-3.8V92.1
		h7.4c0.9,0,1.4-0.5,1.4-1.4v-3.1c0-0.8-0.5-1.4-1.4-1.4h-7.4V80c0-1.2-0.7-1.9-1.9-1.9h-2.1c-1.1,0-1.9,0.6-2.1,1.8l-1.1,6.4h-3.6
		c-0.9,0-1.4,0.5-1.4,1.4v3.1c0,0.9,0.5,1.4,1.4,1.4h3.3v14.4c0,8,5,10.3,9.9,10.3c5.6,0,9.5-2.9,9.5-8.5c0-0.2-0.1-1.2-0.3-2.2
		C346.9,105.4,346.3,105.1,345.6,105.1z"/>
	<path class="st0" d="M369.4,74.4c-11.2,0-18,9.5-18,21.3c0,11.7,6.8,21.2,18,21.2s18.1-9.5,18.1-21.2
		C387.5,83.9,380.5,74.4,369.4,74.4z M369.4,80.8c2.7,0,5,1.2,6.8,3.1l-16.5,18c-0.6-1.9-0.9-4-0.9-6.3
		C358.8,87.4,362.8,80.8,369.4,80.8z M369.4,110.5c-2.5,0-4.7-1-6.3-2.6l16.3-17.8c0.5,1.7,0.7,3.6,0.7,5.7
		C380,103.9,375.9,110.5,369.4,110.5z"/>
	<path class="st0" d="M422.4,113.2l-10.3-12.4l9.3-11.3c1.4-1.6,0.7-3.1-1.5-3.1h-2.8c-1.3,0-2.2,0.5-3.1,1.5l-6.9,8.2l-6.9-8.2
		c-0.8-1-1.8-1.5-3-1.5h-2.8c-2.2,0-2.8,1.4-1.5,3.1l9.3,11.3l-10.3,12.4c-1.4,1.6-0.7,3.1,1.4,3.1h2.8c1.3,0,2.2-0.4,3.1-1.4
		l7.9-9.4l7.8,9.4c0.9,1,1.8,1.4,3.1,1.4h2.8C423.1,116.2,423.8,114.8,422.4,113.2z"/>
</g>
<g>
	<path class="st0" d="M31.1,121.8c-9.4-23.2,0-46.5,18.8-63.2C74,37.3,107.1,67,115.4,80.9c9,15.1,4.6,47.2-17.2,59.7
		C76.4,153.2,40.6,145.1,31.1,121.8z"/>
	<path class="st1" d="M78.7,69.4c0.1,1.5-2.3,0.9-4.9,1.8c-2.9,1-5,0.1-5.1-1.4s1.9-4.9,4.7-5C76.1,64.7,78.6,67.9,78.7,69.4z"/>
	<path class="st2" d="M115.5,81C107.2,67.1,74.1,37.4,50,58.7c-18.9,16.7-28.2,40-18.8,63.2c0.2,0.6,0.5,1.2,0.8,1.8
		c0.3-0.7,0.8-1.4,1.3-2c4.8-4.9,10.2,5.2,21.5,11c7.5,3.9,11.8,9,13,13.5c10.7,1.3,21.7-0.4,30.4-5.4
		C120.1,128.2,124.5,96.1,115.5,81z"/>
	<path class="st1" d="M54.8,132.7c-11.3-5.9-16.7-15.9-21.5-11c-0.6,0.6-1,1.2-1.3,2c6.2,12.9,20.6,20.7,35.9,22.6
		C66.5,141.6,62.3,136.5,54.8,132.7z"/>
	<path class="st1" d="M119,90.4c-1.8-1.3-3.7-2.1-5-2.2c-3.5-0.2-6.2,4.6-4.4,11.6c1.6,6.3-0.4,11.8,3.1,12c1.5,0.1,3.9-0.8,6.2-2.5
		C120.2,102.8,120.2,96.1,119,90.4z"/>
	<path class="st2" d="M78.1,94.1c-12.6-7.2-23.1,11.3-10.6,18.5c5.8,3.3,12.7,2,14.1-5.4C82.3,102.9,81.9,96.2,78.1,94.1z"/>
	<path class="st3" d="M83.7,59.9v23.4c-3.5-2-7.5-3.2-11.8-3.2c-13.1,0-23.7,10.6-23.7,23.7c0,13.1,10.6,23.7,23.7,23.7
		c4.6,0,8.8-1.3,12.4-3.5c1,2.1,3.1,3.5,5.5,3.5l0,0c3.3,0,6.1-2.7,6.1-6.1V61c-3.1-2.2-6.5-4.2-10-5.8C84.5,56.3,83.7,58,83.7,59.9
		z M81.6,107.2c-1.3,7.4-8.3,8.7-14.1,5.4c-12.6-7.2-2-25.7,10.6-18.5C81.9,96.2,82.3,102.9,81.6,107.2z"/>
</g>
</svg>
