<?xml version="1.0" encoding="UTF-8"?>
<svg width="82px" height="40px" viewBox="0 0 82 40" version="1.1" xmlns="http://www.w3.org/2000/svg" xmlns:xlink="http://www.w3.org/1999/xlink">
    <!-- Generator: Sketch 49.3 (51167) - http://www.bohemiancoding.com/sketch -->
    <title>hydro</title>
    <desc>Created with Sketch.</desc>
    <defs></defs>
    <g id="Page-1" stroke="none" stroke-width="1" fill="none" fill-rule="evenodd">
        <g id="hydro" transform="translate(-39.000000, -10.000000)">
            <g transform="translate(39.000000, 10.000000)" fill="#273B5A" id="Fill-1">
                <path d="M68.8165018,12.7362082 C70.1831191,11.7864684 71.9597365,11.3793309 74.1463538,11.5150929 C77.6312058,11.5150929 79.6810578,13.3467658 80.0910578,13.9573234 C81.9360578,16.3997026 82.1409097,20.4701859 81.9360578,22.9125651 C81.5260578,30.0358364 78.0410578,31.0535316 77.0162058,31.4605204 C74.9663538,32.0712268 73.1213538,31.867658 71.8913538,31.6642379 C67.3816498,30.6465428 66.7666498,28.0007435 66.3566498,26.5760595 C65.5366498,22.5055762 65.7417978,19.4524907 66.3566498,16.8068401 C66.7666498,15.0428253 67.5865018,13.6860967 68.8165018,12.7362082 Z M72.713574,15.9283271 C71.944787,16.340223 71.4961552,17.0954647 71.3679747,18.1939033 C71.175704,19.8416357 71.0796426,21.489368 71.5602455,24.1668401 C72.0408484,26.8441636 73.2903863,26.6383643 73.6747798,26.6383643 C74.0591733,26.6383643 76.1737076,27.2562082 76.1737076,22.5191078 C76.1737076,17.7820074 75.7891661,16.340223 74.8281083,15.9283271 C74.1873538,15.7910781 73.482509,15.7910781 72.713574,15.9283271 Z M53.0841949,11.6050558 L58.6946823,11.6050558 L58.6946823,13.4234944 C60.1333827,12.7498885 60.9966029,12.3458736 61.2841949,12.2111524 C63.1543574,11.5376952 64.6649928,11.3357621 65.8159531,11.6050558 L65.8159531,16.4539777 C63.8017726,16.9927138 62.1474152,17.3967286 60.8525848,17.666171 C59.5579025,17.9354647 58.9104874,18.54171 58.9104874,19.484461 L58.9104874,23.5252045 C58.9104874,26.7577695 58.4790253,28.7107807 57.6158051,29.3842379 C56.4649928,30.4618587 54.9545054,31.0005948 53.0841949,31.0005948 L53.0841949,11.6050558 Z M45.1293069,2.06408922 L50.4948303,0 L50.4948303,31.3381413 L45.1293069,31.3381413 L45.1293069,29.6889219 C42.8592094,32.1628253 38.7319747,31.9565799 37.4936859,30.925948 C36.2555451,29.8951673 35.4300686,28.2457993 35.0172563,25.9781413 C34.7422455,24.4663197 34.6734188,22.1986617 34.8109242,19.1750186 C35.086083,16.5637175 35.8427329,14.570855 37.0810217,13.1965799 C38.3191625,11.8221561 40.0389422,11.1350186 42.240065,11.1350186 L45.1293069,11.1350186 L45.1293069,2.06408922 Z M42.7314729,15.3918216 C41.4267256,15.5313011 40.7091516,16.3686245 40.5786029,17.9034944 C40.1872527,20.205948 40.3829278,22.2991822 40.5786029,25.2294424 C40.774426,26.4853532 41.3615993,27.5318959 42.5356498,27.5318959 C43.7099964,27.5318959 44.4928448,26.6947212 44.6885199,23.7643123 C44.884343,20.8339033 44.884343,18.1128625 44.884343,16.8569517 C44.884343,15.8802974 44.1666209,15.3918216 42.7314729,15.3918216 Z M16.184343,11.693829 L21.5507545,11.693829 C23.6149639,19.0449071 24.784574,23.0608178 25.0597329,23.7414126 C25.3350397,23.469145 25.6101986,22.9927138 25.8853574,22.312119 C27.5366065,17.2752416 28.4998845,14.212342 28.7751913,13.1232714 C29.0503502,12.0342007 29.6006679,11.4896654 30.4262924,11.4896654 L35.1737076,11.4896654 C29.807148,26.4640892 26.9174621,34.3597026 26.5046498,35.1766543 C26.0918375,36.4017844 25.4726931,37.2184387 25.0597329,37.6269145 C23.5461372,39.2603717 21.6884079,40.0092193 19.4868412,39.8731599 C20.4499711,36.7420074 21.1379422,34.5640149 21.5507545,33.3387361 C21.9637148,32.1136059 21.9637148,31.0245353 21.5507545,30.0716729 L16.184343,11.693829 Z M0,2.44728625 L5.39172202,0 C5.38905776,7.07018587 5.38905776,10.9452788 5.39172202,11.6251301 C5.39571841,12.6449071 5.80216606,12.6449071 6.00938628,12.4410409 C7.66714801,10.809368 12.433213,10.6053532 14.0909747,11.6251301 C15.1960505,12.3049814 15.7500686,13.5967286 15.7527329,15.500223 L15.7527329,31.0005948 L10.3610108,31.0005948 L10.3610108,18.1515242 C10.3610108,17.539777 9.9465704,16.52 8.91046931,16.52 C7.87436823,16.52 7.04548736,16.7238662 6.2166065,17.1318959 C5.66406859,17.4037175 5.38905776,17.8797026 5.39172202,18.5595539 L5.39172202,31.0005948 L0,31.0005948 L0,2.44728625 Z"></path>
            </g>
            <rect id="Rectangle-8-Copy-8" fill-opacity="0" fill="#FFFFFF" opacity="0" x="0" y="0" width="160" height="60"></rect>
        </g>
    </g>
</svg>