<?xml version="1.0" encoding="UTF-8"?>
<svg width="108px" height="15px" viewBox="0 0 108 15" version="1.1" xmlns="http://www.w3.org/2000/svg" xmlns:xlink="http://www.w3.org/1999/xlink">
    <title>Lendroid Logo</title>
    <desc>Created with Sketch.</desc>
    <defs></defs>
    <g id="Navigation/Top/Overview" stroke="none" stroke-width="1" fill="none" fill-rule="evenodd" transform="translate(-150.000000, -53.000000)">
        <g id="Navigation" fill="#0f121c">
            <g id="logo/black" transform="translate(150.000000, 53.000000)">
                <g id="Lendroid">
                    <path d="M95.3782156,7.45285451 C95.3782156,5.15318238 95.3784561,2.85351025 95.3775541,0.553838115 C95.377494,0.43980123 95.3817033,0.32810041 95.4398526,0.226973361 C95.5106298,0.104084016 95.6099105,0.0311127049 95.7564561,0.0313586066 C97.5149439,0.033817623 99.2743336,-0.00103893443 101.031739,0.0446372951 C104.171376,0.126338115 107.011066,2.51158402 107.75961,5.63871516 C108.752596,9.78676844 106.201247,13.8992275 102.106868,14.7472193 C101.619786,14.8481004 101.126389,14.8876291 100.628784,14.8867684 C99.0356031,14.8836947 97.4424829,14.8856619 95.8493024,14.8855389 C95.5211532,14.8855389 95.3785163,14.7391045 95.3784561,14.3979775 C95.3780352,12.082875 95.3782156,9.76789549 95.3782156,7.45285451 Z M98.0821724,7.44277254 C98.0821724,8.99939139 98.0837359,10.5560102 98.0792258,12.1126291 C98.078865,12.242957 98.1033394,12.2857439 98.2409252,12.2838381 C98.8568739,12.2750471 99.4730031,12.2800266 100.089072,12.2800881 C100.489622,12.2800881 100.889751,12.280334 101.286513,12.2074242 C102.600613,11.9658873 103.64309,11.2948832 104.368241,10.1431414 C104.993391,9.15031352 105.202355,8.05205533 105.090326,6.8851291 C104.987918,5.81889959 104.604326,4.87322336 103.888315,4.08523156 C102.964302,3.06830533 101.800475,2.60305943 100.456549,2.58670697 C99.7153416,2.57767008 98.9739541,2.58842828 98.232747,2.58148156 C98.104963,2.58025205 98.078865,2.61695287 98.0792258,2.74223975 C98.0836757,4.30906352 98.0821724,5.87594877 98.0821724,7.44277254 Z" id="D"></path>
                    <path d="M88.9063878,7.47993443 C88.9063878,5.17011885 88.9113187,2.86030328 88.9006751,0.550610656 C88.8992318,0.226635246 89.133753,0.0170655738 89.4069401,0.0259180328 C89.9975125,0.0450368852 90.589047,0.0313278689 91.1802207,0.0320040984 C91.4833543,0.0323114754 91.6543744,0.20554918 91.6544345,0.515569672 C91.6548555,5.16083607 91.6548555,9.80616393 91.6544345,14.4514303 C91.6544345,14.7692582 91.4833543,14.9405287 91.1692163,14.9407746 C90.5730514,14.9412664 89.9768265,14.9414508 89.3806617,14.9407131 C89.0799334,14.9403443 88.9068688,14.763541 88.9066283,14.4553648 C88.9059668,13.4515328 88.9063878,12.4477008 88.9063878,11.4438689 L88.9063878,7.47993443 Z" id="I"></path>
                    <path d="M85.5900541,7.49200205 C85.5752011,11.6421455 82.3431989,14.905752 78.2681833,14.8852807 C74.231533,14.8650553 71.0352501,11.570834 71.0534105,7.44970697 C71.071631,3.31247336 74.3182457,0.0116741803 78.3490029,0.0322069672 C82.3499339,0.0525553279 85.6046065,3.40560861 85.5900541,7.49200205 Z M78.2929223,12.3315061 C80.8938822,12.3328586 83.0403521,10.1428586 83.0414947,7.48656762 C83.0425771,4.82019467 80.8813744,2.58599385 78.2998376,2.5848873 C75.7164367,2.58378074 73.5536105,4.81330943 73.5513855,7.47955943 C73.5492808,10.1363422 75.6931049,12.3301537 78.2929223,12.3315061 Z" id="O"></path>
                    <path d="M57.1314107,7.53600615 C57.1314107,5.23092418 57.1255777,2.92578074 57.1374241,0.620760246 C57.1392882,0.255104508 57.3067604,0.0229118852 57.7062281,0.0257397541 C59.6953884,0.0395717213 61.6847292,0.0219282787 63.6738294,0.036375 C65.8676846,0.0522971311 67.761894,1.75504303 68.0456646,3.98020697 C68.2919118,5.91096516 67.5056646,7.3568668 65.9554196,8.4131373 C65.7095332,8.58065779 65.4481323,8.72346516 65.1718183,8.83073975 C65.0455978,8.87967418 65.0517314,8.92418238 65.1116846,9.03176434 C66.0679296,10.7468053 67.0194842,12.4645512 67.9721212,14.1817439 C68.0017069,14.235166 68.0333973,14.2876045 68.0590143,14.3429939 C68.1904062,14.6271332 68.021551,14.9332807 67.7139675,14.9370307 C66.9674686,14.9460061 66.2208494,14.9409037 65.4742904,14.9393668 C65.2922659,14.938998 65.1866111,14.8279119 65.1048895,14.6717643 C64.2624174,13.0623381 63.4171791,11.4543258 62.5727826,9.8458832 C62.4617158,9.63416189 62.3463194,9.42459221 62.2419274,9.2093668 C62.1997136,9.12231762 62.1464953,9.09858811 62.0553327,9.09907992 C61.3839408,9.10295287 60.7124886,9.10492008 60.0410967,9.09791189 C59.9146958,9.0966209 59.8857715,9.13080123 59.8861323,9.25780943 C59.890522,10.9687316 59.8890788,12.6795922 59.8890187,14.3905143 C59.8890187,14.7805143 59.7327314,14.9409037 59.3529274,14.9409037 C58.7716757,14.9409652 58.1904241,14.941334 57.6092325,14.9407807 C57.2845109,14.9404119 57.1316512,14.7842029 57.1315911,14.4513135 C57.1312904,12.1461701 57.1314107,9.84108811 57.1314107,7.53600615 Z M59.8892713,4.63666598 C59.8892713,5.2918709 59.892759,5.94707582 59.8863247,6.60221926 C59.885122,6.73156352 59.9224049,6.76174795 60.0453782,6.76119467 C61.0717991,6.75603074 62.09822,6.75892008 63.1247011,6.75750615 C63.2817702,6.75732172 63.4302401,6.81922746 63.5939238,6.78990369 C64.6741042,6.59619467 65.4330508,5.57035451 65.3351532,4.42377664 C65.2457345,3.37605123 64.3244272,2.53334631 63.2590998,2.53051844 C62.1826477,2.5276291 61.1060753,2.53156352 60.029563,2.52726025 C59.9184962,2.52682992 59.8854829,2.55400205 59.8865051,2.6711127 C59.892278,3.32625615 59.8892713,3.98146107 59.8892713,4.63666598 Z" id="R"></path>
                    <path d="M41.2230107,7.45654918 C41.2230107,5.14667213 41.2232512,2.83673361 41.2222891,0.526856557 C41.2222891,0.417737705 41.2270998,0.311754098 41.2866922,0.216713115 C41.3585519,0.102 41.4536232,0.0311803279 41.5942757,0.0313647541 C43.3527635,0.0338852459 45.1120931,-0.00121721311 46.8694984,0.0445819672 C50.0842423,0.128311475 52.9667479,2.61370082 53.6434316,5.82954098 C54.495886,9.88027869 52.0518748,13.7979836 48.09869,14.7142131 C47.5645831,14.8380246 47.0221777,14.8877582 46.4739996,14.8867131 C44.8758281,14.8835779 43.2776566,14.885668 41.6794851,14.8855451 C41.3675118,14.8854836 41.2233715,14.7388033 41.2233114,14.4169795 C41.2227702,12.0968361 41.2230107,9.77669262 41.2230107,7.45654918 Z M43.9267931,7.42587295 L43.9267931,8.40935656 C43.9267931,9.64888525 43.9274546,10.8884139 43.9255303,12.1279426 C43.92541,12.2250123 43.9243276,12.2935574 44.0552385,12.283168 C44.2195837,12.2700738 44.385733,12.2828607 44.5509802,12.279541 C45.3369267,12.2637418 46.1256996,12.3335164 46.908459,12.2356475 C48.233263,12.0700328 49.3083321,11.4439672 50.0866416,10.3293566 C50.7774568,9.33997131 51.0306795,8.22161066 50.9424635,7.01669262 C50.8605615,5.89753279 50.4754056,4.90495082 49.7248176,4.07995082 C48.8000225,3.06351639 47.6340314,2.60140574 46.2897441,2.58640574 C45.5533477,2.57816803 44.8167708,2.58806557 44.0803143,2.58167213 C43.9569802,2.58062705 43.9232452,2.60927459 43.9236661,2.73917213 C43.928537,4.30138525 43.9267931,5.86365984 43.9267931,7.42587295 Z" id="D"></path>
                    <path d="M34.7204726,9.38680943 C34.7635283,9.31709631 34.7453078,9.25426844 34.7453679,9.19531352 C34.7464503,6.39818238 34.7462699,3.6011127 34.7464503,0.804043033 C34.7464503,0.742629098 34.7448869,0.680784836 34.7505996,0.61980123 C34.7712855,0.398797131 34.9182521,0.246276639 35.1334704,0.244678279 C35.784898,0.239637295 36.4363256,0.239514344 37.0877532,0.243694672 C37.314878,0.245170082 37.4897465,0.435682377 37.497143,0.669043033 C37.4984058,0.709985656 37.4974437,0.750989754 37.4974437,0.791993852 L37.4974437,14.3932439 C37.4974437,14.7475266 37.3622031,14.8586127 37.0196218,14.892916 C36.6903301,14.9259283 36.4814258,14.7935717 36.2627198,14.5568914 C33.5339158,11.6039816 30.7951296,8.66060041 28.0589292,5.7148832 C28.0182788,5.67117418 27.9775082,5.62758811 27.9087755,5.55381762 L27.9087755,5.75109221 C27.9087755,8.61990369 27.9088356,11.4887152 27.9087755,14.3575266 C27.9087154,14.7532439 27.7812922,14.885416 27.3994437,14.8855389 C26.8332254,14.8857234 26.266947,14.8860307 25.7007287,14.885416 C25.3716775,14.8851086 25.2060094,14.7134693 25.2060094,14.3724652 C25.2057688,9.77730123 25.2059492,5.18207582 25.2046864,0.586911885 C25.2046864,0.51855123 25.2222454,0.448961066 25.1752811,0.380784836 C25.1407644,0.330805328 25.1775661,0.26969877 25.209016,0.224514344 C25.2919403,0.105436475 25.4052922,0.039227459 25.5509359,0.0320963115 C26.0535929,0.00732172131 26.0534726,0.00689139344 26.3990004,0.380969262 C29.0997822,3.30455533 31.8005639,6.22820287 34.5013457,9.15172746 C34.5727243,9.22900205 34.6447644,9.30566189 34.7204726,9.38680943" id="N"></path>
                    <path d="M12.151804,7.4801127 C12.151804,5.16968238 12.151804,2.85925205 12.1518641,0.548883197 C12.1518641,0.173760246 12.2918552,0.0318135246 12.6613163,0.0318135246 C15.4173608,0.0317520492 18.1734053,0.0317520492 20.92951,0.031875 C21.2704677,0.031875 21.4365568,0.200809426 21.4367973,0.547530738 C21.437098,1.05470287 21.437098,1.561875 21.4367973,2.06898566 C21.4366169,2.43451844 21.291755,2.58457992 20.9387105,2.58464139 C18.9644031,2.58476434 16.9900356,2.58617828 15.0156682,2.5813832 C14.8845768,2.58107582 14.8515033,2.61107582 14.8522851,2.74724385 C14.8586592,3.79742828 14.8587194,4.8476127 14.8524053,5.89779713 C14.8515635,6.04134221 14.8792851,6.0851127 15.0291381,6.08449795 C16.6226192,6.07810451 18.2162205,6.09039959 19.8095212,6.07417008 C20.2574566,6.06968238 20.4412851,6.27292008 20.4210802,6.70908811 C20.3995523,7.17421107 20.4000935,7.64203893 20.421441,8.10716189 C20.4380379,8.46753074 20.2394165,8.6913627 19.8618374,8.68798156 C18.2533831,8.67390369 16.6448085,8.68484631 15.036294,8.67759221 C14.8774209,8.67691598 14.8516236,8.72480533 14.8524655,8.87296107 C14.8585991,9.99482582 14.857637,11.116752 14.8531269,12.2386783 C14.852706,12.3573873 14.8800668,12.3911373 15.0000334,12.3908914 C16.9743408,12.3867111 18.9487082,12.3937193 20.9230156,12.3823463 C21.2589822,12.3804406 21.4515902,12.631875 21.4419087,12.9125717 C21.4242294,13.4241701 21.4373987,13.9369365 21.4366771,14.4492111 C21.436196,14.7828996 21.2833363,14.940707 20.960118,14.9407684 C18.1839889,14.9410143 15.4079198,14.9410758 12.6317906,14.940707 C12.325951,14.940707 12.1520445,14.7597848 12.1519844,14.4420184 C12.1516837,12.1213832 12.151804,9.80074795 12.151804,7.4801127" id="E"></path>
                    <path d="M0.0139690423,7.48503689 C0.0139690423,5.1854877 0.0139089087,2.88593852 0.0143298441,0.586389344 C0.0143298441,0.519995902 0.0142095768,0.452741803 0.0240113586,0.387393443 C0.0559423163,0.173766393 0.202908909,0.0348319672 0.41247461,0.0336639344 C1.05873073,0.0299754098 1.70498686,0.029852459 2.35124298,0.0331106557 C2.58359933,0.0342172131 2.76496236,0.226389344 2.76845011,0.467065574 C2.77187773,0.702577869 2.76929198,0.938213115 2.76929198,1.17384836 C2.76929198,4.85106148 2.77013385,8.52833607 2.7661049,12.2055492 C2.7659245,12.3479877 2.79094009,12.3925574 2.9415147,12.3919426 C4.61972405,12.3856107 6.29799354,12.3878852 7.97626303,12.3880082 C8.31860379,12.3880697 8.48132539,12.5542377 8.48144566,12.9034795 C8.48162606,13.4258975 8.48222739,13.9482541 8.48120512,14.4706721 C8.48060379,14.7825984 8.32449688,14.9406516 8.01625189,14.9406516 C5.51637661,14.941082 3.01656147,14.940959 0.516686192,14.9408975 C0.159432294,14.9408361 0.0142697105,14.7942172 0.0142095768,14.4298525 C0.0137886414,12.1149344 0.0139690423,9.79995492 0.0139690423,7.48503689" id="L"></path>
                </g>
            </g>
        </g>
    </g>
</svg>