<?xml version="1.0" encoding="utf-8"?>
<!-- Generator: Adobe Illustrator 21.1.0, SVG Export Plug-In . SVG Version: 6.00 Build 0)  -->
<svg version="1.1" id="Layer_1" xmlns="http://www.w3.org/2000/svg" xmlns:xlink="http://www.w3.org/1999/xlink" x="0px" y="0px"
	 viewBox="0 0 1158 316.6" style="enable-background:new 0 0 1158 316.6;" xml:space="preserve">
<path d="M411.4,64.5c-31,0-54.6,15.8-67.2,37.3c-9.9,16.6-13.7,35.6-13.7,57c0,25.3,7.4,48.9,22.2,66.2
	c13.7,16.2,34.1,26.8,59.1,26.8c16.9,0,32.7-4.9,45.4-13.4c14.4-9.9,25-26.4,27.5-44h-29.2c-2.5,9.5-5.6,14.4-10.6,19.4
	c-7.4,7.7-19,11.6-33.1,11.6c-13.7,0-24.6-4.6-32.7-12.7c-10.9-10.9-17.2-28.5-17.2-44.7h126l0.4-18c0.4-23.9-8.1-46.8-22.5-62.7
	C452.6,73.3,434.3,64.5,411.4,64.5z M362.5,142.3c0.7-26.1,16.5-52.5,48.9-52.5c15.8,0,27.8,6.3,35.2,16.2
	c7,9.5,10.9,22.9,10.9,36.3H362.5z M594.8,64.9c-20.1,0-42.9,9.9-53.2,27.8L536,69.5h-22.9v247.2h29.9v-89.8
	c9.5,16.2,32.4,25.3,51.8,25.3c20.8,0,37.3-7,48.9-18c18-17.3,27.1-45.4,27.1-76c0-29.6-8.8-56.7-25.7-73.9
	C633.5,72.3,616.6,64.9,594.8,64.9z M589.9,226.8c-13,0-21.8-5.3-28.9-11.6c-14.8-13-19.7-34.5-19.7-56.7c0-22.2,4.9-43.7,19.7-56.7
	c7-6.3,15.8-11.6,28.9-11.6c39.8,0,50.3,35.6,50.3,68.3C640.2,191.3,629.7,226.8,589.9,226.8z M775.8,64.5
	c-31,0-54.6,15.8-67.2,37.3c-9.9,16.6-13.7,35.6-13.7,57c0,25.3,7.4,48.9,22.2,66.2c13.7,16.2,34.1,26.8,59.1,26.8
	c16.9,0,32.7-4.9,45.4-13.4c14.4-9.9,25-26.4,27.5-44h-29.2c-2.5,9.5-5.6,14.4-10.6,19.4c-7.4,7.7-19,11.6-33.1,11.6
	c-13.7,0-24.6-4.6-32.7-12.7c-10.9-10.9-17.3-28.5-17.3-44.7h126l0.4-18c0.3-23.9-8.1-46.8-22.5-62.7
	C816.9,73.3,798.6,64.5,775.8,64.5z M726.8,142.3c0.7-26.1,16.5-52.5,48.9-52.5c15.8,0,27.8,6.3,35.2,16.2
	c7,9.5,10.9,22.9,10.9,36.3H726.8z M958.4,64.5c-31,0-54.6,15.8-67.2,37.3c-9.9,16.6-13.7,35.6-13.7,57c0,25.3,7.4,48.9,22.2,66.2
	c13.7,16.2,34.1,26.8,59.1,26.8c16.9,0,32.7-4.9,45.4-13.4c14.4-9.9,25-26.4,27.5-44h-29.2c-2.5,9.5-5.6,14.4-10.6,19.4
	c-7.4,7.7-19,11.6-33.1,11.6c-13.7,0-24.6-4.6-32.7-12.7c-10.9-10.9-17.3-28.5-17.3-44.7h126l0.3-18c0.4-23.9-8.1-46.8-22.5-62.7
	C999.6,73.3,981.3,64.5,958.4,64.5z M909.5,142.3c0.7-26.1,16.5-52.5,48.9-52.5c15.8,0,27.8,6.3,35.2,16.2
	c7,9.5,10.9,22.9,10.9,36.3H909.5z M1158,92.1l-68.3,29.1v126h-29.6V69.5h22.9l5.6,23.2l62.6-22.4L1158,92.1z M207.1,214.5H240v32.9
	h-32.9V214.5z M207.1,69.3H240v32.9h-32.9V69.3z M284.9,69.3h32.9v32.9h-32.9V69.3z M129.4,69.3h32.9v32.9h-32.9V69.3z M246,141.8
	h32.9v32.9H246V141.8z M168.2,141.8h32.9v32.9h-32.9V141.8z M63.9,0h32.9v32.9H63.9V0z M0,0.1h29.9v247.1H0V0.1z M65.4,69.1h29.9
	v178.1H65.4V69.1z"/>
</svg>
