<?xml version="1.0" encoding="UTF-8"?>
<svg width="135px" height="24px" viewBox="0 0 135 24" version="1.1" xmlns="http://www.w3.org/2000/svg" xmlns:xlink="http://www.w3.org/1999/xlink">
    <!-- Generator: Sketch 49.3 (51167) - http://www.bohemiancoding.com/sketch -->
    <title>maecenas</title>
    <desc>Created with Sketch.</desc>
    <defs></defs>
    <g id="Page-1" stroke="none" stroke-width="1" fill="none" fill-rule="evenodd">
        <g id="maecenas" transform="translate(-13.000000, -18.000000)">
            <g id="Page-1" transform="translate(13.000000, 18.000000)" fill="#273B5A">
                <path d="M103.974161,20.8342571 C103.974161,23.6262571 106.804815,22.5096857 106.804815,23.3119714 L106.804815,23.5216857 L98.4895687,23.5216857 L98.4895687,23.3119714 C98.4895687,22.5442571 101.037187,23.6959714 101.037187,20.6254 L101.037187,12.3868286 C101.037187,10.2576857 99.6306953,8.70197143 97.2557382,8.68997143 C95.7692897,8.68197143 94.0000944,9.66711429 93.2573047,11.0628286 L93.2573047,20.8342571 C93.2573047,23.6262571 95.8756094,22.5096857 95.8756094,23.3119714 L95.8756094,23.5216857 L87.5603627,23.5216857 L87.5603627,23.3119714 C87.5603627,22.5442571 90.3206202,23.7659714 90.3206202,20.6254 L90.3206202,11.3071143 C90.3206202,8.37568571 87.6666824,9.49225714 87.6666824,8.72454286 L87.6666824,8.51511429 L92.9742682,7.92168571 L93.1156416,8.0614 L92.9030021,10.5742571 L93.0446652,10.6091143 C94.2831309,8.79425714 96.264676,7.88711429 98.175824,7.88711429 C100.093345,7.88711429 103.990094,8.50654286 103.974161,13.0496857 L103.974161,20.8342571 Z" id="Fill-1"></path>
                <path d="M74.2909925,18.9062571 C73.6574195,19.7231143 71.5933101,23.8262571 65.8700054,23.9059714 C60.9868294,23.9728286 57.9785891,20.9388286 57.9785891,16.1228286 C57.9785891,11.2722571 61.3049195,7.88711429 66.2947049,7.88711429 C70.4345118,7.88711429 71.3192543,9.98082857 71.3192543,11.1674 C71.3192543,12.0748286 70.753471,12.8771143 69.8330955,12.8771143 C68.7000805,12.8771143 68.240617,12.0399714 68.240617,11.0628286 C68.240617,10.3299714 68.5236534,9.49225714 68.9486427,8.89882857 C68.2046942,8.58511429 67.3920869,8.4454 66.5777414,8.4454 C63.5347371,8.4454 61.1985998,10.9231143 61.1985998,16.1928286 C61.1985998,21.0088286 63.2160676,23.1885429 66.3653916,23.2074 C70.9947908,23.2356857 72.9763358,19.8711143 73.9613144,18.6148286 L74.2909925,18.9062571 Z" id="Fill-3"></path>
                <path d="M75.8945086,14.8978857 L84.0228991,14.6178857 L84.0228991,13.9176 C84.0228991,11.7118857 83.1352597,8.31588571 80.2599914,8.31588571 C77.7390258,8.31588571 76.1781245,11.0464571 75.8945086,14.8978857 Z M86.9329313,15.3527429 L75.8585858,15.3527429 C75.7525558,20.3587429 77.1384785,23.2184571 81.2180279,23.3344571 C87.5772232,23.5167429 90.196397,14.4838857 91.5785536,12.4167429 L91.8624592,12.6961714 C90.49247,14.6507429 88.3376845,23.8921714 80.7921695,23.9293143 C75.6094442,23.9564571 72.6281459,20.5690286 72.6281459,15.8781714 C72.6281459,11.3264571 75.716633,7.86102857 80.3663112,7.86102857 C85.0165687,7.86102857 87.2536288,11.1170286 87.2536288,14.6527429 L87.2536288,15.0724571 L86.9329313,15.3527429 Z" id="Fill-5"></path>
                <path d="M18.5424818,20.3108286 L18.1881792,20.5202571 C17.0204002,19.2642571 15.9233079,18.8796857 14.1187693,18.8454 C11.4651212,13.7151143 7.75001395,8.09654286 5.02509979,2.51254286 L4.95441309,2.51254286 L4.63574356,18.2516857 C4.60068991,19.4036857 4.77711695,20.3108286 5.02509979,21.0436857 C5.76788948,23.3468286 8.66981009,22.5442571 8.66981009,23.3468286 L8.66981009,23.5216857 L-2.89699571e-05,23.5216857 L-2.89699571e-05,23.3468286 C-2.89699571e-05,22.4048286 3.85732082,23.8008286 3.99898391,18.2516857 L4.35299678,3.59425714 C4.42339378,0.174542857 0.601677039,1.08168571 0.601677039,0.279114286 L0.601677039,-2.85714286e-05 L7.14801824,-2.85714286e-05 L15.8172779,15.4251143 L23.4612908,-2.85714286e-05 L30.3604861,-2.85714286e-05 L30.3604861,0.279114286 C30.3604861,1.08168571 26.3979753,0.209114286 26.4683723,3.6294 L26.8220955,19.7874 C26.8933616,23.5568286 30.7507114,22.5442571 30.7854753,23.3468286 L30.7854753,23.5216857 L19.8513444,23.5216857 L19.8513444,23.3468286 C19.8513444,22.4742571 23.6380075,23.4516857 23.5676105,19.8222571 L23.2130182,1.88454286 L23.1426212,1.88454286 L16.1359474,15.9834 L18.5424818,20.3108286 Z" id="Fill-7"></path>
                <path d="M129.120026,8.34068571 C127.9873,8.34068571 125.864672,8.93411429 125.864672,11.3072571 C125.864672,14.6572571 134.710938,14.3084 134.710938,19.3684 C134.710938,22.4744 131.491217,23.9061143 128.341603,23.9061143 C125.475315,23.9061143 122.785745,22.7886857 122.785745,20.8344 C122.785745,19.8224 123.564167,19.2989714 124.307826,19.2989714 C125.333652,19.2989714 126.147418,19.9969714 126.147418,21.1832571 C126.147418,21.4278286 126.147418,22.3352571 125.652032,22.9984 C126.217815,23.2772571 127.385884,23.4869714 128.235573,23.4869714 C130.004768,23.4869714 132.021367,22.4401143 132.021367,20.0318286 C132.021367,16.2275429 123.281421,16.6466857 123.281421,12.2841143 C123.281421,9.73668571 125.404918,7.88725714 128.872043,7.88725714 C131.455584,7.88725714 133.790562,8.89897143 133.790562,10.8186857 C133.790562,11.7606857 133.118459,12.2144 132.410433,12.2144 C131.597247,12.2144 130.747268,11.6212571 130.747268,10.4695429 C130.747268,10.2252571 130.747268,9.52725714 131.101861,8.68982857 C130.464521,8.4104 129.756496,8.34068571 129.120026,8.34068571" id="Fill-12"></path>
                <path d="M117.158302,20.8342571 L117.158302,15.2856857 C116.839342,15.2502571 116.273559,15.2156857 115.84857,15.2156857 C111.886349,15.2156857 110.364267,17.2048286 110.364267,19.7874 C110.364267,21.9514 111.283774,23.1025429 112.911885,23.1025429 C114.539128,23.1025429 116.273559,22.1254 117.158302,20.8342571 M120.095276,13.2262571 L120.095276,20.7994 C120.095276,22.5442571 120.271703,22.9628286 122.147508,22.9982571 L122.183141,23.3468286 C121.687754,23.5568286 120.767379,23.8708286 119.741553,23.8708286 C118.325791,23.8708286 117.299095,23.4516857 117.228698,21.5671143 L117.086746,21.5671143 C115.282786,23.4868286 113.513591,23.9059714 111.496123,23.9059714 C109.302808,23.9059714 107.249707,22.6494 107.249707,20.1365429 C107.249707,15.9488286 111.531756,14.7271143 115.246864,14.7271143 C115.920415,14.7271143 116.556595,14.7616857 117.158302,14.8316857 L117.158302,12.5636857 C117.158302,10.6788286 116.733312,8.37568571 113.867025,8.37568571 C112.452132,8.37568571 111.35504,8.82911429 110.647014,9.38768571 C111.319407,9.80625714 111.744396,10.7136857 111.744396,11.5862571 C111.744396,12.5636857 111.213087,13.4356857 109.939278,13.4356857 C109.018902,13.4356857 108.452829,12.7031143 108.452829,11.8305429 C108.452829,10.5045429 109.868881,7.88711429 114.221327,7.88711429 C118.821177,7.88711429 120.095276,10.5742571 120.095276,13.2262571" id="Fill-10"></path>
                <path d="M37.7036749,23.1378286 C36.0764324,23.1378286 35.0141041,22.1958286 35.0141041,19.6832571 C35.0141041,17.1001143 36.6781384,15.1112571 40.6406491,15.1112571 C41.0653487,15.1112571 41.6314217,15.1455429 41.9500912,15.1806857 C41.9500912,15.7178286 41.9738466,16.2446857 42.0285998,16.7572571 L42.0225161,16.7572571 C42.0653916,17.1984 42.1389753,17.6238286 42.2368938,18.0346857 C42.2389217,18.0429714 42.2409496,18.0512571 42.2429775,18.0604 C42.2606491,18.1329714 42.2786105,18.2069714 42.297441,18.2801143 C42.5080526,19.0924 42.8275912,19.8566857 43.2942972,20.5552571 C41.8437715,21.8112571 40.1449732,23.1378286 37.7036749,23.1378286 M49.3808852,8.34068571 C52.246883,8.34068571 53.1316255,11.6212571 53.1316255,13.8198286 L53.1316255,14.3784 L45.205735,14.6572571 C45.4884818,10.8186857 46.8686105,8.34068571 49.3808852,8.34068571 M51.80625,23.5975429 C52.014544,23.5529714 52.2173337,23.5018286 52.4157779,23.4432571 C52.4175161,23.4426857 52.4198337,23.4421143 52.4215719,23.4412571 C52.783117,23.3338286 53.1287285,23.2029714 53.4604345,23.0509714 C53.5247479,23.0218286 53.5893509,22.9918286 53.6527951,22.9606857 C53.722323,22.9272571 53.7906921,22.8935429 53.8584818,22.8578286 C54.1820762,22.6892571 54.4929238,22.4978286 54.7916041,22.2872571 C54.7916041,22.2866857 54.7924732,22.2866857 54.7924732,22.2864 C54.9393509,22.1824 55.0844903,22.0738286 55.225574,21.9592571 C55.2415075,21.9466857 55.2583101,21.9344 55.2739539,21.9215429 C55.2951019,21.9041143 55.3148015,21.8858286 55.3356599,21.8684 C58.7671513,19.0444 60.1380097,13.9435429 61.1102414,12.5495429 L60.828074,12.2701143 C59.7750161,13.8541143 57.9945225,19.5249714 54.3747264,22.0089714 C53.3271727,22.6578286 52.1298444,23.0815429 50.89978,23.1818286 C50.773471,23.1864 50.6486105,23.1921143 50.5191148,23.1884 C47.6789002,23.1075429 46.1556599,21.6769714 45.5304882,19.1152571 C45.273235,17.9778286 45.1698122,16.6329714 45.1698122,15.1112571 L56.0335461,15.1112571 L56.3522157,14.8318286 L56.3522157,14.4132571 C56.3522157,10.8884 54.1223981,7.88725714 49.4869152,7.88725714 C47.5407135,7.88725714 45.5948015,8.61982857 44.108353,10.8532571 C43.4710139,9.03868571 41.7377414,7.88725714 39.0134067,7.88725714 C34.6603809,7.88725714 33.2446191,10.5044 33.2446191,11.8306857 C33.2446191,12.7032571 33.8115612,13.4358286 34.7310676,13.4358286 C36.0048766,13.4358286 36.5361856,12.5635429 36.5361856,11.5861143 C36.5361856,10.7138286 36.1111964,9.8064 35.4390933,9.38754286 C36.1468294,8.82897143 37.2439217,8.37582857 38.6588144,8.37582857 C41.5251019,8.37582857 41.9500912,10.6789714 41.9500912,12.5635429 L41.9500912,14.7272571 C41.3483852,14.6572571 40.7110461,14.6226857 40.0389431,14.6226857 C36.3235461,14.6226857 31.9004131,15.8438286 31.9004131,20.0318286 C31.9004131,22.7886857 33.8466148,23.9755429 36.2876234,23.9755429 C38.0571084,23.9755429 40.4636427,23.7658286 43.5425697,20.9744 C44.9226985,22.7538286 46.9749303,23.8006857 49.9119045,23.8006857 C50.4081599,23.8006857 50.8936964,23.7592571 51.3650376,23.6815429 C51.4226878,23.6724 51.4794689,23.6632571 51.5371191,23.6529714 C51.6275054,23.6361143 51.7167328,23.6166857 51.80625,23.5975429" id="Fill-15"></path>
            </g>
            <rect id="Rectangle-8-Copy-9" fill-opacity="0" fill="#FFFFFF" opacity="0" x="0" y="0" width="160" height="60"></rect>
        </g>
    </g>
</svg>