<?xml version="1.0" encoding="UTF-8"?>
<svg width="300px" height="300px" viewBox="0 0 300 300" version="1.1" xmlns="http://www.w3.org/2000/svg" xmlns:xlink="http://www.w3.org/1999/xlink">
    <!-- Generator: Sketch 43.2 (39069) - http://www.bohemiancoding.com/sketch -->
    <title>mkr-logo-typo-bicolor</title>
    <desc>Created with Sketch.</desc>
    <defs></defs>
    <g id="CI-all" stroke="none" stroke-width="1" fill="none" fill-rule="evenodd">
        <g id="mkr-logo-typo-bicolor">
            <g id="logo-maker" transform="translate(65.000000, 63.000000)">
                <g id="Path-3-Copy-4-+-Path-3-Copy-5-Copy" transform="translate(0.492537, 0.000000)" fill-rule="nonzero">
                    <path d="M75.4223879,112.937499 L75.4223883,54.7768911 C75.4223883,53.5510931 74.8460743,52.3966196 73.8663777,51.659887 L6.34398961,0.882995929 C3.77359974,-1.04993935 0.0999997854,0.783924304 0.0999997854,4 L0.0999997854,112.9375 C0.0999997854,115.091411 1.84608936,116.8375 4,116.8375 C6.15391064,116.8375 7.90000021,115.091411 7.90000021,112.9375 L7.90000021,4 L1.65601039,7.11700407 L69.1783984,57.8938951 L67.6223878,54.776891 L67.6223875,112.937499 C67.6223875,115.091409 69.3684771,116.837499 71.5223877,116.837499 C73.6762983,116.837499 75.4223879,115.091409 75.4223879,112.937499 L75.4223879,112.937499 Z" id="Shape" fill="#1ABC9C"></path>
                    <path d="M96.198508,112.937499 L96.1985077,54.776891 L94.6424971,57.8938951 L162.164885,7.11700407 L155.920895,4 L155.920895,112.9375 C155.920895,115.091411 157.666985,116.8375 159.820896,116.8375 C161.974806,116.8375 163.720896,115.091411 163.720896,112.9375 L163.720896,4 C163.720896,0.783924304 160.047296,-1.04993935 157.476906,0.882995929 L89.9545179,51.659887 C88.9748212,52.3966196 88.3985072,53.5510931 88.3985072,54.7768911 L88.3985076,112.937499 C88.3985076,115.091409 90.1445972,116.837499 92.2985078,116.837499 C94.4524185,116.837499 96.198508,115.091409 96.198508,112.937499 L96.198508,112.937499 Z" id="Shape" fill="#546979"></path>
                </g>
                <path d="M3.15852379,143.624298 L15.4157241,163.84491 C15.4157241,163.84491 15.4233325,163.852508 15.4385494,163.867706 L15.4385494,163.890503 C15.4689834,163.920899 15.4994168,163.958893 15.5298507,164.004486 C15.5602847,164.034882 15.5907181,164.065277 15.6211521,164.095673 C15.651586,164.126068 15.6820194,164.156463 15.7124534,164.186859 C15.7581042,164.217255 15.7961461,164.24765 15.82658,164.278046 C15.9026648,164.323639 15.9178815,164.331238 15.8722306,164.300842 C15.8874476,164.300842 15.895056,164.308441 15.895056,164.323639 L15.9407066,164.323639 C15.9863575,164.354035 16.0320077,164.376831 16.0776586,164.392029 C16.1080925,164.407227 16.1461343,164.422424 16.1917852,164.437622 C16.2374361,164.45282 16.2830863,164.460419 16.3287372,164.460419 C16.3591711,164.475617 16.3972129,164.483215 16.4428638,164.483215 C16.4885147,164.498413 16.5341649,164.506012 16.5798158,164.506012 C16.6254666,164.506012 16.6711168,164.498413 16.7167677,164.483215 C16.7624186,164.483215 16.8004604,164.475617 16.8308944,164.460419 C16.8765452,164.460419 16.9221954,164.45282 16.9678463,164.437622 C17.0134972,164.422424 17.051539,164.407227 17.0819729,164.392029 C17.1276238,164.376831 17.173274,164.354035 17.2189249,164.323639 C17.2797927,164.293243 17.3026178,164.285644 17.2874009,164.300842 C17.24175,164.331238 17.2569667,164.323639 17.3330515,164.278046 C17.3634855,164.24765 17.4015273,164.217255 17.4471782,164.186859 C17.4776121,164.156463 17.5080456,164.126068 17.5384795,164.095673 C17.5536964,164.080475 17.5841299,164.05008 17.6297808,164.004486 C17.6602147,163.958893 17.6906482,163.920899 17.7210821,163.890503 L17.7210821,163.867706 C17.736299,163.852508 17.7439074,163.84491 17.7439074,163.84491 L30.0011077,143.624298 L30.0011077,168.632202 C30.0011077,169.012148 30.13045,169.338896 30.3891383,169.612457 C30.6630436,169.87082 30.982595,170 31.347802,170 C31.728226,170 32.0477774,169.87082 32.3064657,169.612457 C32.580371,169.338896 32.7173216,169.012148 32.7173216,168.632202 L32.7173216,138.745819 C32.7173216,138.061917 32.3825535,137.628785 31.7130072,137.446411 C31.0586779,137.264037 30.5489174,137.469205 30.1837104,138.06192 L16.5798158,160.516602 L2.97592118,138.06192 C2.61071413,137.469205 2.1009536,137.264037 1.4466243,137.446411 C0.777078042,137.628785 0.442309935,138.061917 0.442309935,138.745819 L0.442309935,168.632202 C0.442309935,169.012148 0.571652158,169.338896 0.830340485,169.612457 C1.10424577,169.87082 1.43140551,170 1.81182952,170 C2.17703657,170 2.49658795,169.87082 2.77049324,169.612457 C3.02918156,169.338896 3.15852379,169.012148 3.15852379,168.632202 L3.15852379,143.624298 Z M50.2481869,159.627533 L57.46099,142.2565 L64.6737932,159.627533 L50.2481869,159.627533 Z M45.0440124,170 C45.6526908,170 46.071151,169.718844 46.2994054,169.156525 L49.1297459,162.363129 L65.7922342,162.363129 L68.6225747,169.156525 C68.8508291,169.718844 69.2692892,170 69.8779676,170 C70.0605712,170 70.2355636,169.962006 70.4029502,169.886017 C70.7529402,169.749236 70.996408,169.506075 71.1333606,169.156525 C71.2855302,168.806975 71.2855302,168.45743 71.1333606,168.10788 L67.9606402,160.471008 L67.9606402,160.448212 L58.716383,138.175903 C58.6859491,138.099914 58.6479072,138.016327 58.6022564,137.92514 C58.6022564,137.940338 58.5718229,137.909943 58.5109551,137.833954 C58.4653042,137.773163 58.4348707,137.735169 58.4196537,137.719971 C58.4044368,137.719971 58.366395,137.689575 58.3055271,137.628784 C58.2446593,137.583191 58.2142258,137.560394 58.2142258,137.560394 C58.0620562,137.454009 57.8946722,137.38562 57.7120686,137.355225 C57.7272856,137.355225 57.6892438,137.355225 57.597942,137.355225 C57.5218572,137.340027 57.476207,137.332428 57.46099,137.332428 C57.4457731,137.332428 57.3925145,137.340027 57.3012127,137.355225 L57.1870861,137.355225 C57.0196996,137.38562 56.8599239,137.454009 56.7077543,137.560394 C56.7229712,137.545196 56.6925378,137.567993 56.616453,137.628784 C56.5555851,137.674378 56.5175433,137.704773 56.5023263,137.719971 C56.4871094,137.735169 56.4566759,137.773163 56.411025,137.833954 C56.3501572,137.894745 56.3197237,137.92514 56.3197237,137.92514 C56.2740728,138.016327 56.236031,138.099914 56.2055971,138.175903 L46.9613398,160.448212 L46.9613398,160.471008 L43.7886195,168.10788 C43.6364499,168.45743 43.6364499,168.806975 43.7886195,169.156525 C43.9255721,169.506075 44.1690398,169.749236 44.5190299,169.886017 C44.6864165,169.962006 44.8614089,170 45.0440124,170 L45.0440124,170 Z M83.5970034,169.361694 C83.8709087,169.103331 84.0078593,168.784182 84.0078593,168.404236 L84.0078593,159.695923 L88.0707674,155.410156 L101.560535,169.589661 C101.834441,169.863222 102.1616,170 102.542024,170 C102.907231,170 103.219174,169.878419 103.477863,169.635254 C103.751768,169.376891 103.896327,169.057741 103.911544,168.677795 C103.911544,168.29785 103.782202,167.9787 103.523513,167.720337 L89.9424442,153.449646 L103.067007,139.680481 C103.325695,139.40692 103.447429,139.080172 103.432212,138.700226 C103.432212,138.335478 103.295262,138.023927 103.021356,137.765564 C102.747451,137.507201 102.420291,137.378021 102.039867,137.378021 C101.67466,137.393219 101.362717,137.537596 101.104029,137.811157 L84.0078593,155.774902 L84.0078593,138.609039 C84.0078593,138.244291 83.8709087,137.925142 83.5970034,137.651581 C83.3383151,137.393218 83.0187637,137.264038 82.6383397,137.264038 C82.2731326,137.264038 81.9535813,137.393218 81.679676,137.651581 C81.4209876,137.925142 81.2916454,138.244291 81.2916454,138.609039 L81.2916454,168.404236 C81.2916454,168.784182 81.4209876,169.103331 81.679676,169.361694 C81.9535813,169.635255 82.2731326,169.772034 82.6383397,169.772034 C83.0187637,169.772034 83.3383151,169.635255 83.5970034,169.361694 L83.5970034,169.361694 Z M133.882212,170 C134.262636,170 134.582188,169.863222 134.840876,169.589661 C135.114781,169.331298 135.251732,169.012148 135.251732,168.632202 C135.251732,168.252256 135.114781,167.933107 134.840876,167.674744 C134.582188,167.401183 134.262636,167.264404 133.882212,167.264404 L117.128423,167.264404 L117.128423,154.999817 L129.659527,154.999817 C130.039951,154.999817 130.359502,154.863038 130.61819,154.589478 C130.892096,154.331114 131.029046,154.011965 131.029046,153.632019 C131.029046,153.252073 130.892096,152.932924 130.61819,152.674561 C130.359502,152.401 130.039951,152.264221 129.659527,152.264221 L117.128423,152.264221 L117.128423,139.999634 L133.882212,140.045227 C134.262636,140.045227 134.582188,139.916047 134.840876,139.657684 C135.114781,139.384123 135.251732,139.057375 135.251732,138.677429 C135.251732,138.312681 135.114781,137.993532 134.840876,137.719971 C134.582188,137.44641 134.262636,137.309631 133.882212,137.309631 L115.758903,137.264038 C115.393696,137.24884 115.074145,137.385619 114.800239,137.674377 C114.526334,137.932741 114.389383,138.25189 114.389383,138.631836 L114.389383,168.632202 C114.389383,169.012148 114.526334,169.331298 114.800239,169.589661 C115.058928,169.863222 115.378479,170 115.758903,170 L133.882212,170 Z M162.757265,150.417694 C161.463823,151.603125 159.888891,152.211029 158.032422,152.241425 L148.902292,152.241425 L148.902292,140.045227 L157.872645,140.045227 C159.759548,140.045227 161.372522,140.645532 162.711614,141.846161 C164.050707,143.031592 164.720243,144.467765 164.720243,146.154724 C164.720243,147.811288 164.065923,149.232263 162.757265,150.417694 L162.757265,150.417694 Z M147.532772,137.355225 C147.167565,137.355225 146.848014,137.484404 146.574108,137.742767 C146.31542,138.00113 146.186078,138.32028 146.186078,138.700226 L146.186078,168.427032 C146.186078,168.79178 146.31542,169.11093 146.574108,169.384491 C146.848014,169.642854 147.167565,169.772034 147.532772,169.772034 C147.913196,169.772034 148.232747,169.642854 148.491436,169.384491 C148.765341,169.11093 148.902292,168.79178 148.902292,168.427032 L148.902292,154.954224 L156.525951,154.954224 L163.578976,169.247711 C163.822448,169.74924 164.225691,170 164.788719,170 C165.001756,170 165.199574,169.954407 165.382177,169.86322 C165.71695,169.696044 165.945201,169.437685 166.066937,169.088135 C166.188673,168.738585 166.165848,168.396639 165.998461,168.062286 L159.493243,154.817444 C161.76057,154.467894 163.639837,153.48005 165.131099,151.853882 C166.652795,150.212516 167.413631,148.312816 167.413631,146.154724 C167.413631,143.723071 166.485411,141.648599 164.628941,139.931244 C162.757255,138.213889 160.505179,137.355225 157.872645,137.355225 L147.532772,137.355225 Z" id="Maker" fill="#546979"></path>
            </g>
        </g>
    </g>
</svg>