<?xml version="1.0" encoding="UTF-8"?>
<svg width="100px" height="40px" viewBox="0 0 100 40" version="1.1" xmlns="http://www.w3.org/2000/svg" xmlns:xlink="http://www.w3.org/1999/xlink">
    <!-- Generator: Sketch 49.3 (51167) - http://www.bohemiancoding.com/sketch -->
    <title>RCN</title>
    <desc>Created with Sketch.</desc>
    <defs>
        <polygon id="path-1" points="0 40 100 40 100 0 0 0"></polygon>
    </defs>
    <g id="Page-1" stroke="none" stroke-width="1" fill="none" fill-rule="evenodd">
        <g id="RCN" transform="translate(-30.000000, -10.000000)">
            <g id="Page-1" transform="translate(30.000000, 10.000000)">
                <path d="M22.0010067,2.42557439 C12.306874,2.42557439 4.42042919,10.3096139 4.42042919,19.9998322 C4.42042919,29.6913927 12.306874,37.5761033 22.0010067,37.5761033 C31.693126,37.5761033 39.5748729,29.6913927 39.5748729,19.9998322 C39.5748729,10.3096139 31.693126,2.42557439 22.0010067,2.42557439 M22.0010067,40 C10.9703193,40 2,31.0284952 2,19.9998322 C2,8.97251139 10.9703193,0 22.0010067,0 C33.028674,0 42,8.97251139 42,19.9998322 C42,31.0284952 33.028674,40 22.0010067,40" id="Fill-1" fill="#273B5A"></path>
                <path d="M24.6001851,5 L22.8784461,6.72884595 L28.3289296,12.195902 C26.1316337,12.2473981 22.5242289,12.5265611 18.5017681,13.6289842 C14.6932571,14.6724577 11.309266,16.2427499 8.43361714,18.294124 C4.82046644,20.8790926 2.0225561,24.229388 0.116272655,28.251843 C-0.168993874,28.8606489 0.0882191933,29.5920967 0.695593545,29.8810847 C0.865604284,29.9610391 1.04609282,30 1.21880751,30 C1.67712672,30 2.11550431,29.7408256 2.32337033,29.3003984 C5.45217632,22.6895869 11.0872043,18.2155247 19.0753431,16.0083071 C22.8243672,14.9712706 26.2492555,14.7029488 28.3252117,14.6490812 L23.9306199,19.0526751 L25.6570908,20.7825374 L33,13.4202895 L24.6001851,5 Z" id="Fill-3" fill="#273B5A"></path>
                <path d="M44.2991205,10.1187263 C43.6914313,9.82804221 42.9637589,10.0895902 42.6764754,10.7017885 C39.5467746,17.3109563 33.9102714,21.7820033 25.9231127,23.991948 C22.1715276,25.0289925 18.7494735,25.2986714 16.6776521,25.3518619 L21.0717385,20.9472182 L19.3436435,19.2173427 L12,26.5816793 L20.3964532,35 L22.1238723,33.2704633 L16.6698786,27.8033658 C18.8677667,27.753902 22.4753722,27.4727041 26.4986938,26.3726442 C30.3060458,25.328824 33.689908,23.7564871 36.5624055,21.705775 C40.1801503,19.122142 42.9762642,15.7721599 44.8824751,11.7483192 C45.1704346,11.1374759 44.9115414,10.4080553 44.2991205,10.1187263" id="Fill-6" fill="#273B5A"></path>
                <path d="M56.4084398,32.3533747 C56.0305846,32.783662 55.5948122,33 55.1039102,33 C54.8059621,33 54.5256678,32.9290248 54.2695316,32.7952638 C54.0146341,32.6580905 53.7919473,32.4728042 53.60271,32.2404286 C53.4159504,32.011124 53.2657375,31.7408722 53.158885,31.4351327 C53.0523422,31.1314407 53,30.8110285 53,30.4779909 C53,30.1435883 53.0523422,29.8276121 53.158885,29.5276735 C53.2657375,29.2246639 53.4159504,28.9622603 53.60271,28.7356855 C53.7919473,28.5084283 54.0161827,28.3292841 54.2775842,28.1989354 C54.5389857,28.0648331 54.8211382,28 55.1299264,28 C55.5554781,28 55.91506,28.0969085 56.2058846,28.2941377 C56.4957801,28.4910257 56.7153697,28.7534293 56.8612466,29.0758889 L56.3204801,29.5051525 C56.1975223,29.2393367 56.0305846,29.0356241 55.815331,28.9025456 C55.603794,28.7670784 55.3680991,28.6995155 55.1091754,28.6995155 C54.8985676,28.6995155 54.7080914,28.751382 54.5365079,28.8493141 C54.362137,28.9492937 54.2181185,29.0816898 54.0945412,29.2454787 C53.9728223,29.4099502 53.8792877,29.6010373 53.8151762,29.818399 C53.7495161,30.0361018 53.716686,30.2643827 53.716686,30.4984645 C53.716686,30.7506313 53.7547813,30.9853955 53.828494,31.201051 C53.9025165,31.4187538 54.0028649,31.6088173 54.1292296,31.769194 C54.2574526,31.9319593 54.4082849,32.0595782 54.5854433,32.155463 C54.7616725,32.2493005 54.9546264,32.296731 55.159969,32.296731 C55.3876113,32.296731 55.603794,32.2394049 55.8106852,32.1250938 C56.0200542,32.0073705 56.2207511,31.8251553 56.4084398,31.5753771 L56.4084398,31.0461339 L55.4684475,31.0461339 L55.4684475,30.4698014 L57,30.4698014 L57,32.9638299 L56.4084398,32.9638299 L56.4084398,32.3533747 Z" id="Fill-8" fill="#273B5A"></path>
                <path d="M58,28 L58.9339721,28 L58.9339721,31.9215556 C58.9339721,32.0534061 58.9760467,32.1566225 59.0585295,32.2302058 C59.1435118,32.3057868 59.2643199,32.342079 59.4138721,32.342079 C59.4796917,32.342079 59.548844,32.3324233 59.6325765,32.3154425 C59.7142262,32.2981288 59.7904603,32.2771526 59.8608623,32.2528468 L60,32.8371845 C59.8608623,32.8871279 59.7033951,32.9274156 59.5167673,32.9560498 C59.3338888,32.984684 59.1664237,33 59.0189544,33 C58.6948552,33 58.4474068,32.9290804 58.2691106,32.7895718 C58.0895647,32.6510621 58,32.4509556 58,32.1939136 L58,28 Z" id="Fill-10" fill="#273B5A"></path>
                <path d="M60.8430853,31.0081603 C60.8430853,31.195666 60.870105,31.3639496 60.9321771,31.5235289 C60.990963,31.6805694 61.0716568,31.8162118 61.1753537,31.9326322 C61.2823368,32.0479645 61.4028298,32.1397225 61.5445002,32.2057303 C61.6858056,32.2728262 61.835874,32.3065554 62.0034687,32.3065554 C62.1652214,32.3065554 62.3160201,32.2728262 62.4584208,32.2057303 C62.599361,32.1397225 62.7209493,32.0472391 62.8268371,31.9286427 C62.9294386,31.8100462 63.0112277,31.6733158 63.0718393,31.5140992 C63.1277042,31.3599601 63.1569147,31.1869616 63.1569147,30.999456 C63.1569147,30.8163025 63.1277042,30.6454801 63.0718393,30.4869888 C63.0112277,30.3266842 62.9294386,30.1870523 62.8268371,30.0695439 C62.7209493,29.9498595 62.599361,29.8602775 62.4584208,29.7917309 C62.3160201,29.7271738 62.1652214,29.6938072 62.0034687,29.6938072 C61.8409859,29.6938072 61.6912825,29.7282619 61.5507074,29.7957204 C61.4112277,29.8657177 61.2845276,29.9600145 61.1837517,30.0760722 C61.077864,30.1957566 60.9953446,30.3343005 60.9361935,30.4935171 C60.8733911,30.6527337 60.8430853,30.8246441 60.8430853,31.0081603 M62.0034687,33 C61.6945687,33 61.4178001,32.9448726 61.1731629,32.8386073 C60.9259699,32.7290779 60.7182109,32.5836431 60.5465997,32.401215 C60.3720675,32.2202376 60.2391602,32.007707 60.1416705,31.7639859 C60.050388,31.5202648 60,31.2642125 60,30.999456 C60,30.7339741 60.050388,30.4790099 60.1416705,30.2371022 C60.2391602,29.9926557 60.3720675,29.7790371 60.5495208,29.598785 C60.7244181,29.4145435 60.9361935,29.2709221 61.1797353,29.1624807 C61.4247376,29.0522259 61.7018713,29 62.0034687,29 C62.3043359,29 62.5759927,29.0522259 62.8213601,29.1624807 C63.0667275,29.2709221 63.278503,29.4145435 63.4534003,29.598785 C63.6297581,29.7790371 63.7648562,29.9926557 63.8594249,30.2371022 C63.9536285,30.4790099 64,30.7339741 64,30.999456 C64,31.2642125 63.9536285,31.5202648 63.8594249,31.7639859 C63.7648562,32.007707 63.6297581,32.2202376 63.4534003,32.401215 C63.278503,32.5836431 63.0667275,32.7290779 62.8213601,32.8386073 C62.5759927,32.9448726 62.3043359,33 62.0034687,33" id="Fill-12" fill="#273B5A"></path>
                <path d="M65.9103756,32.3651637 C66.0918557,32.3651637 66.2584604,32.3316289 66.4101897,32.2658875 C66.561547,32.2001461 66.6920788,32.1154791 66.7999256,32.0055781 C66.9100037,31.8980012 66.9933061,31.7731589 67.0509483,31.6310512 C67.1149126,31.4889435 67.1435478,31.3401952 67.1435478,31.1821502 C67.1435478,31.0237732 67.1149126,30.8730327 67.058386,30.7259446 C67.0007438,30.5805166 66.9185571,30.45169 66.8159167,30.3401288 C66.7103012,30.2302278 66.5905541,30.1409124 66.4462626,30.0741749 C66.3012272,30.0071054 66.1431759,29.9732386 65.9724805,29.9732386 C65.7151357,29.9732386 65.4841949,30.0476127 65.2859799,30.196361 C65.0859055,30.3437811 64.9364076,30.5250681 64.8296765,30.7359054 L64.8296765,31.6672422 C64.8597992,31.7714988 64.9111194,31.8664586 64.9888434,31.9494654 C65.0635924,32.0324723 65.1554481,32.1048542 65.2513946,32.1686035 C65.3529193,32.2306926 65.4618817,32.2801647 65.5782819,32.3136994 C65.6928226,32.3469022 65.8017851,32.3651637 65.9103756,32.3651637 M66.1294161,33 C65.831164,33 65.5537374,32.9352547 65.308293,32.806428 C65.0647081,32.6795936 64.8713276,32.5072714 64.7292674,32.2897935 L64.7292674,32.9316024 L64,32.9316024 L64,28 L64.8296765,28 L64.8296765,30.0665383 C64.9847527,29.8414237 65.1799926,29.663125 65.4139085,29.5329703 C65.6500558,29.4028156 65.928598,29.3380703 66.2447006,29.3380703 C66.5053923,29.3380703 66.7445147,29.3858822 66.9613239,29.4888107 C67.1822239,29.5910751 67.3659353,29.7262102 67.5187802,29.8952122 C67.6712533,30.062554 67.7910004,30.2587821 67.8739308,30.4822365 C67.9605801,30.7053589 68,30.9377781 68,31.1821502 C68,31.434491 67.9520268,31.6708945 67.8579398,31.8913606 C67.7608776,32.1124909 67.6262551,32.3050667 67.4652287,32.4697523 C67.2963927,32.6341059 67.1000372,32.7645926 66.8713276,32.8578923 C66.6377836,32.9525201 66.3953142,33 66.1294161,33" id="Fill-14" fill="#273B5A"></path>
                <path d="M69.2444949,32.401215 C69.4068332,32.401215 69.5582107,32.3656723 69.7036635,32.2949497 C69.8431915,32.2245897 69.9530957,32.1230393 70.0363385,31.9964639 C70.1195813,31.9068819 70.1622396,31.8129477 70.1622396,31.715024 L70.1622396,31.205821 C70.0490767,31.1517817 69.9308779,31.1100734 69.8031994,31.0806963 C69.6772983,31.0516819 69.5531747,31.0349986 69.4323097,31.0349986 C69.1950232,31.0349986 69.0009875,31.0973796 68.8522761,31.2246804 C68.7000099,31.3498051 68.6250617,31.5140992 68.6250617,31.7233657 C68.6250617,31.9137728 68.6837168,32.0762535 68.799842,32.2057303 C68.9168559,32.3366579 69.0655673,32.401215 69.2444949,32.401215 M69.0655673,33 C68.9135973,33 68.769922,32.9677215 68.6389849,32.9075165 C68.5113064,32.8462236 68.3981436,32.7606311 68.3036437,32.6521897 C68.2091439,32.545199 68.1336032,32.4160849 68.0799842,32.2681113 C68.0245877,32.1205005 68,31.9598332 68,31.7893735 C68,31.6069453 68.0305125,31.4430139 68.0950923,31.295403 C68.1599684,31.1474295 68.2509134,31.0183154 68.3682236,30.9102366 C68.4864224,30.8017953 68.6277279,30.7183788 68.7909549,30.6599873 C68.9544781,30.5997824 69.133702,30.5729441 69.3309963,30.5729441 C69.4782265,30.5729441 69.6263454,30.5870886 69.7709094,30.6182791 C69.9163622,30.6520083 70.0472993,30.6933539 70.1622396,30.7473932 L70.1622396,30.4829994 C70.1622396,30.1979327 70.0958823,29.9748844 69.9622791,29.8145797 C69.8286758,29.6564512 69.6390836,29.5741228 69.3905401,29.5741228 C69.2231658,29.5741228 69.0563839,29.6125669 68.8946381,29.6898178 C68.7314111,29.7656179 68.5622593,29.8769607 68.3904414,30.0187687 L68.1854449,29.5019494 C68.5918831,29.1686463 69.0122445,29 69.4494915,29 C69.8831836,29 70.2217834,29.1356424 70.4632171,29.4062018 C70.7067246,29.6749479 70.8272934,30.0648291 70.8272934,30.5729441 L70.8272934,31.9663614 C70.8272934,32.1397225 70.8826898,32.2282165 71,32.2336567 L71,32.9252879 C70.9345315,32.9405204 70.8785425,32.9492248 70.8344031,32.9553903 C70.78819,32.9608305 70.7422731,32.963732 70.6981337,32.963732 C70.5695665,32.963732 70.4709193,32.9223864 70.399526,32.8451356 C70.3299101,32.7667966 70.2878444,32.6656088 70.2709588,32.5419349 L70.2531846,32.2982138 C70.1095092,32.5245262 69.93858,32.6989754 69.7318061,32.8179345 C69.5232547,32.938707 69.3013726,33 69.0655673,33" id="Fill-16" fill="#273B5A"></path>
                <path d="M72,28 L72.9312213,28 L72.9312213,31.9215556 C72.9312213,32.0534061 72.9729054,32.1566225 73.0571071,32.2302058 C73.1442268,32.3057868 73.2626094,32.342079 73.4147561,32.342079 C73.4760317,32.342079 73.5523135,32.3324233 73.6302626,32.3154425 C73.7107128,32.2981288 73.7919967,32.2771526 73.8649437,32.2528468 L74,32.8371845 C73.8649437,32.8871279 73.7044602,32.9274156 73.5177157,32.9560498 C73.3309712,32.984684 73.1646519,33 73.0162568,33 C72.6952897,33 72.4426845,32.9290804 72.2671947,32.7895718 C72.0850354,32.6510621 72,32.4509556 72,32.1939136 L72,28 Z" id="Fill-18" fill="#273B5A"></path>
                <path d="M76,28 L76.9351408,28 L76.9351408,31.9215556 C76.9351408,32.0534061 76.9735141,32.1566225 77.0619395,32.2302058 C77.146194,32.3057868 77.2633994,32.342079 77.4177268,32.342079 C77.4773723,32.342079 77.5520334,32.3324233 77.6346194,32.3154425 C77.7138686,32.2981288 77.7952033,32.2771526 77.8669447,32.2528468 L78,32.8371845 C77.8669447,32.8871279 77.7076121,32.9274156 77.5220021,32.9560498 C77.3338895,32.984684 77.1649635,33 77.0214807,33 C76.6957247,33 76.4467153,32.9290804 76.2715328,32.7895718 C76.0905109,32.6510621 76,32.4509556 76,32.1939136 L76,28 Z" id="Fill-20" fill="#273B5A"></path>
                <path d="M81.1927041,30.7038716 C81.174829,30.5413909 81.1372549,30.3923293 81.0690378,30.2537855 C81.0000912,30.1166924 80.9161879,29.9988213 80.8103967,29.9019857 C80.7086183,29.8058754 80.5871409,29.7329767 80.4470588,29.6793 C80.3106247,29.6230846 80.1617875,29.598785 80.0122207,29.598785 C79.8557228,29.598785 79.7134519,29.6230846 79.5762882,29.6793 C79.4402189,29.7329767 79.323119,29.8058754 79.2169631,29.9019857 C79.1133607,29.9988213 79.0272686,30.1166924 78.9659827,30.2537855 C78.8995896,30.3923293 78.8598267,30.5413909 78.8445052,30.7038716 L81.1927041,30.7038716 Z M80.0122207,33 C79.7072503,33 79.4351117,32.9474114 79.1877793,32.8407834 C78.9382581,32.7345181 78.7288646,32.5898087 78.5508436,32.4095566 C78.3772002,32.2282165 78.2429549,32.0160486 78.1444596,31.7741409 C78.0459644,31.5336839 78,31.2776317 78,31.0081603 C78,30.7361501 78.0459644,30.4790099 78.1444596,30.2371022 C78.2429549,29.9926557 78.3772002,29.7790371 78.5508436,29.5937075 C78.7288646,29.409466 78.9382581,29.2633058 79.1877793,29.1581286 C79.4351117,29.0522259 79.7112631,29 80.0195166,29 C80.3212038,29 80.5933425,29.0522259 80.8362973,29.1624807 C81.0836297,29.2709221 81.2911993,29.4145435 81.4648427,29.5937075 C81.6399453,29.7728715 81.769813,29.982138 81.8628363,30.2215069 C81.9529412,30.4601505 82,30.7089491 82,30.9693535 C82,31.0295584 81.9989056,31.0828724 81.9937984,31.1358237 C81.9886913,31.1891377 81.9813953,31.230846 81.9781122,31.2642125 L78.8693114,31.2642125 C78.8820793,31.4390244 78.9236662,31.5931635 78.9896945,31.7306193 C79.0590059,31.8680751 79.1414501,31.9866715 79.2505244,32.0889473 C79.3574099,32.1890471 79.4788874,32.2659353 79.6131327,32.3199746 C79.7502964,32.37619 79.8936617,32.401215 80.0414045,32.401215 C80.1471956,32.401215 80.2573643,32.3888839 80.3649795,32.3595068 C80.4678523,32.3323057 80.5670771,32.2949497 80.6549932,32.2441744 C80.7461924,32.1912231 80.8249886,32.1284795 80.8950296,32.0548554 C80.9643411,31.9808686 81.0157775,31.9007163 81.0584587,31.8100462 L81.7552212,32.009883 C81.6220702,32.3000272 81.3999088,32.5379454 81.0920201,32.7218243 C80.7819425,32.9071539 80.4186047,33 80.0122207,33 Z" id="Fill-22" fill="#273B5A"></path>
                <path d="M85,33 L84.2949497,33 L84.2949497,30.7976531 C84.2949497,30.4262219 84.2446563,30.1567957 84.1459556,29.9901136 C84.0459975,29.8212141 83.8970034,29.7365795 83.7002305,29.7365795 C83.5955574,29.7365795 83.4937133,29.7598633 83.3934409,29.8045828 C83.2931685,29.8489328 83.1928961,29.9136099 83.1045683,29.9963966 C83.0178122,30.0795528 82.9373428,30.1756445 82.8653604,30.2905849 C82.7958927,30.4010903 82.7418273,30.526379 82.703793,30.6620161 L82.703793,33 L82,33 L82,29.0691121 L82.6406119,29.0691121 L82.6406119,29.8563245 C82.767917,29.5909637 82.9511735,29.3821491 83.1928961,29.2269241 C83.4402766,29.0765037 83.7074602,29 84.0016764,29 C84.201907,29 84.3681894,29.0413933 84.4936085,29.1271367 C84.6234283,29.2125104 84.7246438,29.3289291 84.7969405,29.4767625 C84.8726949,29.6238566 84.9261316,29.7957128 84.954736,29.9901136 C84.9827117,30.182297 85,30.3870461 85,30.6028827 L85,33 Z" id="Fill-24" fill="#273B5A"></path>
                <path d="M87.948592,32.3651637 C88.0622862,32.3651637 88.1784367,32.3459061 88.2942363,32.3107112 C88.4051233,32.2738562 88.5117993,32.2240521 88.6058426,32.1612989 C88.7030441,32.0992098 88.783753,32.0228435 88.8532327,31.9411648 C88.920958,31.8551697 88.9732433,31.7608739 89.0006141,31.6625938 L89.0006141,30.7359054 C88.9549961,30.6233482 88.8977981,30.5190916 88.8170892,30.4247958 C88.7395386,30.3305 88.6479516,30.2484893 88.5489955,30.1817518 C88.4496886,30.1143502 88.3437144,30.0618899 88.2296693,30.0273591 C88.1187823,29.990504 88.0061409,29.9732386 87.8920958,29.9732386 C87.7366436,29.9732386 87.5878586,30.0071054 87.4587244,30.0741749 C87.3299412,30.1409124 87.2151943,30.2302278 87.1204492,30.3437811 C87.0274585,30.4563384 86.9499079,30.585165 86.899728,30.7299289 C86.8400737,30.8753569 86.8141065,31.021781 86.8141065,31.1765057 C86.8141065,31.337539 86.8432319,31.4919317 86.9056935,31.6340394 C86.9632424,31.7784713 87.0436003,31.9056378 87.15168,32.0132147 C87.2541451,32.1221197 87.3752084,32.2067866 87.5110097,32.2708679 C87.643302,32.3336211 87.7906834,32.3651637 87.948592,32.3651637 M87.7569962,33 C87.5050443,33 87.2723923,32.951856 87.0558821,32.85424 C86.8432319,32.756956 86.6568997,32.6244771 86.4986402,32.4594595 C86.3424862,32.2934458 86.217212,32.0962215 86.129836,31.8740952 C86.0452671,31.6519689 86,31.4109171 86,31.1542599 C86,30.9072316 86.0410562,30.6748124 86.1249232,30.4563384 C86.2087902,30.2372003 86.3263444,30.0456206 86.4744276,29.8779467 C86.6256689,29.710937 86.800772,29.5791221 87.0025441,29.4828342 C87.205018,29.3858822 87.4295991,29.3380703 87.6696201,29.3380703 C87.9735064,29.3380703 88.234582,29.4067999 88.4644267,29.5419351 C88.692166,29.6813865 88.8704272,29.8557009 89.0006141,30.0665383 L89.0006141,28 L89.7834898,28 L89.7834898,32.053722 C89.7834898,32.138057 89.8003334,32.1981539 89.8319151,32.235341 C89.8610404,32.2728601 89.9182384,32.2934458 90,32.2984262 L90,32.9316024 C89.9182384,32.9455475 89.8529696,32.9531841 89.8024388,32.9591606 C89.7512062,32.964141 89.7105009,32.9667973 89.675761,32.9667973 C89.5213615,32.9667973 89.3922274,32.9286141 89.294675,32.8522478 C89.1908062,32.7742214 89.1367664,32.6752772 89.1272919,32.5527591 L89.1143083,32.2897935 C88.9774542,32.5109237 88.7858584,32.684574 88.5489955,32.8124045 C88.3121326,32.9372468 88.0461444,33 87.7569962,33" id="Fill-26" fill="#273B5A"></path>
                <mask id="mask-2" fill="white">
                    <use xlink:href="#path-1"></use>
                </mask>
                <g id="Clip-29"></g>
                <path d="M91,33 L92,33 L92,29.4195785 L91,29.4195785 L91,33 Z M91,28.8291254 L92,28.8291254 L92,28 L91,28 L91,28.8291254 Z" id="Fill-28" fill="#273B5A" mask="url(#mask-2)"></path>
                <path d="M95,33 L94.2933236,33 L94.2933236,30.7976531 C94.2933236,30.4262219 94.244663,30.1567957 94.1460862,29.9901136 C94.0424864,29.8212141 93.8983884,29.7365795 93.7018627,29.7365795 C93.5992047,29.7365795 93.4962327,29.7598633 93.3926329,29.8045828 C93.2918585,29.8489328 93.1979908,29.9136099 93.1069485,29.9963966 C93.0181038,30.0795528 92.9383633,30.1756445 92.8670992,30.2905849 C92.7983466,30.4010903 92.7427794,30.526379 92.7032231,30.6620161 L92.7032231,33 L92,33 L92,29.0691121 L92.6407493,29.0691121 L92.6407493,29.8563245 C92.7663248,29.5909637 92.9537463,29.3821491 93.1979908,29.2269241 C93.4394098,29.0765037 93.70563,29 94.0010465,29 C94.1994558,29 94.3645877,29.0413933 94.4936166,29.1271367 C94.6213897,29.2125104 94.7215362,29.3289291 94.7956258,29.4767625 C94.8681457,29.6238566 94.9233989,29.7957128 94.9541649,29.9901136 C94.9836752,30.182297 95,30.3870461 95,30.6028827 L95,33 Z" id="Fill-30" fill="#273B5A" mask="url(#mask-2)"></path>
                <path d="M98.0793754,31.9679667 C98.2042941,31.9679667 98.3303281,31.9481086 98.4403755,31.9119734 C98.5563714,31.8735595 98.6667906,31.8231005 98.7638256,31.7576665 C98.8616042,31.6941858 98.9486012,31.622241 99.0177526,31.5402044 C99.0906218,31.4575168 99.139697,31.3696204 99.1694395,31.2791197 L99.1694395,30.3705319 C99.119249,30.2601732 99.0508412,30.1592552 98.9716516,30.0684289 C98.8928339,29.9779283 98.7991449,29.8994726 98.6961614,29.8327365 C98.5920625,29.7676281 98.4831304,29.7142392 98.3675063,29.6768019 C98.2526257,29.6416433 98.1370016,29.6227619 98.0198903,29.6227619 C97.8403197,29.6227619 97.6748768,29.6559672 97.5313691,29.7233544 C97.3878613,29.7926948 97.2681476,29.8844977 97.1655358,29.9964841 C97.0621805,30.1104239 96.9870806,30.2341298 96.9287108,30.3776939 C96.8744307,30.5180025 96.8454317,30.6638453 96.8454317,30.8155479 C96.8454317,30.9740869 96.877405,31.1218829 96.9406079,31.2621915 C97.0041825,31.3995703 97.0911795,31.5222996 97.1997398,31.6248454 C97.3127614,31.7296699 97.4443722,31.8126831 97.594572,31.8755127 C97.741054,31.9370402 97.9031509,31.9679667 98.0793754,31.9679667 M97.8050005,32.5578488 C97.5391765,32.5578488 97.2971466,32.5090175 97.0759364,32.415587 C96.8506367,32.3202031 96.6599126,32.1912885 96.5037643,32.0268898 C96.3435264,31.8631421 96.2219537,31.6756299 96.1323543,31.4640276 C96.0434985,31.2511231 96,31.0284524 96,30.7947132 C96,30.5473013 96.0434985,30.3145387 96.1353286,30.0964255 C96.2264151,29.8776613 96.3498466,29.6872192 96.5123153,29.5254248 C96.6747839,29.3655837 96.8677386,29.2363435 97.091923,29.1419363 C97.3161074,29.0468781 97.5659448,29 97.8403197,29 C98.1563342,29 98.4340552,29.0673872 98.6719955,29.1998828 C98.9140255,29.3300996 99.1125569,29.5029624 99.2653592,29.7142392 L99.2653592,29.0608764 L100,29.0608764 L100,32.424051 C100,32.675695 99.9464634,32.8977147 99.8427363,33.0943421 C99.7364067,33.287063 99.5895529,33.4514617 99.3999442,33.5872127 C99.2110791,33.7226382 98.9865229,33.8232307 98.7318524,33.8945244 C98.4734641,33.9645159 98.1949995,34 97.896087,34 C97.4614741,34 97.0952691,33.9355427 96.8056511,33.8056514 C96.5167767,33.6738069 96.2699136,33.49248 96.073241,33.2587408 L96.5431732,32.8755778 C96.6956037,33.0604857 96.8900455,33.2007943 97.1302166,33.2981314 C97.369644,33.3944918 97.6258017,33.4456019 97.896087,33.4456019 C98.0700809,33.4456019 98.2329213,33.4234651 98.3879543,33.3850511 C98.5415001,33.3456605 98.6719955,33.2821798 98.7891068,33.2007943 C98.9099359,33.1155023 99.0010224,33.0100267 99.0668278,32.8811121 C99.1341203,32.7541507 99.1694395,32.6008204 99.1694395,32.424051 L99.1694395,31.8940686 C99.0274189,32.1072987 98.832977,32.269093 98.5853704,32.3836838 C98.3418533,32.4999023 98.0793754,32.5578488 97.8050005,32.5578488" id="Fill-31" fill="#273B5A" mask="url(#mask-2)"></path>
                <path d="M56.8806371,14.6183194 L60.4249409,14.6183194 C60.8818078,14.6183194 61.2778957,14.4090946 61.6073998,13.9961767 C61.9430502,13.5839095 62.1055828,13.0541772 62.1055828,12.4095827 C62.1055828,11.7483934 61.9133436,11.2219149 61.5360357,10.8314488 C61.1583864,10.4390303 60.7476159,10.2457496 60.3074803,10.2457496 L56.8806371,10.2457496 L56.8806371,14.6183194 Z M53,23 L53,7 L60.5690349,7 C61.3564303,7 62.0861199,7.15683722 62.7563962,7.47278939 C63.4253067,7.78874156 64.0037316,8.20231026 64.4967928,8.71382087 C64.9802932,9.22272838 65.3644301,9.80191979 65.6420331,10.4478158 C65.9155386,11.0930611 66.0548523,11.7483934 66.0548523,12.4095827 C66.0548523,12.9048239 65.9920246,13.3811925 65.8673935,13.8399902 C65.7390064,14.2981372 65.5576937,14.7296022 65.3186752,15.1350362 C65.0840955,15.5404702 64.7986391,15.9058814 64.4585498,16.2280159 C64.1174362,16.5504759 63.7401283,16.8251037 63.3095534,17.0505979 L67,23 L62.6273262,23 L59.4104778,17.8396648 L56.8806371,17.8396648 L56.8806371,23 L53,23 Z" id="Fill-32" fill="#273B5A" mask="url(#mask-2)"></path>
                <path d="M68,15.3336275 C68,14.3302784 68.1864622,13.3245428 68.5557043,12.3232392 C68.925616,11.3236403 69.4675951,10.4310926 70.1799679,9.64491417 C70.8893278,8.85600834 71.7536824,8.21983796 72.7793921,7.73197096 C73.7953937,7.24376304 74.9566818,7 76.2508704,7 C77.797804,7 79.1378548,7.33751805 80.2757097,8.01494064 C81.4118907,8.69338601 82.2578334,9.57536499 82.814542,10.6612185 L79.8940814,12.7384887 C79.7089582,12.2980106 79.4712775,11.9308319 79.18673,11.6400209 C78.8995046,11.3488689 78.5861676,11.1112426 78.2457151,10.9322557 C77.907271,10.7502005 77.5584494,10.6240574 77.203602,10.5534855 C76.8460766,10.4825726 76.4989288,10.447798 76.1598152,10.447798 C75.4343867,10.447798 74.8016872,10.5984879 74.2603776,10.8947537 C73.7183985,11.1954516 73.2684788,11.5803586 72.9139663,12.0532248 C72.5601232,12.5250682 72.2959963,13.0603241 72.1276111,13.6596743 C71.9562132,14.2586836 71.8701794,14.8645115 71.8701794,15.4774988 C71.8701794,16.1371932 71.9709427,16.7754091 72.1724692,17.3890783 C72.3716524,18.0010428 72.6638993,18.5472084 73.0425147,19.0193927 C73.4204606,19.4898725 73.8760712,19.8659153 74.4123594,20.1400209 C74.940948,20.416172 75.5418452,20.5542476 76.2070166,20.5542476 C76.5471344,20.5542476 76.8989689,20.5092451 77.2651982,20.4240133 C77.6257365,20.3380996 77.97188,20.2037743 78.3053026,20.0217191 C78.6380557,19.8423913 78.9426888,19.6064696 79.220541,19.313954 C79.5010712,19.0238248 79.7203401,18.6638056 79.8940814,18.2383283 L83,20.1045644 C82.7519416,20.7175517 82.3877209,21.2715586 81.8982994,21.7573801 C81.4118907,22.2445652 80.8484869,22.6550417 80.2181307,22.9847184 C79.5837574,23.3157589 78.912895,23.5680451 78.1975094,23.7405543 C77.4881494,23.9147682 76.7925147,24 76.1136181,24 C74.925549,24 73.8308784,23.7531686 72.8349625,23.2591649 C71.837038,22.7637975 70.9787092,22.1037622 70.256963,21.2855367 C69.5425817,20.4662883 68.9852035,19.5399888 68.5921934,18.4991377 C68.1961703,17.4596502 68,16.4061848 68,15.3336275" id="Fill-33" fill="#273B5A" mask="url(#mask-2)"></path>
                <polygon id="Fill-34" fill="#273B5A" mask="url(#mask-2)" points="88.6853375 13.8513788 88.6853375 23 85 23 85 7 87.8768279 7 95.3162847 16.3981941 95.3162847 7 99 7 99 23 96.0323283 23"></polygon>
            </g>
            <rect id="Rectangle-8-Copy-6" fill-opacity="0" fill="#FFFFFF" opacity="0" x="0" y="0" width="160" height="60"></rect>
        </g>
    </g>
</svg>