<?xml version="1.0" encoding="UTF-8"?>
<svg width="417px" height="97px" viewBox="0 0 417 97" version="1.1" xmlns="http://www.w3.org/2000/svg" xmlns:xlink="http://www.w3.org/1999/xlink">
    <!-- Generator: Sketch 49.3 (51167) - http://www.bohemiancoding.com/sketch -->
    <title>Group 10</title>
    <desc>Created with Sketch.</desc>
    <defs></defs>
    <g id="Social" stroke="none" stroke-width="1" fill="none" fill-rule="evenodd">
        <g id="Group-10">
            <g id="Group-2" transform="translate(105.882353, 23.529412)" fill="#FF3B81">
                <path d="M25.7258427,15.0117647 C24.8524301,13.8039155 23.7110557,12.8441212 22.3016854,12.1323529 C20.8923151,11.4205847 19.5325908,11.0647059 18.2224719,11.0647059 C17.5475622,11.0647059 16.8627376,11.1294111 16.1679775,11.2588235 C15.4732175,11.3882359 14.8479429,11.6362727 14.2921348,12.0029412 C13.7363268,12.3696097 13.2698521,12.8441147 12.8926966,13.4264706 C12.5155412,14.0088264 12.3269663,14.7529366 12.3269663,15.6588235 C12.3269663,16.435298 12.4758412,17.0823504 12.7735955,17.6 C13.0713498,18.1176496 13.5080496,18.5705863 14.0837079,18.9588235 C14.6593662,19.3470608 15.3441908,19.7029396 16.1382022,20.0264706 C16.9322137,20.3500016 17.8254632,20.684312 18.8179775,21.0294118 C20.2471982,21.5470614 21.7359473,22.1186243 23.2842697,22.7441176 C24.832592,23.369611 26.2419412,24.1999948 27.5123596,25.2352941 C28.7827779,26.2705934 29.8348273,27.5539139 30.6685393,29.0852941 C31.5022514,30.6166743 31.9191011,32.5254788 31.9191011,34.8117647 C31.9191011,37.4431504 31.4724764,39.7186179 30.5792135,41.6382353 C29.6859506,43.5578527 28.4850263,45.143131 26.9764045,46.3941176 C25.4677827,47.6451043 23.7408337,48.572546 21.7955056,49.1764706 C19.8501775,49.7803952 17.8453287,50.0823529 15.7808989,50.0823529 C12.7636553,50.0823529 9.84570698,49.51079 7.02696629,48.3676471 C4.20822561,47.2245041 1.86592693,45.596089 0,43.4823529 L6.66966292,36.1058824 C7.70187782,37.4862814 9.06160205,38.6401914 10.7488764,39.5676471 C12.4361508,40.4951027 14.1134748,40.9588235 15.7808989,40.9588235 C16.5352098,40.9588235 17.2696593,40.8725499 17.9842697,40.7 C18.69888,40.5274501 19.3241546,40.2470608 19.8601124,39.8588235 C20.3960701,39.4705863 20.8228449,38.9529444 21.1404494,38.3058824 C21.458054,37.6588203 21.6168539,36.8823575 21.6168539,35.9764706 C21.6168539,35.1137212 21.418354,34.3803952 21.0213483,33.7764706 C20.6243426,33.172546 20.0586179,32.6225515 19.3241573,32.1264706 C18.5896967,31.6303897 17.6765972,31.177453 16.5848315,30.7676471 C15.4930657,30.3578411 14.2524414,29.9156886 12.8629213,29.4411765 C11.5131019,28.9666643 10.1930776,28.4058856 8.90280899,27.7588235 C7.61254037,27.1117615 6.46124102,26.2813776 5.4488764,25.2676471 C4.43651179,24.2539165 3.62266225,23.024517 3.00730337,21.5794118 C2.39194449,20.1343065 2.08426966,18.3764809 2.08426966,16.3058824 C2.08426966,13.7607716 2.56066939,11.582362 3.51348315,9.77058824 C4.4662969,7.95881447 5.71684619,6.47059406 7.26516854,5.30588235 C8.81349089,4.14117065 10.5602899,3.28921838 12.505618,2.75 C14.4509461,2.21078162 16.4160949,1.94117647 18.4011236,1.94117647 C20.783158,1.94117647 23.2147816,2.41568153 25.6960674,3.36470588 C28.1773532,4.31373024 30.350927,5.715677 32.2168539,7.57058824 L25.7258427,15.0117647 Z M67.6003966,32.6764706 C67.6003966,34.9196191 67.2827967,37.0764602 66.6475876,39.1470588 C66.0123784,41.2176574 65.0893539,43.0401882 63.8784865,44.6147059 C62.667619,46.1892236 61.1887948,47.4509756 59.4419696,48.4 C57.6951444,49.3490244 55.7101455,49.8235294 53.4869134,49.8235294 C51.6606871,49.8235294 49.933738,49.4245138 48.3060145,48.6264706 C46.678291,47.8284274 45.4078918,46.7392226 44.4947786,45.3588235 L44.3756775,45.3588235 L44.3756775,64.4470588 L34.6093853,64.4470588 L34.6093853,16.6941176 L43.899273,16.6941176 L43.899273,20.6411765 L44.0779247,20.6411765 C44.9910378,19.3470524 46.2515121,18.2147107 47.8593853,17.2441176 C49.4672585,16.2735246 51.3629325,15.7882353 53.546464,15.7882353 C55.6902949,15.7882353 57.6355938,16.2411719 59.382419,17.1470588 C61.1292442,18.0529457 62.6080684,19.2823452 63.8189359,20.8352941 C65.0298034,22.3882431 65.9627528,24.1892054 66.6178123,26.2382353 C67.2728717,28.2872651 67.6003966,30.4333221 67.6003966,32.6764706 Z M58.1318572,32.6764706 C58.1318572,31.6411713 57.9829823,30.6274559 57.685228,29.6352941 C57.3874737,28.6431323 56.950774,27.7696116 56.3751157,27.0147059 C55.7994574,26.2598001 55.0749328,25.6451004 54.2015202,25.1705882 C53.3281076,24.6960761 52.3157581,24.4588235 51.1644415,24.4588235 C50.0528255,24.4588235 49.060326,24.6960761 48.1869134,25.1705882 C47.3135008,25.6451004 46.5691262,26.2705844 45.9537673,27.0470588 C45.3384085,27.8235333 44.8620087,28.7078382 44.5245539,29.7 C44.187099,30.6921618 44.0183741,31.7058772 44.0183741,32.7411765 C44.0183741,33.7764758 44.187099,34.7901911 44.5245539,35.7823529 C44.8620087,36.7745148 45.3384085,37.6588196 45.9537673,38.4352941 C46.5691262,39.2117686 47.3135008,39.8372525 48.1869134,40.3117647 C49.060326,40.7862769 50.0528255,41.0235294 51.1644415,41.0235294 C52.3157581,41.0235294 53.3281076,40.7862769 54.2015202,40.3117647 C55.0749328,39.8372525 55.7994574,39.2117686 56.3751157,38.4352941 C56.950774,37.6588196 57.3874737,36.7637306 57.685228,35.75 C57.9829823,34.7362694 58.1318572,33.7117699 58.1318572,32.6764706 Z M87.7389954,34.8764706 L86.4884336,34.8764706 C85.4165181,34.8764706 84.3346937,34.9303916 83.242928,35.0382353 C82.1511622,35.146079 81.1785127,35.3509789 80.3249504,35.6529412 C79.4713881,35.9549035 78.7667135,36.3970559 78.2109055,36.9794118 C77.6550975,37.5617676 77.3771976,38.3274462 77.3771976,39.2764706 C77.3771976,39.8803952 77.5062225,40.3980371 77.7642763,40.8294118 C78.02233,41.2607865 78.3498548,41.6058811 78.7468605,41.8647059 C79.1438663,42.1235307 79.600416,42.3068622 80.1165235,42.4147059 C80.6326309,42.5225496 81.1288806,42.5764706 81.6052875,42.5764706 C83.5903162,42.5764706 85.1088403,41.9833393 86.1609055,40.7970588 C87.2129707,39.6107784 87.7389954,38.0039317 87.7389954,35.9764706 L87.7389954,34.8764706 Z M69.8142763,21.0941176 C71.5611015,19.2823439 73.5957253,17.9235339 75.9182089,17.0176471 C78.2406924,16.1117602 80.612766,15.6588235 83.034501,15.6588235 C85.5356371,15.6588235 87.6496609,15.9931339 89.3766358,16.6617647 C91.1036107,17.3303955 92.503035,18.3656793 93.5749504,19.7676471 C94.6468659,21.1696149 95.4309405,22.9382246 95.9271976,25.0735294 C96.4234548,27.2088342 96.6715796,29.7431226 96.6715796,32.6764706 L96.6715796,48.9176471 L87.7389954,48.9176471 L87.7389954,45.4882353 L87.5603437,45.4882353 C86.8060328,46.8254969 85.6646584,47.8607806 84.1361864,48.5941176 C82.6077143,49.3274546 80.9502403,49.6941176 79.1637145,49.6941176 C77.9726973,49.6941176 76.741998,49.5215704 75.4715796,49.1764706 C74.2011613,48.8313708 73.039937,48.2705921 71.9878718,47.4941176 C70.9358066,46.7176432 70.0723321,45.6823594 69.3974223,44.3882353 C68.7225126,43.0941112 68.3850628,41.4980487 68.3850628,39.6 C68.3850628,37.2705766 68.9706375,35.3941248 70.1418044,33.9705882 C71.3129713,32.5470517 72.8215704,31.4470627 74.6676471,30.6705882 C76.5137237,29.8941138 78.5681975,29.3764719 80.8311302,29.1176471 C83.0940629,28.8588222 85.2974116,28.7294118 87.4412426,28.7294118 L87.4412426,28.2117647 C87.4412426,26.6156783 86.9251429,25.4401999 85.892928,24.6852941 C84.8607131,23.9303884 83.5903138,23.5529412 82.081692,23.5529412 C80.6921719,23.5529412 79.3522977,23.8764674 78.0620291,24.5235294 C76.7717605,25.1705915 75.6700861,25.9470543 74.7569729,26.8529412 L69.8142763,21.0941176 Z M119.906808,48.9176471 L119.906808,31.3176471 C119.906808,30.4117602 119.837333,29.5490237 119.698381,28.7294118 C119.559429,27.9097998 119.331154,27.187258 119.013549,26.5617647 C118.695945,25.9362714 118.24932,25.4401979 117.673662,25.0735294 C117.098003,24.7068609 116.373479,24.5235294 115.500066,24.5235294 C114.626653,24.5235294 113.862429,24.7068609 113.207369,25.0735294 C112.55231,25.4401979 112.006435,25.9470556 111.569729,26.5941176 C111.133023,27.2411797 110.805498,27.9852899 110.587145,28.8264706 C110.368792,29.6676513 110.259617,30.5411719 110.259617,31.4470588 L110.259617,48.9176471 L100.433774,48.9176471 L100.433774,16.6941176 L109.902313,16.6941176 L109.902313,21.1588235 L110.021414,21.1588235 C110.37872,20.468624 110.845194,19.789219 111.420853,19.1205882 C111.996511,18.4519574 112.671411,17.8803945 113.445572,17.4058824 C114.219733,16.9313702 115.063357,16.5431388 115.976471,16.2411765 C116.889584,15.9392142 117.862233,15.7882353 118.894448,15.7882353 C120.879477,15.7882353 122.566726,16.1764667 123.956246,16.9529412 C125.345766,17.7294156 126.46729,18.7323468 127.320853,19.9617647 C128.174415,21.1911826 128.789765,22.6039136 129.16692,24.2 C129.544075,25.7960864 129.73265,27.3921489 129.73265,28.9882353 L129.73265,48.9176471 L119.906808,48.9176471 Z M165.473496,48.9176471 L153.384732,48.9176471 L143.677991,33.4529412 L143.499339,33.4529412 L143.499339,48.9176471 L133.673496,48.9176471 L133.673496,0 L143.499339,0 L143.499339,29.7647059 L143.677991,29.7647059 L153.14653,16.6941176 L164.997092,16.6941176 L153.563384,31.2529412 L165.473496,48.9176471 Z M203.179511,42.5764706 C201.313584,44.905894 199.010985,46.7499932 196.271646,48.1088235 C193.532306,49.4676539 190.376158,50.1470588 186.803106,50.1470588 C183.547659,50.1470588 180.540386,49.5647117 177.781196,48.4 C175.022006,47.2352883 172.630083,45.5853048 170.605354,43.45 C168.580624,41.3146952 166.992625,38.7588384 165.841309,35.7823529 C164.689992,32.8058675 164.114342,29.5274689 164.114342,25.9470588 C164.114342,22.2803738 164.699917,18.9588384 165.871084,15.9823529 C167.042251,13.0058675 168.660025,10.4715791 170.724455,8.37941176 C172.788885,6.28724444 175.210583,4.68039776 177.989623,3.55882353 C180.768663,2.43724929 183.766012,1.87647059 186.981758,1.87647059 C189.959301,1.87647059 192.887174,2.4480335 195.765466,3.59117647 C198.643758,4.73431944 200.976131,6.40587135 202.762657,8.60588235 L195.854792,16.1117647 C194.901978,14.6882282 193.651429,13.631376 192.103106,12.9411765 C190.554784,12.2509769 188.966785,11.9058824 187.339061,11.9058824 C185.552536,11.9058824 183.914912,12.2617611 182.42614,12.9735294 C180.937369,13.6852977 179.657044,14.6666604 178.585129,15.9176471 C177.513213,17.1686337 176.679514,18.6460699 176.084005,20.35 C175.488497,22.0539301 175.190747,23.9195977 175.190747,25.9470588 C175.190747,28.0176574 175.488497,29.9156776 176.084005,31.6411765 C176.679514,33.3666753 177.503288,34.8441115 178.555354,36.0735294 C179.607419,37.3029473 180.867893,38.2627416 182.336814,38.9529412 C183.805735,39.6431407 185.413585,39.9882353 187.16041,39.9882353 C189.185139,39.9882353 190.951788,39.5568671 192.46041,38.6941176 C193.969032,37.8313682 195.179881,36.7098108 196.092994,35.3294118 L203.179511,42.5764706 Z M223.020357,48.9176471 L223.020357,31.4470588 C223.020357,30.5411719 222.960807,29.6784355 222.841705,28.8588235 C222.722604,28.0392116 222.494329,27.3166698 222.156874,26.6911765 C221.819419,26.0656831 221.372794,25.5696097 220.816986,25.2029412 C220.261178,24.8362727 219.546579,24.6529412 218.673166,24.6529412 C216.966041,24.6529412 215.655942,25.3107777 214.742829,26.6264706 C213.829716,27.9421634 213.373166,29.5705785 213.373166,31.5117647 L213.373166,48.9176471 L203.606874,48.9176471 L203.606874,0 L213.373166,0 L213.373166,20.7705882 L213.492267,20.7705882 C214.167177,19.4764641 215.239076,18.3225541 216.707997,17.3088235 C218.176919,16.295093 219.943568,15.7882353 222.007997,15.7882353 C224.032727,15.7882353 225.729901,16.1764667 227.09957,16.9529412 C228.46924,17.7294156 229.58084,18.7323468 230.434402,19.9617647 C231.287964,21.1911826 231.903314,22.6039136 232.280469,24.2 C232.657625,25.7960864 232.8462,27.3921489 232.8462,28.9882353 L232.8462,48.9176471 L223.020357,48.9176471 Z M254.23536,34.8764706 L252.984798,34.8764706 C251.912883,34.8764706 250.831059,34.9303916 249.739293,35.0382353 C248.647527,35.146079 247.674878,35.3509789 246.821315,35.6529412 C245.967753,35.9549035 245.263078,36.3970559 244.70727,36.9794118 C244.151462,37.5617676 243.873562,38.3274462 243.873562,39.2764706 C243.873562,39.8803952 244.002587,40.3980371 244.260641,40.8294118 C244.518695,41.2607865 244.84622,41.6058811 245.243225,41.8647059 C245.640231,42.1235307 246.096781,42.3068622 246.612888,42.4147059 C247.128996,42.5225496 247.625245,42.5764706 248.101652,42.5764706 C250.086681,42.5764706 251.605205,41.9833393 252.65727,40.7970588 C253.709336,39.6107784 254.23536,38.0039317 254.23536,35.9764706 L254.23536,34.8764706 Z M236.310641,21.0941176 C238.057466,19.2823439 240.09209,17.9235339 242.414574,17.0176471 C244.737057,16.1117602 247.109131,15.6588235 249.530866,15.6588235 C252.032002,15.6588235 254.146026,15.9931339 255.873001,16.6617647 C257.599976,17.3303955 258.9994,18.3656793 260.071315,19.7676471 C261.143231,21.1696149 261.927305,22.9382246 262.423562,25.0735294 C262.91982,27.2088342 263.167944,29.7431226 263.167944,32.6764706 L263.167944,48.9176471 L254.23536,48.9176471 L254.23536,45.4882353 L254.056709,45.4882353 C253.302398,46.8254969 252.161023,47.8607806 250.632551,48.5941176 C249.104079,49.3274546 247.446605,49.6941176 245.660079,49.6941176 C244.469062,49.6941176 243.238363,49.5215704 241.967944,49.1764706 C240.697526,48.8313708 239.536302,48.2705921 238.484237,47.4941176 C237.432171,46.7176432 236.568697,45.6823594 235.893787,44.3882353 C235.218877,43.0941112 234.881428,41.4980487 234.881428,39.6 C234.881428,37.2705766 235.467002,35.3941248 236.638169,33.9705882 C237.809336,32.5470517 239.317935,31.4470627 241.164012,30.6705882 C243.010089,29.8941138 245.064562,29.3764719 247.327495,29.1176471 C249.590428,28.8588222 251.793776,28.7294118 253.937607,28.7294118 L253.937607,28.2117647 C253.937607,26.6156783 253.421508,25.4401999 252.389293,24.6852941 C251.357078,23.9303884 250.086679,23.5529412 248.578057,23.5529412 C247.188537,23.5529412 245.848663,23.8764674 244.558394,24.5235294 C243.268125,25.1705915 242.166451,25.9470543 241.253338,26.8529412 L236.310641,21.0941176 Z M277.530139,6.40588235 C277.530139,7.22549429 277.381264,7.99117291 277.08351,8.70294118 C276.785755,9.41470944 276.388756,10.0294092 275.892498,10.5470588 C275.396241,11.0647085 274.800742,11.4745083 274.105981,11.7764706 C273.411221,12.0784329 272.686697,12.2294118 271.932386,12.2294118 C270.344363,12.2294118 269.014414,11.6578489 267.942498,10.5147059 C266.870583,9.37156291 266.334633,8.00196876 266.334633,6.40588235 C266.334633,5.62940788 266.473583,4.88529768 266.751487,4.17352941 C267.029391,3.46176115 267.426391,2.84706141 267.942498,2.32941176 C268.458606,1.81176212 269.054105,1.39117809 269.729015,1.06764706 C270.403925,0.744116029 271.138375,0.582352941 271.932386,0.582352941 C272.686697,0.582352941 273.411221,0.733331824 274.105981,1.03529412 C274.800742,1.33725641 275.396241,1.74705624 275.892498,2.26470588 C276.388756,2.78235553 276.785755,3.39705526 277.08351,4.10882353 C277.381264,4.82059179 277.530139,5.58627041 277.530139,6.40588235 Z M267.04924,48.9176471 L267.04924,16.6941176 L276.815532,16.6941176 L276.815532,48.9176471 L267.04924,48.9176471 Z M300.527165,48.9176471 L300.527165,31.3176471 C300.527165,30.4117602 300.45769,29.5490237 300.318738,28.7294118 C300.179786,27.9097998 299.951511,27.187258 299.633906,26.5617647 C299.316302,25.9362714 298.869677,25.4401979 298.294019,25.0735294 C297.71836,24.7068609 296.993836,24.5235294 296.120423,24.5235294 C295.24701,24.5235294 294.482786,24.7068609 293.827726,25.0735294 C293.172667,25.4401979 292.626792,25.9470556 292.190086,26.5941176 C291.75338,27.2411797 291.425855,27.9852899 291.207502,28.8264706 C290.989149,29.6676513 290.879974,30.5411719 290.879974,31.4470588 L290.879974,48.9176471 L281.054131,48.9176471 L281.054131,16.6941176 L290.52267,16.6941176 L290.52267,21.1588235 L290.641771,21.1588235 C290.999076,20.468624 291.465551,19.789219 292.04121,19.1205882 C292.616868,18.4519574 293.291767,17.8803945 294.065929,17.4058824 C294.84009,16.9313702 295.683714,16.5431388 296.596827,16.2411765 C297.509941,15.9392142 298.48259,15.7882353 299.514805,15.7882353 C301.499834,15.7882353 303.187083,16.1764667 304.576603,16.9529412 C305.966123,17.7294156 307.087647,18.7323468 307.94121,19.9617647 C308.794772,21.1911826 309.410121,22.6039136 309.787277,24.2 C310.164432,25.7960864 310.353007,27.3921489 310.353007,28.9882353 L310.353007,48.9176471 L300.527165,48.9176471 Z" id="SpankChain"></path>
            </g>
            <g id="Group-5">
                <circle id="Oval-2" fill="#FFFFFF" cx="47" cy="49" r="40"></circle>
                <path d="M14.778121,75.0246903 L14.778121,75.6431694 L8.46975397,75.6431694 L8.46975397,63.9689417 L8.27411118,64.6147442 L2.24138574,62.753518 L5.64940922,51.5048854 L5.22987636,52.1326267 L0,48.5729563 L6.53491885,38.7963087 L5.91168895,39.3057262 L1.94170533,34.3585879 L11.3459278,26.6737937 L10.1442139,27.1394476 L7.883514,21.1964212 L19.1159938,16.8454634 L17.8032412,16.9380848 L17.3631941,10.5878486 L29.1233771,9.75803067 L28.0616375,9.51066218 L29.4806558,3.30808762 L40.7146271,5.92519674 L40.0067242,5.51289276 L43.1609651,0 L52.9589376,5.70832383 L52.577565,5.29569567 L57.1912102,0.95426628 L64.8211871,9.21080053 L64.6587251,8.87430713 L70.3286027,6.08376451 L75.2233438,16.2107292 L75.1788274,15.9273542 L81.4095201,14.9315356 L83.2452489,26.627483 L83.3758151,25.794817 L89.6065078,26.7907281 L87.7434726,38.6617762 L88.204011,37.7084709 L93.8738886,40.4991524 L88.6241634,51.3606277 L89.3912686,50.5305087 L94.0049138,54.8719034 L85.8487711,63.6980243 L86.8361637,63.1226141 L89.9904045,68.6356689 L79.7378597,74.6088204 L80.7693098,74.368468 L82.188328,80.5710888 L70.8598167,83.2103345 L71.7327057,83.2719277 L71.2925897,89.6220481 L59.9528346,88.8217995 L60.5306302,89.0457116 L58.2699303,94.9887612 L47.4150369,90.783983 L48.1009111,91.3445738 L44.1309182,96.2917121 L35.1714148,88.9704568 L35.6138254,89.6320048 L30.3838343,93.1916752 L23.9794358,83.6102272 L24.1698926,84.2386631 L18.1339248,86.1008155 L14.778121,75.0246903 Z M14.778121,67.4605354 L18.7181914,66.2451116 L21.7802787,76.3519544 L25.1871158,74.0331786 L31.0095883,82.7439859 L33.6101275,79.5033961 L41.679532,86.0971107 L43.1228737,82.3028767 L52.8469582,86.0695558 L53.1319551,81.9592515 L63.5373243,82.6935073 L62.6011027,78.6010325 L72.8015587,76.2246 L70.6881761,72.5306286 L79.793161,67.2259718 L76.6747169,64.2914956 L83.867102,56.5085228 L80.0301995,54.6199733 L84.6557769,45.0498714 L80.4590716,44.3790612 L82.1084738,33.8702417 L78.0955709,34.5114131 L76.446857,24.0069932 L72.8325367,25.7857864 L68.2402318,16.2845484 L65.2943462,19.0566826 L58.1882403,11.3669563 L56.1549413,14.9207915 L47.1594117,9.68006664 L46.2298446,13.7432962 L36.1101606,11.3857353 L36.4038772,15.6255706 L26.0159473,16.3585761 L27.5519933,20.3963811 L17.7708406,24.1850578 L20.4024725,27.4645485 L12.1908449,34.1747345 L15.6566778,36.5335689 L9.73659035,45.3902548 L13.7257206,46.6209612 L10.6334356,56.8273718 L14.778121,56.8273718 L14.778121,67.4605354 Z" id="path1_fill" fill="#FF3B81" fill-rule="nonzero"></path>
                <path d="M64.8414732,27.3575463 L61.6393682,57.4420208 L55.2913473,58.0175072 L55.4879656,27.5090282 L64.8414732,27.3575463 Z M63.0718749,60.2898643 L62.6505546,70.8027556 L53.9150091,69.6513241 L54.3363347,59.5627651 L63.0718749,60.2898643 Z" id="path3_fill" fill="#FF3B81" fill-rule="nonzero" transform="translate(59.378241, 49.080151) rotate(6.000000) translate(-59.378241, -49.080151) "></path>
                <text id="S" font-family="AvenirNext-Bold, Avenir Next" font-size="53.4294689" font-weight="bold" fill="#FF3B81">
                    <tspan x="22.8310353" y="64.720975">S</tspan>
                </text>
            </g>
        </g>
    </g>
</svg>