<svg class="logo" width="89" height="32" viewBox="0 0 89 32" xmlns="http://www.w3.org/2000/svg">
	<title>Group 2</title>
	<g fill="#000" fill-rule="evenodd">
		<path d="M42.716 11.74v9.541h2.574V11.74h3.508V9.576h-9.59v2.164h3.508zm9.246 5.312c0 .338.033.669.099.991.065.323.177.612.336.87.158.256.369.461.631.614.262.153.59.23.984.23.393 0 .724-.077.991-.23a1.77 1.77 0 0 0 .64-.615c.158-.257.27-.546.336-.869a5.087 5.087 0 0 0 0-1.992 2.551 2.551 0 0 0-.336-.868 1.864 1.864 0 0 0-.64-.615c-.267-.159-.598-.238-.991-.238-.394 0-.722.08-.984.238a1.888 1.888 0 0 0-.631.615c-.159.251-.27.54-.336.869a5.087 5.087 0 0 0-.099 1zm-2.328 0c0-.678.104-1.293.312-1.845a3.969 3.969 0 0 1 .885-1.41 3.967 3.967 0 0 1 1.377-.901c.536-.213 1.137-.32 1.804-.32.666 0 1.27.107 1.811.32a3.95 3.95 0 0 1 1.385.901c.383.388.678.858.886 1.41.207.552.311 1.167.311 1.845 0 .677-.104 1.29-.311 1.836a3.983 3.983 0 0 1-.886 1.401 3.858 3.858 0 0 1-1.385.894 5.02 5.02 0 0 1-1.811.311c-.667 0-1.268-.103-1.804-.311a3.873 3.873 0 0 1-1.377-.894 3.983 3.983 0 0 1-.885-1.401c-.208-.547-.312-1.159-.312-1.836zm12.083 1.475h-2.213c.021.568.15 1.041.385 1.418.235.377.535.68.902.91.366.23.784.393 1.254.492a7.213 7.213 0 0 0 2.86.008 3.595 3.595 0 0 0 1.238-.484c.36-.23.653-.532.877-.91.224-.377.336-.844.336-1.401 0-.394-.076-.724-.23-.992a2.1 2.1 0 0 0-.606-.672 3.263 3.263 0 0 0-.86-.435 9.834 9.834 0 0 0-.992-.278c-.328-.077-.65-.148-.968-.213a7.48 7.48 0 0 1-.844-.222 1.77 1.77 0 0 1-.598-.32.638.638 0 0 1-.23-.508c0-.174.044-.314.131-.418a.86.86 0 0 1 .32-.237c.126-.055.265-.09.418-.107.153-.016.295-.025.426-.025.416 0 .776.08 1.082.238.306.159.476.462.509.91h2.213c-.044-.525-.178-.959-.402-1.303a2.653 2.653 0 0 0-.844-.828 3.534 3.534 0 0 0-1.156-.443 6.715 6.715 0 0 0-1.336-.13 7.28 7.28 0 0 0-1.344.122c-.438.082-.831.224-1.18.426-.35.202-.632.478-.845.828-.213.35-.32.798-.32 1.344 0 .372.077.686.23.943.153.257.355.47.606.64.252.169.539.305.861.41.322.103.653.193.992.27.83.175 1.478.35 1.943.524.464.175.696.438.696.787 0 .208-.049.38-.147.517a1.118 1.118 0 0 1-.37.328 1.757 1.757 0 0 1-.49.18 2.49 2.49 0 0 1-.517.057c-.23 0-.451-.027-.664-.082a1.722 1.722 0 0 1-.566-.254 1.277 1.277 0 0 1-.557-1.09zm7-8.951v11.705h2.328v-4.443c0-.863.142-1.483.426-1.86.284-.377.743-.566 1.377-.566.558 0 .946.172 1.164.517.219.344.328.866.328 1.565v4.787h2.328v-5.213c0-.525-.046-1.003-.14-1.434a2.728 2.728 0 0 0-.483-1.099c-.23-.3-.544-.535-.943-.705-.399-.17-.91-.254-1.532-.254-.438 0-.886.112-1.345.336-.459.224-.836.582-1.131 1.074h-.05v-4.41h-2.327zm12.115 1.918V9.576h-2.328v1.918h2.328zm-2.328 1.312v8.475h2.328v-8.475h-2.328zM16 32C7.163 32 0 24.837 0 16S7.163 0 16 0s16 7.163 16 16-7.163 16-16 16zm-4.02-21.21a1.19 1.19 0 0 0-1.19 1.19v8.04c0 .657.533 1.19 1.19 1.19h8.04a1.19 1.19 0 0 0 1.19-1.19v-8.04a1.19 1.19 0 0 0-1.19-1.19h-8.04z"></path>
	</g>
</svg>