<?xml version="1.0" encoding="UTF-8"?>
<svg width="396px" height="138px" viewBox="0 0 396 138" version="1.1" xmlns="http://www.w3.org/2000/svg" xmlns:xlink="http://www.w3.org/1999/xlink">
    <!-- Generator: Sketch 48.2 (47327) - http://www.bohemiancoding.com/sketch -->
    <title>Artboard</title>
    <desc>Created with Sketch.</desc>
    <defs></defs>
    <g id="Page-1" stroke="none" stroke-width="1" fill="none" fill-rule="evenodd">
        <g id="Artboard" fill="#000000">
            <path d="M64.1549961,30 L30,55.8976649 L30,81.3193885 L64.1549961,107.219991 L98.3099923,81.3193885 L98.3099923,55.8976649 L64.1549961,30 Z M77.3403994,62.7194888 L66.4574461,54.4698412 L66.4574461,37.9411671 L91.9215883,57.2491028 L81.4770549,65.1667667 L74.6323365,70.3639271 L74.6263716,70.3609892 L64.1549961,78.2992184 L55.0555468,71.4010089 L50.9695929,74.4975646 L61.8525462,82.75015 L61.8525462,99.2788241 L36.3884039,79.9708884 L47.2862694,71.7065514 L53.6836207,66.8560642 L64.1549961,58.914897 L73.2604103,65.8189824 L77.3403994,62.7194888 Z M43.6059284,62.7194888 L36.3884039,57.2491028 L61.8525462,37.9411671 L61.8525462,54.4698412 L47.2862694,65.5134399 L43.2032979,68.6099956 L43.0661053,68.7157603 L40.8919006,70.3609892 L40.8889182,70.3609892 L34.6078824,75.1233391 L34.6078824,62.0907763 L39.5199745,65.8160445 L43.6059284,62.7194888 Z M66.4574461,82.75015 L81.0237228,71.7065514 L86.908093,67.2409302 L93.6991274,62.0907763 L93.6991274,75.1233391 L88.7900178,71.4010089 L84.7040638,74.4975646 L91.9215883,79.9708884 L66.4574461,99.2788241 L66.4574461,82.75015 Z" id="Page-1"></path>
            <path d="M142.654557,56.270003 L142.654557,83 L137.575857,83 L137.362017,78.6697405 C135.544368,81.9129963 132.372441,83.5345999 127.846138,83.5345999 C124.959284,83.5345999 122.633798,82.741618 120.869609,81.1556302 C119.105421,79.5696425 118.22334,77.1372371 118.22334,73.858341 L118.22334,56.270003 L123.943559,56.270003 L123.943559,72.3614612 C123.943559,74.7137127 124.406874,76.3798658 125.333519,77.3599706 C126.260163,78.3400754 127.632289,78.8301205 129.449938,78.8301205 C131.623989,78.8301205 133.414881,78.1440574 134.822668,76.7719107 C136.230455,75.399764 136.934337,73.3772145 136.934337,70.7042014 L136.934337,56.270003 L142.654557,56.270003 Z M153.014805,82.1446401 C150.929855,81.2179956 149.352801,79.8102298 148.283596,77.9213006 L152.132716,74.606781 C152.809879,76.1393084 153.861248,77.2619571 155.286855,77.9747606 C156.712462,78.6875641 158.423165,79.0439604 160.419015,79.0439604 C162.236664,79.0439604 163.644429,78.7499334 164.642354,78.1618705 C165.640279,77.5738077 166.139234,76.7986455 166.139234,75.8363608 C166.139234,74.9809966 165.675919,74.2949336 164.749274,73.778151 C163.82263,73.2613685 162.218846,72.7713235 159.937875,72.3080012 C155.981815,71.5595576 153.201923,70.5616476 151.598116,69.3142415 C149.994308,68.0668355 149.192416,66.3026733 149.192416,64.0217021 C149.192416,62.560455 149.637911,61.1972388 150.528916,59.9320126 C151.41992,58.6667864 152.711857,57.6510567 154.404765,56.884793 C156.097674,56.1185292 158.102403,55.7354031 160.419015,55.7354031 C163.377149,55.7354031 165.747185,56.2254481 167.529194,57.2055529 C169.311203,58.1856577 170.683329,59.7092523 171.645613,61.7763824 L167.582654,64.7701421 C166.941131,63.2019744 166.04123,62.052596 164.882924,61.3219725 C163.724618,60.5913489 162.254483,60.2260426 160.472475,60.2260426 C158.868667,60.2260426 157.54109,60.5557092 156.489705,61.2150525 C155.43832,61.8743957 154.912635,62.631738 154.912635,63.4871022 C154.912635,64.4493869 155.38486,65.2156392 156.329325,65.7858819 C157.27379,66.3561247 158.993402,66.8728995 161.488215,67.3362218 C165.266073,68.0133851 167.939046,68.9756554 169.507214,70.2230614 C171.075381,71.4704675 171.859453,73.2168099 171.859453,75.4621409 C171.859453,77.8500325 170.825904,79.7923929 168.758774,81.2892802 C166.691644,82.7861675 163.840472,83.5345999 160.205175,83.5345999 C157.496521,83.5345999 155.099756,83.0712846 153.014805,82.1446401 Z M201.43857,71.7734013 L181.872212,71.7734013 C182.192974,74.1256528 183.030505,75.9165447 184.384832,77.1461307 C185.739158,78.3757167 187.485501,78.9905005 189.623911,78.9905005 C191.37028,78.9905005 192.822595,78.6786536 193.980901,78.0549506 C195.139206,77.4312475 195.932188,76.5313466 196.35987,75.3552209 L201.11781,77.3332406 C199.12196,81.4675008 195.290699,83.5345999 189.623911,83.5345999 C185.418371,83.5345999 182.130614,82.3050324 179.760542,79.8458604 C177.390471,77.3866883 176.205453,73.9831028 176.205453,69.6350015 C176.205453,65.2512601 177.345921,61.8387646 179.626892,59.3974127 C181.907863,56.9560607 185.115431,55.7354031 189.249691,55.7354031 C193.17011,55.7354031 196.2173,56.929331 198.39135,59.3172227 C200.565401,61.7051143 201.65241,64.8770423 201.65241,68.8331016 C201.65241,69.8666667 201.581131,70.8467567 201.43857,71.7734013 Z M184.251182,62.0971424 C182.985956,63.3089083 182.192974,65.0730704 181.872212,67.3896818 L196.30641,67.3896818 C196.021289,65.1443508 195.263947,63.3980085 194.034361,62.1506024 C192.804775,60.9031963 191.209901,60.2795026 189.249691,60.2795026 C187.182561,60.2795026 185.516408,60.8853764 184.251182,62.0971424 Z M224.549027,56.270003 L223.640207,61.5090824 C222.820483,61.0457602 221.697835,60.8141025 220.272228,60.8141025 C219.131742,60.8141025 218.053643,61.1170394 217.037898,61.7229224 C216.022153,62.3288054 215.184622,63.2376162 214.525278,64.4493821 C213.865935,65.661148 213.536268,67.1223732 213.536268,68.8331016 L213.536268,83 L207.816049,83 L207.816049,56.270003 L212.680908,56.270003 L213.162048,61.0814025 C214.658936,57.5173851 217.474467,55.7354031 221.608727,55.7354031 C222.856134,55.7354031 223.836224,55.9136013 224.549027,56.270003 Z M236.700186,56.270003 L245.360705,56.270003 L245.360705,60.7606425 L236.860566,60.7606425 L236.860566,83 L231.140346,83 L231.140346,60.7606425 L226.115107,60.7606425 L226.115107,56.270003 L231.140346,56.270003 L231.140346,52.4208835 C231.140346,49.7122302 231.960058,47.6094915 233.599506,46.1126042 C235.238954,44.6157169 237.537711,43.8672844 240.495845,43.8672844 C241.56505,43.8672844 242.545141,43.9831133 243.436145,44.2147744 C244.327149,44.4464355 245.022122,44.7582824 245.521085,45.1503243 L244.451885,49.3202038 C243.632161,48.7856012 242.616431,48.5183039 241.404665,48.5183039 C238.26833,48.5183039 236.700186,49.9617093 236.700186,52.8485634 L236.700186,56.270003 Z M272.587581,71.7734013 L253.021224,71.7734013 C253.341985,74.1256528 254.179517,75.9165447 255.533843,77.1461307 C256.88817,78.3757167 258.634512,78.9905005 260.772923,78.9905005 C262.519291,78.9905005 263.971607,78.6786536 265.129912,78.0549506 C266.288218,77.4312475 267.0812,76.5313466 267.508882,75.3552209 L272.266822,77.3332406 C270.270972,81.4675008 266.439711,83.5345999 260.772923,83.5345999 C256.567382,83.5345999 253.279626,82.3050324 250.909554,79.8458604 C248.539482,77.3866883 247.354464,73.9831028 247.354464,69.6350015 C247.354464,65.2512601 248.494933,61.8387646 250.775904,59.3974127 C253.056875,56.9560607 256.264443,55.7354031 260.398703,55.7354031 C264.319122,55.7354031 267.366311,56.929331 269.540362,59.3172227 C271.714412,61.7051143 272.801421,64.8770423 272.801421,68.8331016 C272.801421,69.8666667 272.730142,70.8467567 272.587581,71.7734013 Z M255.400193,62.0971424 C254.134967,63.3089083 253.341985,65.0730704 253.021224,67.3896818 L267.455422,67.3896818 C267.170301,65.1443508 266.412958,63.3980085 265.183372,62.1506024 C263.953786,60.9031963 262.358912,60.2795026 260.398703,60.2795026 C258.331573,60.2795026 256.66542,60.8853764 255.400193,62.0971424 Z M302.647838,71.7734013 L283.08148,71.7734013 C283.402242,74.1256528 284.239773,75.9165447 285.5941,77.1461307 C286.948427,78.3757167 288.694769,78.9905005 290.833179,78.9905005 C292.579548,78.9905005 294.031863,78.6786536 295.190169,78.0549506 C296.348474,77.4312475 297.141456,76.5313466 297.569139,75.3552209 L302.327078,77.3332406 C300.331228,81.4675008 296.499967,83.5345999 290.833179,83.5345999 C286.627639,83.5345999 283.339882,82.3050324 280.96981,79.8458604 C278.599739,77.3866883 277.414721,73.9831028 277.414721,69.6350015 C277.414721,65.2512601 278.555189,61.8387646 280.83616,59.3974127 C283.117132,56.9560607 286.324699,55.7354031 290.458959,55.7354031 C294.379379,55.7354031 297.426568,56.929331 299.600618,59.3172227 C301.774669,61.7051143 302.861678,64.8770423 302.861678,68.8331016 C302.861678,69.8666667 302.790399,70.8467567 302.647838,71.7734013 Z M285.46045,62.0971424 C284.195224,63.3089083 283.402242,65.0730704 283.08148,67.3896818 L297.515679,67.3896818 C297.230557,65.1443508 296.473215,63.3980085 295.243629,62.1506024 C294.014043,60.9031963 292.419169,60.2795026 290.458959,60.2795026 C288.391829,60.2795026 286.725676,60.8853764 285.46045,62.0971424 Z M333.777294,44.2415044 L333.777294,83 L328.752055,83 L328.431295,78.2420605 C327.647211,79.8458684 326.462193,81.1288954 324.876205,82.0911801 C323.290218,83.0534648 321.481506,83.5345999 319.450016,83.5345999 C315.779078,83.5345999 312.883357,82.3139423 310.762767,79.8725904 C308.642177,77.4312384 307.581897,74.0365628 307.581897,69.6884615 C307.581897,65.3403603 308.642177,61.9278648 310.762767,59.4508727 C312.883357,56.9738806 315.779078,55.7354031 319.450016,55.7354031 C321.410226,55.7354031 323.138748,56.1719887 324.635635,57.0451729 C326.132523,57.9183572 327.272991,59.1033752 328.057075,60.6002625 L328.057075,44.2415044 L333.777294,44.2415044 Z M326.079055,76.5313407 C327.397742,74.9275329 328.057075,72.7356951 328.057075,69.9557615 L328.057075,69.3142415 C328.057075,66.534308 327.397742,64.35138 326.079055,62.7653923 C324.760369,61.1794045 322.978387,60.3864226 320.733056,60.3864226 C318.416444,60.3864226 316.607733,61.1972244 315.306866,62.8188523 C314.006,64.4404802 313.355577,66.7125072 313.355577,69.6350015 C313.355577,72.5574958 314.006,74.8384327 315.306866,76.4778807 C316.607733,78.1173287 318.416444,78.9370405 320.733056,78.9370405 C322.978387,78.9370405 324.760369,78.1351486 326.079055,76.5313407 Z M344.137543,82.1446401 C342.052593,81.2179956 340.475539,79.8102298 339.406334,77.9213006 L343.255453,74.606781 C343.932616,76.1393084 344.983986,77.2619571 346.409593,77.9747606 C347.8352,78.6875641 349.545902,79.0439604 351.541752,79.0439604 C353.359401,79.0439604 354.767167,78.7499334 355.765092,78.1618705 C356.763017,77.5738077 357.261972,76.7986455 357.261972,75.8363608 C357.261972,74.9809966 356.798656,74.2949336 355.872012,73.778151 C354.945367,73.2613685 353.341583,72.7713235 351.060612,72.3080012 C347.104553,71.5595576 344.324661,70.5616476 342.720853,69.3142415 C341.117045,68.0668355 340.315153,66.3026733 340.315153,64.0217021 C340.315153,62.560455 340.760649,61.1972388 341.651653,59.9320126 C342.542658,58.6667864 343.834595,57.6510567 345.527503,56.884793 C347.220411,56.1185292 349.225141,55.7354031 351.541752,55.7354031 C354.499887,55.7354031 356.869923,56.2254481 358.651931,57.2055529 C360.43394,58.1856577 361.806066,59.7092523 362.768351,61.7763824 L358.705391,64.7701421 C358.063868,63.2019744 357.163967,62.052596 356.005662,61.3219725 C354.847356,60.5913489 353.377221,60.2260426 351.595212,60.2260426 C349.991404,60.2260426 348.663828,60.5557092 347.612443,61.2150525 C346.561058,61.8743957 346.035373,62.631738 346.035373,63.4871022 C346.035373,64.4493869 346.507598,65.2156392 347.452063,65.7858819 C348.396527,66.3561247 350.11614,66.8728995 352.610952,67.3362218 C356.388811,68.0133851 359.061784,68.9756554 360.629951,70.2230614 C362.198119,71.4704675 362.982191,73.2168099 362.982191,75.4621409 C362.982191,77.8500325 361.948641,79.7923929 359.881511,81.2892802 C357.814381,82.7861675 354.96321,83.5345999 351.327912,83.5345999 C348.619259,83.5345999 346.222493,83.0712846 344.137543,82.1446401 Z" id="userfeeds"></path>
        </g>
    </g>
</svg>