<svg xmlns="http://www.w3.org/2000/svg" viewBox="0 0 94.71 34.1"><defs><style>.cls-1{fill:#ff4338;}.cls-2{fill:#000;}</style></defs><title>Asset 1</title><g id="Layer_2" data-name="Layer 2"><g id="Layer_1-2" data-name="Layer 1"><path class="cls-1" d="M24.85,18.79a3.29,3.29,0,0,0-5.41-.11L9.65,32.11H3l8.4-11.42a1,1,0,1,0-1.6-1.18l-9.56,13a1,1,0,0,0,.8,1.58h9.08a1,1,0,0,0,.81-.41L21,19.85a1.31,1.31,0,0,1,2.15,0l8.16,12.22H22.46L19.84,27.7a1,1,0,1,0-1.71,1L21,33.61a1,1,0,0,0,.85.49H33.21a1,1,0,0,0,.88-.52,1,1,0,0,0-.05-1Z"/><path class="cls-1" d="M8,13.47l0,0a3.81,3.81,0,0,0,3.2,1.72h.05a4.06,4.06,0,0,0,3.22-1.53L23.11,2.07h8.21l-7.09,9.65a1,1,0,1,0,1.6,1.18L34.09,1.67a1,1,0,0,0,.09-1,1,1,0,0,0-.89-.54H22.34l-.05,0h0l-.05,0a.05.05,0,0,1,0,0l0,0-.05,0,0,0,0,0,0,0,0,0,0,0,0,0s0,0,0,0,0,0,0,0l-8.95,12a2.11,2.11,0,0,1-1.65.73,1.91,1.91,0,0,1-1.58-.85L2.83,2h8.92L14.37,6.4a1,1,0,0,0,1.71-1L13.17.49A1,1,0,0,0,12.31,0H1A1,1,0,0,0,.12.52a1,1,0,0,0,0,1Z"/><path class="cls-1" d="M94.71,21.34A1.35,1.35,0,1,1,93.36,20a1.29,1.29,0,0,1,1.35,1.35"/><path class="cls-2" d="M50.34,11.41h2a.33.33,0,0,1,.28.52l-3.27,4.95,3.52,5.24a.34.34,0,0,1-.28.53H50.46l-2.68-4.12-2.87,4.12H42.84a.33.33,0,0,1-.27-.53l3.6-5.24-3.34-4.95a.33.33,0,0,1,.28-.52h2.16l2.51,3.84Z"/><path class="cls-2" d="M83.2,14.35c0-.8.7-1.12,1.65-1.12a6,6,0,0,1,2,.38.33.33,0,0,0,.37-.11L88,12.32a.32.32,0,0,0-.14-.49A7.72,7.72,0,0,0,85,11.28c-2.16,0-4.15,1-4.15,3.27,0,4.07,5.91,2.77,5.91,5.08,0,.85-.8,1.21-1.84,1.21a6.27,6.27,0,0,1-3.22-1,.33.33,0,0,0-.44.08l-.93,1.29a7,7,0,0,0,4.48,1.52c2.27,0,4.33-1,4.33-3.35,0-4.09-6-3-6-5"/><path class="cls-2" d="M58.26,7.16a1.4,1.4,0,0,1,.39,1,1.34,1.34,0,0,1-.39,1,1.41,1.41,0,0,1-2,0,1.34,1.34,0,0,1-.39-1,1.4,1.4,0,0,1,.39-1,1.41,1.41,0,0,1,2,0"/><path class="cls-2" d="M57.29,22.65h-.84c-.28,0-.42-.06-.42-.43V11.83c0-.32.14-.42.42-.42h1.67c.28,0,.43.1.43.42V22.22c0,.37-.15.43-.43.43Z"/><path class="cls-2" d="M77.45,7.16a1.4,1.4,0,0,1,.39,1,1.34,1.34,0,0,1-.39,1,1.31,1.31,0,0,1-1,.4,1.29,1.29,0,0,1-1-.4,1.34,1.34,0,0,1-.39-1,1.4,1.4,0,0,1,.39-1,1.33,1.33,0,0,1,1-.4,1.35,1.35,0,0,1,1,.4"/><path class="cls-2" d="M76.48,22.65h-.84c-.28,0-.42-.06-.42-.43V11.83c0-.32.14-.42.42-.42h1.67c.28,0,.43.1.43.42V22.22c0,.37-.15.43-.43.43Z"/><path class="cls-2" d="M61.7,11.41h1.93a.3.3,0,0,1,.3.21L67,20l3-8.34a.32.32,0,0,1,.3-.21h1.82a.37.37,0,0,1,.35.5L68.31,22.65H65.49L61.36,11.91a.37.37,0,0,1,.34-.5"/></g></g></svg>