<svg id="Layer_1" data-name="Layer 1" xmlns="http://www.w3.org/2000/svg" xmlns:xlink="http://www.w3.org/1999/xlink" viewBox="0 0 1967.76 432.25"><defs><style>.cls-1{fill:#1b2125;}.cls-2{fill:#a6ddf0;}.cls-3{fill:#5cb3e4;}.cls-4{fill:#73cce4;}.cls-5{fill:url(#linear-gradient);}.cls-6{fill:url(#linear-gradient-2);}</style><linearGradient id="linear-gradient" x1="219.69" y1="402.67" x2="171.43" y2="340.13" gradientUnits="userSpaceOnUse"><stop offset="0" stop-color="#a6ddf0" stop-opacity="0"/><stop offset="0.32" stop-color="#88c3d6" stop-opacity="0.29"/><stop offset="0.62" stop-color="#70aec1" stop-opacity="0.51"/><stop offset="0.86" stop-color="#61a2b5" stop-opacity="0.65"/><stop offset="1" stop-color="#5c9db0" stop-opacity="0.7"/></linearGradient><linearGradient id="linear-gradient-2" x1="2025.08" y1="150.41" x2="2045.13" y2="82.17" gradientTransform="matrix(-1, 0, 0, 1, 2264.41, 0)" gradientUnits="userSpaceOnUse"><stop offset="0" stop-color="#73cce4" stop-opacity="0"/><stop offset="0.16" stop-color="#64bdd4" stop-opacity="0.17"/><stop offset="0.41" stop-color="#50a8bf" stop-opacity="0.4"/><stop offset="0.64" stop-color="#4299b0" stop-opacity="0.56"/><stop offset="0.84" stop-color="#3990a6" stop-opacity="0.66"/><stop offset="1" stop-color="#368da3" stop-opacity="0.7"/></linearGradient></defs><title>D_Zeppelin</title><path class="cls-1" d="M530.54,281.42,634.6,139.29H530.54V119.35H660v19.94L556.65,281.42H660v19.94H530.54Z"/><path class="cls-1" d="M710.38,211.08c0-51.85,25-97.17,79.77-97.17,60.91,0,81.58,41.69,81.58,99.71v1.81H733.59c.72,38.43,15.23,71.43,59.46,71.43,26.83,0,48.58-17,52.94-39.88h22.48c-7.61,38.43-34.81,59.82-78,59.82C732.86,306.8,710.38,257.86,710.38,211.08Zm138.14-14.14c0-37.71-18.85-63.09-58-63.09-37.34,0-56.2,29.73-56.2,63.09Z"/><path class="cls-1" d="M941.7,119.35h21.39v27.56h.72c12.33-22.48,31.54-33,56.92-33,51.12,0,77.23,47.86,77.23,95,0,46.41-26.1,97.89-77.23,97.89-26.83,0-42.42-11.6-56.92-33.72h-.72V371H941.7Zm133.79,90.28c0-33.72-16-75.78-54.75-75.78-40.61,0-59.1,40.25-59.1,76.5s18.49,76.5,59.1,76.5C1059.9,286.86,1075.49,243.35,1075.49,209.63Z"/><path class="cls-1" d="M1165.4,119.35h21.39v27.56h.72c12.33-22.48,31.54-33,56.92-33,51.12,0,77.23,47.86,77.23,95,0,46.41-26.1,97.89-77.23,97.89-26.83,0-42.42-11.6-56.92-33.72h-.72V371H1165.4Zm133.79,90.28c0-33.72-16-75.78-54.75-75.78-40.61,0-59.1,40.25-59.1,76.5s18.49,76.5,59.1,76.5C1283.6,286.86,1299.19,243.35,1299.19,209.63Z"/><path class="cls-1" d="M1381.49,211.08c0-51.85,25-97.17,79.77-97.17,60.91,0,81.58,41.69,81.58,99.71v1.81H1404.69c.72,38.43,15.23,71.43,59.46,71.43,26.83,0,48.58-17,52.94-39.88h22.48c-7.61,38.43-34.81,59.82-78,59.82C1404,306.8,1381.49,257.86,1381.49,211.08Zm138.14-14.14c0-37.71-18.85-63.09-58-63.09-37.34,0-56.2,29.73-56.2,63.09Z"/><path class="cls-1" d="M1616.06,39.59h21V301.37h-21Z"/><path class="cls-1" d="M1715.77,39.22h28.28V70.4h-28.28Zm5.44,80.13h21v182h-21Z"/><path class="cls-1" d="M1827.08,119.35h21.39v26.83l.72.72c11.6-22.84,33-33,55.84-33,42.78,0,62.73,33,62.73,73.6V301.37h-21.39V183.89c0-29.37-17.4-50-46.77-50-34.08,0-51.12,31.18-51.12,62.73V301.37h-21.39Z"/><g id="_Group_" data-name="&lt;Group&gt;"><g id="Group"><polygon id="Shape" class="cls-2" points="370.05 432.25 0 432.25 55.33 342.64 370.05 342.64 370.05 432.25"/><polygon id="Shape-2" data-name="Shape" class="cls-3" points="8.39 0 371.37 0 319.02 89.13 8.39 89.13 8.39 0"/><polygon id="Shape-3" data-name="Shape" class="cls-4" points="0 432.25 200.83 89.13 319.02 89.13 118.56 432.25 0 432.25"/></g><polygon id="_Path_" data-name="&lt;Path&gt;" class="cls-5" points="297.32 342.64 181.15 432.25 118.56 432.25 170.91 342.64 297.32 342.64"/><polygon id="_Path_2" data-name="&lt;Path&gt;" class="cls-6" points="149.47 177.07 291.59 136.22 319.02 89.13 200.83 89.13 149.47 177.07"/></g></svg>