<svg id="Layer_1" data-name="Layer 1" xmlns="http://www.w3.org/2000/svg" viewBox="0 0 316.66 390.56"><defs><style>.cls-1{fill:#fff;}</style></defs><title>w_big</title><path class="cls-1" d="M207.51,182.24s0-.05,0-.08,0,0,0-.07a2.15,2.15,0,0,0-.09-.45l0-.07a2.15,2.15,0,0,0-.19-.41l-49.3-81.83-.07-.09-.11-.15-.12-.13-.12-.12-.14-.11-.14-.1-.16-.09-.15-.07-.18-.07-.1,0h-.05l-.18,0-.17,0h-.35l-.16,0-.19,0h-.05l-.1,0-.18.07-.15.07-.16.09-.14.1-.14.11-.12.12-.12.13-.11.15-.06.09L104.9,181.16a2.15,2.15,0,0,0-.19.41l0,.07a2.15,2.15,0,0,0-.09.45s0,0,0,.07,0,.05,0,.08a2.14,2.14,0,0,0,0,.44s0,.07,0,.1v0a2.15,2.15,0,0,0,.18.45l.07.11a2.15,2.15,0,0,0,.24.33l.1.11a2.15,2.15,0,0,0,.41.33L155,213.27h0a2.12,2.12,0,0,0,.33.13l.18.08a2.13,2.13,0,0,0,1.11,0l.2-.08a2.13,2.13,0,0,0,.31-.13h0l49.3-29.14a2.13,2.13,0,0,0,.41-.33l.1-.11a2.14,2.14,0,0,0,.23-.32l.07-.11a2.15,2.15,0,0,0,.18-.45v0s0-.07,0-.11A2.14,2.14,0,0,0,207.51,182.24Zm-53.61,25.39-42.49-25.11,42.49-19.33Zm4.32-44.43,42.48,19.33-42.48,25.11Zm41.7,14.23-41.7-19V108.21Zm-46-19-41.72,19,41.72-69.22Z"/><path class="cls-1" d="M316,85.05,303.13,72.2V15.69A2.16,2.16,0,0,0,301,13.54h-56.7L231.32.63A2.16,2.16,0,0,0,229.8,0H86.86a2.16,2.16,0,0,0-1.52.63L72.39,13.54H15.69a2.16,2.16,0,0,0-2.16,2.16V72.2L.63,85.05A2.16,2.16,0,0,0,0,86.58V304H0v1.92a2.16,2.16,0,0,0,2.16,2.16h1l10.34,10.31v55.78a2.16,2.16,0,0,0,2.15,2.16l56.12.14,13.53,13.48a2.16,2.16,0,0,0,1.52.63H229.8a2.16,2.16,0,0,0,1.52-.62l13.21-13.05L301,377h0a2.16,2.16,0,0,0,2.16-2.16V319l11-10.91h.34a2.16,2.16,0,0,0,2.16-2.16V86.58A2.16,2.16,0,0,0,316,85.05Zm-17.22-67.2v50l-9.22-9.19v-30a2.16,2.16,0,0,0-2.16-2.16H257.32l-8.72-8.69ZM285.28,54.4,261.65,30.86h23.63ZM17.85,17.85H68.06l-8.72,8.69H29.23a2.16,2.16,0,0,0-2.16,2.16v30l-9.22,9.19ZM55,30.86,31.39,54.4V30.86ZM15.36,76.48,17.85,74h0l9.22-9.19h0l4.32-4.3h0L61.13,30.86h0l4.33-4.32h0l8.72-8.69h0l4.33-4.32h0l9.25-9.22H228.91l9.25,9.22h0l4.33,4.32h0l8.72,8.69h0l4.33,4.32h0L285.28,60.5h0l4.32,4.3h0L298.81,74h0l2.37,2.37,11.16,11.12V249.6h-9.22V93.92a2.16,2.16,0,0,0-.62-1.52L225.14,14a2.16,2.16,0,0,0-1.54-.64H93.06a2.16,2.16,0,0,0-1.54.64L14.16,92.4a2.16,2.16,0,0,0-.62,1.52V249.6H4.32V87.48ZM218.69,303.74l-5-49.82h98.65v49.82Zm-188,4.32H44.38l47.81,49.3-.92,12.12Zm-26.37-5V253.91H100l-3.79,49.82H5ZM298.81,249.6H213.26L207.58,193a2.15,2.15,0,0,0-3.47-1.48l-48,28.37L108.3,191.71a2.14,2.14,0,0,0-2.05-.54c-.06,0-.11.05-.16.07a2.16,2.16,0,0,0-.41.19l-.06,0a2.1,2.1,0,0,0-1,2.2l-4.25,55.93H17.85V94.8L94,17.63H222.7L298.81,94.8Zm-76.5,90.2.07-.06,30.72-31.68H266l-42.48,43.81Zm-.56-5.61-1.2-12,13.75-14.18h12.8ZM220,316.61l-.86-8.56h9.16Zm-.4,39.31-15.8,16.29H158.29V263.51l45.58-64.31Zm1.63,16.29H209.8l10.35-10.67ZM96.2,361.5l10.39,10.72H95.39Zm.44-5.75,11.88-156.23,45.46,64V372.21H112.61Zm-1.27-40.19-7.26-7.5h7.83Zm-13.27-7.5,12.83,13.26L94,333.52,69.3,308.05Zm-18.81,0,30.27,31.22-.94,12.33L50.39,308.05Zm94.94-52V223.66l39.55-23.36Zm-4.32-.06-39.36-55.54,39.36,23.25ZM225.3,369.61l-1.22-12.13L272,308.05h14.5ZM17.85,372V322.66l9.22,9.19v28.76a2.16,2.16,0,0,0,2.15,2.16l28.95.08,9.3,9.27Zm36-13.47-22.44-.06v-22.3Zm245,14.18-49.93-.13,9.28-9.17,29.27.08h0a2.16,2.16,0,0,0,2.16-2.16v-29l9.22-9.11Zm-36.3-13.6,22.76-22.5v22.56Zm39.23-44.84-2.93,2.9h0l-9.22,9.11h0l-4.32,4.27h0l-45,44.5-1.86,1.83h0l-9.49,9.38H87.76L64.3,362.87h0l-1-1L30.49,329.17l-3.42-3.41h0l-9.22-9.19h0l-4.32-4.3h0l-4.23-4.21H24.63l66.89,67.83.17.14.14.11.23.13.15.08.28.09.14,0a2.16,2.16,0,0,0,.44,0H223.61a2.15,2.15,0,0,0,.44,0l.14,0,.27-.09.16-.08.22-.13L225,376l.15-.12,67.46-67.84H308Z"/><rect class="cls-1" x="61.78" y="218.18" width="6.93" height="6.8"/><polygon class="cls-1" points="64.19 185.43 58.74 185.43 58.74 176.43 54.22 176.43 54.22 185.43 49.3 185.43 49.3 174.32 44.78 174.32 44.78 190.33 68.72 190.33 68.72 174.32 64.19 174.32 64.19 185.43"/><polygon class="cls-1" points="50.59 149.81 46.15 149.41 44.57 167.01 49.01 167.41 49.58 161.04 68.98 162.78 69.42 157.91 50.02 156.17 50.59 149.81"/><polygon class="cls-1" points="51.84 126.66 60.88 129.37 58.46 137.44 49.42 134.73 48.01 139.42 70.94 146.29 72.34 141.61 62.79 138.74 65.21 130.67 74.76 133.53 76.17 128.85 53.24 121.97 51.84 126.66"/><path class="cls-1" d="M91.63,89.46a3.85,3.85,0,0,0-4.3-.45,3.9,3.9,0,0,0-1.38-3.94l-2.6-2.17a4.55,4.55,0,0,0-6.72.68L68.7,93.06,87.06,108.4l8.11-9.7A4.55,4.55,0,0,0,94.64,92Zm-16.38,2.7,4-4.8a1,1,0,0,1,1.61-.16L83.07,89c.71.6.69.93.13,1.61l-4,4.8ZM91,96.79l-4.18,5-4.34-3.62,3.92-4.69c.61-.73,1.05-1.16,1.82-.52l2.65,2.22A1,1,0,0,1,91,96.79Z"/><path class="cls-1" d="M112.79,84.16a4.55,4.55,0,0,0,1.26-6.63L103,61.65l-4,2.79,10.52,15.11a1,1,0,0,1-.3,1.59l-4.41,3.07a1,1,0,0,1-1.59-.27L92.69,68.83l-4,2.79L99.72,87.51a4.55,4.55,0,0,0,6.66,1.12Z"/><polygon class="cls-1" points="137.41 73.27 135.91 69.01 125.43 72.7 123.61 67.56 132.1 64.57 130.6 60.3 122.11 63.3 120.47 58.66 130.95 54.97 129.45 50.7 114.36 56.02 122.31 78.59 137.41 73.27"/><polygon class="cls-1" points="147.44 71.78 146.34 55.5 156.42 71.18 161.68 70.82 160.06 46.95 155.49 47.25 156.59 63.54 146.51 47.86 141.25 48.21 142.86 72.09 147.44 71.78"/><path class="cls-1" d="M172.4,72.38l8,1.67a4.55,4.55,0,0,0,5.69-3.63l3-14.45a4.55,4.55,0,0,0-3.76-5.61l-8-1.68a4.55,4.55,0,0,0-5.69,3.63l-3,14.45A4.55,4.55,0,0,0,172.4,72.38Zm1.22-5.52,2.64-12.63a1,1,0,0,1,1.36-.87l5.62,1.17a1,1,0,0,1,.9,1.34l-2.64,12.63a1,1,0,0,1-1.36.87l-5.62-1.17A1,1,0,0,1,173.63,66.86Z"/><path class="cls-1" d="M212,60.89l-6.39-3.31a4.55,4.55,0,0,0-6.46,2l-1.87,3.6c-1.22,2.36,0,4.78,2.14,6.5l5,4.09c.59.49.84.89.51,1.54l-1.16,2.24a1,1,0,0,1-1.54.47l-4.71-2.44A1,1,0,0,1,197,74l1-1.89-4.22-2.19-1.41,2.71a4.55,4.55,0,0,0,2.11,6.41l6.76,3.5a4.55,4.55,0,0,0,6.46-2l2-3.84c1.22-2.36,0-4.78-2.14-6.5l-5-4.09c-.59-.49-.84-.89-.51-1.53l1-2a1,1,0,0,1,1.55-.47l4.34,2.25a1,1,0,0,1,.51,1.54l-.86,1.65,4.22,2.19,1.29-2.48A4.55,4.55,0,0,0,212,60.89Z"/><path class="cls-1" d="M224,101.47l5.29-1.91,4.73,6.35-3.36,4.5,3.15,4.22L248.32,94l-3.41-4.58-23.9,8Zm18.34-6.65-5.49,7.32-3.13-4.19Z"/><rect class="cls-1" x="235.68" y="113.92" width="23.94" height="4.89" transform="translate(-25.95 120.29) rotate(-25.99)"/><path class="cls-1" d="M242.44,135.22l8.52-2.47,1.1,3.79-7.43,6.26,1.47,5.06,7.58-6.44a4.47,4.47,0,0,0,5.27,1.94l5.4-1.56a4.55,4.55,0,0,0,3.19-5.95l-3.47-12-23,6.66Zm18.64-5.4,1.77,6.1a1,1,0,0,1-.76,1.42l-3.67,1.06a1,1,0,0,1-1.41-.79l-1.77-6.1Z"/><polygon class="cls-1" points="248.24 169.59 252.74 169.22 251.82 158.14 257.25 157.69 258 166.66 262.5 166.29 261.75 157.32 266.65 156.91 267.58 167.98 272.08 167.6 270.75 151.66 246.91 153.64 248.24 169.59"/><path class="cls-1" d="M267.29,175.69h-4.06c-2.66,0-4.22,2.24-4.79,4.89l-1.33,6.32c-.17.75-.4,1.16-1.13,1.16h-2.53a1,1,0,0,1-1.13-1.16v-5.3a1,1,0,0,1,1.13-1.16h2.13v-4.76h-3.06a4.55,4.55,0,0,0-4.72,4.82v7.61a4.55,4.55,0,0,0,4.72,4.82h4.32c2.66,0,4.22-2.24,4.79-4.89l1.33-6.32c.17-.75.4-1.16,1.13-1.16h2.26a1,1,0,0,1,1.13,1.16v4.89a1,1,0,0,1-1.13,1.16H264.5v4.76h2.79a4.55,4.55,0,0,0,4.72-4.82v-7.2A4.55,4.55,0,0,0,267.29,175.69Z"/><rect class="cls-1" x="247.95" y="218.66" width="6.93" height="6.8"/><path class="cls-1" d="M43.61,284.68c0-.83.46-1,1.31-1.28l5.62-1.92c2.48-.83,4.71-2,4.71-4.6v-4a4.64,4.64,0,0,0-4.71-4.6H43.88a4.64,4.64,0,0,0-4.71,4.6v2.49h4.58v-1.47a1.16,1.16,0,0,1,1.31-1.28h4.18a1.16,1.16,0,0,1,1.31,1.28v2c0,.83-.46,1-1.31,1.28l-5.62,1.92c-2.48.83-4.71,2-4.71,4.6v7.74H55.31V287H43.61Z"/><path class="cls-1" d="M74.1,268.25H66.75a4.38,4.38,0,0,0-4.64,4.54V287a4.38,4.38,0,0,0,4.64,4.54H74.1A4.38,4.38,0,0,0,78.75,287V272.79A4.38,4.38,0,0,0,74.1,268.25ZM74,286.09a1,1,0,0,1-1.11,1.09h-5a1,1,0,0,1-1.11-1.09v-12.4a1,1,0,0,1,1.11-1.09h5A1,1,0,0,1,74,273.68Z"/><polygon class="cls-1" points="240.76 270.81 240.76 274.64 245.04 273.17 245.04 291.39 249.75 291.39 249.75 268.38 246.03 268.38 240.76 270.81"/><path class="cls-1" d="M273.87,279.63a3.75,3.75,0,0,0,2.06-3.45v-3.32a4.64,4.64,0,0,0-4.71-4.6h-6.67a4.64,4.64,0,0,0-4.71,4.6v3.32a3.75,3.75,0,0,0,2.06,3.45,3.71,3.71,0,0,0-2.32,3.45v3.84a4.64,4.64,0,0,0,4.71,4.6h7.19a4.64,4.64,0,0,0,4.71-4.6v-3.84A3.71,3.71,0,0,0,273.87,279.63Zm-9.31-5.82a1.16,1.16,0,0,1,1.31-1.28h4.05a1.16,1.16,0,0,1,1.31,1.28v2.49c0,1-.39,1.28-1.31,1.28h-4.05c-.91,0-1.31-.26-1.31-1.28ZM271.48,286a1.16,1.16,0,0,1-1.31,1.28H265.6a1.16,1.16,0,0,1-1.31-1.28v-3c0-1,.65-1.28,1.57-1.28h4.05c.91,0,1.57.32,1.57,1.28Z"/></svg>