<svg id="Layer_1" data-name="Layer 1" xmlns="http://www.w3.org/2000/svg" viewBox="0 0 649.77 390.56"><defs><style>.cls-1{fill:#fff;}</style></defs><title>w_vertical</title><polygon class="cls-1" points="19.06 373.61 3.19 373.61 3.19 360.21 0 360.21 0 390.56 3.19 390.56 3.19 376.47 19.06 376.47 19.06 390.56 22.25 390.56 22.25 360.21 19.06 360.21 19.06 373.61"/><path class="cls-1" d="M43.66,360.21,32.27,390.56h3.28l3.33-9.1h13l3.32,9.1h3.46L47.3,360.21Zm-3.72,18.38,5.45-15,5.45,15Z"/><path class="cls-1" d="M82.71,360.21H73.49c-4.21,0-6.21,2-6.21,6.07v18.21c0,3.94,2,6.07,6.21,6.07h9.22c4.21,0,6.21-2.12,6.21-6.07V381.2H85.73v3.38c0,2.25-.88,3.12-3.19,3.12H73.67c-2.31,0-3.19-.87-3.19-3.12V366.19c0-2.25.89-3.12,3.19-3.12h8.86c2.31,0,3.19.87,3.19,3.12v3.38h3.19v-3.3C88.92,362.16,86.92,360.21,82.71,360.21Z"/><polygon class="cls-1" points="123.63 360.21 119.69 360.21 103.73 378.03 103.73 360.21 100.54 360.21 100.54 390.56 103.73 390.56 103.73 382.02 110.38 374.74 120.88 390.56 124.61 390.56 112.46 372.44 123.63 360.21"/><path class="cls-1" d="M141.58,360.21l-11.39,30.35h3.28l3.33-9.1h13l3.32,9.1h3.46l-11.39-30.35Zm-3.72,18.38,5.45-15,5.45,15Z"/><polygon class="cls-1" points="159.59 363.07 169.11 363.07 169.11 390.56 172.31 390.56 172.31 363.07 181.83 363.07 181.83 360.21 159.59 360.21 159.59 363.07"/><polygon class="cls-1" points="211 373.61 195.13 373.61 195.13 360.21 191.94 360.21 191.94 390.56 195.13 390.56 195.13 376.47 211 376.47 211 390.56 214.19 390.56 214.19 360.21 211 360.21 211 373.61"/><path class="cls-1" d="M242.34,360.21h-9.79c-4.21,0-6.21,2-6.21,6.07v18.21c0,4.12,2,6.07,6.21,6.07h9.79c4.21,0,6.21-1.95,6.21-6.07V366.28C248.55,362.16,246.55,360.21,242.34,360.21Zm3,24.37c0,2.25-.89,3.12-3.19,3.12h-9.44c-2.31,0-3.19-.87-3.19-3.12V366.19c0-2.25.89-3.12,3.19-3.12h9.44c2.3,0,3.19.87,3.19,3.12Z"/><polygon class="cls-1" points="280.56 385.88 264.24 360.21 260.7 360.21 260.7 390.56 263.71 390.56 263.71 364.5 280.29 390.56 283.57 390.56 283.57 360.21 280.56 360.21 280.56 385.88"/><polygon class="cls-1" points="319.92 366.37 317.26 366.37 317.26 373.22 310.26 373.22 310.26 375.82 317.26 375.82 317.26 382.67 319.92 382.67 319.92 375.82 326.92 375.82 326.92 373.22 319.92 373.22 319.92 366.37"/><polygon class="cls-1" points="378.03 386.57 370.59 360.21 367.66 360.21 360.21 386.57 353.61 360.21 350.16 360.21 358.53 390.56 361.94 390.56 369.12 365.11 376.31 390.56 379.63 390.56 388.01 360.21 384.64 360.21 378.03 386.57"/><path class="cls-1" d="M412.7,360.21H402.9c-4.21,0-6.21,2-6.21,6.07v18.21c0,4.12,2,6.07,6.21,6.07h9.79c4.21,0,6.21-1.95,6.21-6.07V366.28C418.9,362.16,416.91,360.21,412.7,360.21Zm3,24.37c0,2.25-.89,3.12-3.19,3.12h-9.44c-2.31,0-3.19-.87-3.19-3.12V366.19c0-2.25.89-3.12,3.19-3.12h9.44c2.3,0,3.19.87,3.19,3.12Z"/><path class="cls-1" d="M452.37,372v-5.68c0-4.12-2-6.07-6.21-6.07H431.05v30.35h3.19V378h8.64l6.92,12.53h3.55L446.44,378C450.47,377.94,452.37,376,452.37,372Zm-18.13,3.21v-12.1H446c2.31,0,3.19.87,3.19,3.12V372c0,2.25-.88,3.12-3.19,3.12Z"/><polygon class="cls-1" points="487.66 360.21 483.72 360.21 467.76 378.03 467.76 360.21 464.57 360.21 464.57 390.56 467.76 390.56 467.76 382.02 474.41 374.74 484.91 390.56 488.64 390.56 476.49 372.44 487.66 360.21"/><path class="cls-1" d="M510.18,374.56l-8.69-2c-2.17-.48-3.19-1.21-3.19-3.51V366c0-2.25.88-3.12,3.19-3.12h8.25c2.31,0,3.19.87,3.19,3.12v3h3.19v-2.77c0-4.12-2-6.07-6.21-6.07h-8.6c-4.21,0-6.21,2-6.21,6.07v3.17c0,4.55,2.92,5.42,6.38,6.2l8.69,1.95c2.17.48,3.19,1.21,3.19,3.51v3.64c0,2.25-.88,3.12-3.19,3.12h-8.78c-2.3,0-3.19-.87-3.19-3.12v-3.34H495v3.08c0,4.12,2,6.07,6.21,6.07h9.13c4.21,0,6.21-1.95,6.21-6.07v-3.73C516.57,376.21,513.64,375.34,510.18,374.56Z"/><polygon class="cls-1" points="547.33 373.61 531.46 373.61 531.46 360.21 528.27 360.21 528.27 390.56 531.46 390.56 531.46 376.47 547.33 376.47 547.33 390.56 550.52 390.56 550.52 360.21 547.33 360.21 547.33 373.61"/><path class="cls-1" d="M578.67,360.21h-9.79c-4.21,0-6.21,2-6.21,6.07v18.21c0,4.12,2,6.07,6.21,6.07h9.79c4.21,0,6.21-1.95,6.21-6.07V366.28C584.87,362.16,582.88,360.21,578.67,360.21Zm3,24.37c0,2.25-.89,3.12-3.19,3.12h-9.44c-2.31,0-3.19-.87-3.19-3.12V366.19c0-2.25.89-3.12,3.19-3.12h9.44c2.3,0,3.19.87,3.19,3.12Z"/><path class="cls-1" d="M612.18,360.21H597v30.35h3.19V378.77h12c4,0,6.21-2.12,6.21-6.07v-6.42C618.39,362.34,616.22,360.21,612.18,360.21Zm3,12.57c0,2-1.11,3.12-3.19,3.12H600.22V363.07H612c2.08,0,3.19,1.08,3.19,3.12Z"/><path class="cls-1" d="M643.39,374.56l-8.69-2c-2.17-.48-3.19-1.21-3.19-3.51V366c0-2.25.88-3.12,3.19-3.12h8.25c2.31,0,3.19.87,3.19,3.12v3h3.19v-2.77c0-4.12-2-6.07-6.21-6.07h-8.6c-4.21,0-6.21,2-6.21,6.07v3.17c0,4.55,2.92,5.42,6.38,6.2l8.69,1.95c2.17.48,3.19,1.21,3.19,3.51v3.64c0,2.25-.88,3.12-3.19,3.12h-8.78c-2.31,0-3.19-.87-3.19-3.12v-3.34h-3.19v3.08c0,4.12,2,6.07,6.21,6.07h9.13c4.21,0,6.21-1.95,6.21-6.07v-3.73C649.78,376.21,646.85,375.34,643.39,374.56Z"/><polygon class="cls-1" points="0 334.37 29.57 334.37 29.57 326.02 9.04 326.02 9.04 315.95 25.68 315.95 25.68 307.6 9.04 307.6 9.04 298.51 29.57 298.51 29.57 290.16 0 290.16 0 334.37"/><polygon class="cls-1" points="73.08 290.16 40.43 290.16 40.43 298.39 52.23 298.39 52.23 334.37 61.27 334.37 61.27 298.39 73.08 298.39 73.08 290.16"/><polygon class="cls-1" points="110.5 334.37 119.54 334.37 119.54 290.16 110.5 290.16 110.5 307.6 94.92 307.6 94.92 290.16 85.88 290.16 85.88 334.37 94.92 334.37 94.92 315.95 110.5 315.95 110.5 334.37"/><path class="cls-1" d="M183.26,311.78a7.2,7.2,0,0,0,4-6.63v-6.26c0-5.16-3.64-8.72-8.92-8.72H155.44v44.21H178.8c5.28,0,8.92-3.56,8.92-8.72v-7.25A7.12,7.12,0,0,0,183.26,311.78Zm-18.77-13.39H176a1.9,1.9,0,0,1,2.13,2.09v5.28c0,1.72-.5,2.09-2.13,2.09H164.48Zm14.19,25.67a1.9,1.9,0,0,1-2.13,2.09H164.48V315.71h11.3c1.76,0,2.89.12,2.89,2Z"/><path class="cls-1" d="M234,325.9V290.16h-9v34a1.9,1.9,0,0,1-2.13,2.09H213a1.9,1.9,0,0,1-2.13-2.09v-34h-9V325.9c0,5.16,3.64,8.72,8.92,8.72h14.44C230.4,334.62,234,331.06,234,325.9Z"/><polygon class="cls-1" points="279.12 298.51 279.12 290.16 249.55 290.16 249.55 334.37 279.12 334.37 279.12 326.02 258.59 326.02 258.59 315.95 275.23 315.95 275.23 307.6 258.59 307.6 258.59 298.51 279.12 298.51"/><polygon class="cls-1" points="319.74 320.31 303.1 290.16 293.37 290.16 293.37 334.37 301.85 334.37 301.85 304.22 318.49 334.37 328.22 334.37 328.22 290.16 319.74 290.16 319.74 320.31"/><path class="cls-1" d="M367.39,334.62c5.28,0,8.92-3.56,8.92-8.72V298.63c0-5.16-3.64-8.72-8.92-8.72H352.26c-5.28,0-8.92,3.56-8.92,8.72V325.9c0,5.16,3.64,8.72,8.92,8.72Zm-15-34.26a1.9,1.9,0,0,1,2.13-2.09h10.61a1.9,1.9,0,0,1,2.13,2.09v23.82a1.9,1.9,0,0,1-2.13,2.09H354.52a1.9,1.9,0,0,1-2.13-2.09Z"/><path class="cls-1" d="M413,309.07l-11.68-2.46c-1.38-.31-2.13-.74-2.13-2.09v-4.17a1.9,1.9,0,0,1,2.13-2.09h9a1.9,1.9,0,0,1,2.13,2.09v3.44h8.79v-5.16c0-5.16-3.64-8.72-8.91-8.72H399.09c-5.28,0-8.92,3.56-8.92,8.72v7.49c0,4.91,4.15,7.8,9,8.84l11.68,2.46c1.38.31,2.13.74,2.13,2.09v4.67a1.9,1.9,0,0,1-2.13,2.09h-9.8a1.9,1.9,0,0,1-2.13-2.09v-3.93h-8.79v5.65c0,5.16,3.64,8.72,8.92,8.72h14.06c5.28,0,8.92-3.56,8.92-8.72v-8C422.07,313,417.93,310.12,413,309.07Z"/><path class="cls-1" d="M466.14,290.16l-14.57,44.21h9.36l3-9.95h14.63l3,9.95h9.73l-14.57-44.21Zm.32,25.91,4.9-16.21,4.77,16.21Z"/><rect class="cls-1" x="503.5" y="290.16" width="9.04" height="44.21"/><path class="cls-1" d="M560.69,309.26V298.88c0-5.16-3.64-8.72-8.92-8.72h-23v44.21h9V318h7.28l7.28,16.39h9.73l-7.53-16.76A8.25,8.25,0,0,0,560.69,309.26Zm-9-1.6a1.9,1.9,0,0,1-2.13,2.09H537.77V298.51h11.74a1.9,1.9,0,0,1,2.13,2.09Z"/><polygon class="cls-1" points="605.39 326.02 584.86 326.02 584.86 315.95 601.5 315.95 601.5 307.6 584.86 307.6 584.86 298.51 605.39 298.51 605.39 290.16 575.82 290.16 575.82 334.37 605.39 334.37 605.39 326.02"/><path class="cls-1" d="M640.73,309.07l-11.68-2.46c-1.38-.31-2.13-.74-2.13-2.09v-4.17a1.9,1.9,0,0,1,2.13-2.09h9a1.9,1.9,0,0,1,2.13,2.09v3.44H649v-5.16c0-5.16-3.64-8.72-8.91-8.72H626.8c-5.28,0-8.92,3.56-8.92,8.72v7.49c0,4.91,4.15,7.8,9,8.84l11.68,2.46c1.38.31,2.13.74,2.13,2.09v4.67a1.9,1.9,0,0,1-2.13,2.09h-9.8a1.9,1.9,0,0,1-2.13-2.09v-3.93h-8.79v5.65c0,5.16,3.64,8.72,8.92,8.72h14.06c5.28,0,8.92-3.56,8.92-8.72v-8C649.78,313,645.63,310.12,640.73,309.07Z"/><path class="cls-1" d="M364.63,214.89a2.52,2.52,0,0,0,.51-.39l8.74-8.79,24.79.07h0a2.55,2.55,0,0,0,2.55-2.55V178.14l9-9.09a2.54,2.54,0,0,0,.74-1.8V48.51a2.55,2.55,0,0,0-.73-1.79l-9-9.17V12.16a2.55,2.55,0,0,0-2.55-2.55h-25L364.95.76A2.55,2.55,0,0,0,363.13,0H286.64a2.55,2.55,0,0,0-1.81.76L276.1,9.61h-25a2.55,2.55,0,0,0-2.55,2.55v25.4l-9,9.17a2.55,2.55,0,0,0-.73,1.79V166.87a2.55,2.55,0,0,0,.73,1.79l9,9.17v25a2.55,2.55,0,0,0,2.54,2.55l24.68.07,9.07,9.2a2.54,2.54,0,0,0,.2.16c.06.05.12.11.19.16l.08,0a2.48,2.48,0,0,0,1.35.39h76.49A2.54,2.54,0,0,0,364.63,214.89Zm-2.42-4.73H325.56V169.09l37.14-52.41L372.27,200Zm-36.71-49.9V135.77l29.94-17.68Zm-5.09-.05-29.79-42,29.79,17.6Zm-37-43.22,37,52.14v41l-32.76.12L276,198.42Zm112.69,83.69-17.27,0,17.27-17.36Zm0-186V32.39L378.7,14.7Zm-142.51,0h17.44L253.63,32.39Zm-9.78,34.85L287.71,5.09h74.36l43.85,44.46V166.21l-29,29.21L367,109.49a2.55,2.55,0,0,0-4.08-1.73l-40,23.6-39.68-23.44a2.56,2.56,0,0,0-2.42-.56,2.47,2.47,0,0,0-.86.44l-.08.06-.16.14-.13.12a2.51,2.51,0,0,0-.65,1.7l-7.66,83.86-27.48-27.86Zm9.78,150.72V183l17.09,17.33Z"/><path class="cls-1" d="M279.68,99.35a2.55,2.55,0,0,0,.05.62V100a2.55,2.55,0,0,0,.21.56l.06.11a2.53,2.53,0,0,0,.31.44l0,0,.13.11a2.52,2.52,0,0,0,.37.29l.08.06,40.74,24.07h0a2.51,2.51,0,0,0,.37.15c.08,0,.15.07.23.09a2.51,2.51,0,0,0,1.31,0c.07,0,.14-.06.21-.08a2.5,2.5,0,0,0,.4-.16h0L365,101.65l.07-.06a2.52,2.52,0,0,0,.37-.3l.12-.11,0,0a2.52,2.52,0,0,0,.31-.44l.06-.11a2.53,2.53,0,0,0,.21-.56V100a2.55,2.55,0,0,0,.05-.62s0,0,0,0h0a2.54,2.54,0,0,0-.12-.62l0-.1a2.53,2.53,0,0,0-.21-.45l-40.72-67.6-.08-.1-.13-.18-.13-.15-.15-.15-.16-.13-.17-.12-.18-.1-.18-.09-.21-.08-.12,0h-.06l-.22,0-.19,0h-.42l-.19,0-.22,0h-.06l-.12,0-.21.08-.18.09-.18.1-.16.12-.16.13-.14.14-.14.15-.12.17-.08.11L280,98.15a2.53,2.53,0,0,0-.21.46l0,.1a2.54,2.54,0,0,0-.12.62h0S279.68,99.34,279.68,99.35Zm40.73-14.46v34.18L287.72,99.76Zm5.09,34.18V84.89l32.67,14.87Zm0-39.77V41l31.76,52.72ZM320.41,41V79.29L288.64,93.74Z"/></svg>