<?xml version="1.0" encoding="UTF-8"?>
<svg width="100px" height="100px" viewBox="0 0 100 100" version="1.1" xmlns="http://www.w3.org/2000/svg" xmlns:xlink="http://www.w3.org/1999/xlink">
    <!-- Generator: Sketch 49.1 (51147) - http://www.bohemiancoding.com/sketch -->
    <title>Slack</title>
    <desc>Created with Sketch.</desc>
    <defs></defs>
    <g id="Slack" stroke="none" stroke-width="1" fill="none" fill-rule="evenodd">
        <path d="M73.2715249,32.0146434 C75.2562031,38.1114666 77.3732343,44.6149607 79.3618992,50.7242883 L88.337046,47.8124003 C93.0182475,46.2966268 98.0431954,48.847867 99.5619297,53.5199426 C101.080664,58.1920182 98.5244405,63.2071701 93.8432389,64.7229436 C93.8432389,64.7229436 90.3291811,65.8624526 84.8660064,67.6340448 C86.6835545,73.2183274 87.8619219,76.8394795 87.8746094,76.8802816 C89.3870937,81.5149306 86.4996236,86.5238448 81.7746726,87.8836745 C77.2372196,89.1811268 72.5185185,86.7296906 70.9372848,82.3695025 L67.9277026,73.1268634 C61.8181864,75.1081139 55.3008289,77.2216628 49.1784368,79.2072032 C50.9962122,84.7913402 52.1747517,88.4119314 52.18744,88.4513294 C53.6999244,93.0859785 50.8124543,98.0948926 46.0875032,99.4547224 C41.5500502,100.752175 36.8313491,98.3007384 35.2501155,93.9405504 L32.2410918,84.7004414 C26.6414616,86.5167299 23.009874,87.6949803 22.9689732,87.7090565 C18.3252713,89.2185923 13.3065733,86.3367512 11.9440874,81.6210114 C10.6441009,77.0924041 13.1003254,72.382902 17.4690302,70.8047509 L26.7368179,67.7979188 L20.6416089,49.0807533 C15.0442353,50.8957402 11.4148083,52.0725541 11.3753238,52.0852208 C6.73162187,53.5885189 1.71292386,50.7129156 0.350437978,45.9971757 C-0.95579849,41.4685684 1.50042606,36.7590663 5.87538074,35.1809153 L15.1368329,32.1766889 L12.2191041,23.2169281 C10.6941199,18.5448525 13.2628433,13.5359384 17.9377948,12.0139271 C22.6127464,10.4919158 27.6376944,13.0493938 29.1626786,17.7214694 C29.1626786,17.7214694 30.3043799,21.2285738 32.0793185,26.6808918 L50.8240921,20.6004693 L47.9062734,11.6396425 C46.3875392,6.96756695 48.9437627,1.95241505 53.6249642,0.436641523 C58.3061657,-1.079132 63.3311136,1.47834596 64.8498479,6.1441838 C64.8498479,6.1441838 65.9916788,9.65168609 67.76679,15.1046033 L76.7371466,12.1948024 C81.4183481,10.6790289 86.4432961,13.2302691 87.9620303,17.9023447 C89.4807646,22.5744203 86.9245411,27.5895722 82.2433396,29.1053457 C82.2433396,29.1053457 78.7315752,30.244111 73.2715249,32.0146434 Z M56.2462572,37.4265067 C50.137581,39.4073585 43.6211627,41.5204215 37.4996115,43.505429 C39.4849091,49.6039679 41.6027104,56.1095589 43.5920277,62.2205052 L62.3391491,56.1382072 L56.2462572,37.4265067 Z" id="Combined-Shape" fill="#FFFFFF"></path>
    </g>
</svg>