<?xml version="1.0" encoding="UTF-8"?>
<svg width="100px" height="100px" viewBox="0 0 100 100" version="1.1" xmlns="http://www.w3.org/2000/svg" xmlns:xlink="http://www.w3.org/1999/xlink">
    <!-- Generator: Sketch 49.1 (51147) - http://www.bohemiancoding.com/sketch -->
    <title>Twitter</title>
    <desc>Created with Sketch.</desc>
    <defs></defs>
    <g id="Twitter" stroke="none" stroke-width="1" fill="none" fill-rule="evenodd">
        <path d="M100,18.6449216 C96.0658463,20.3370833 92.1308036,21.393851 88.1984278,21.818336 C92.6399634,19.1534147 95.6442505,15.3886105 97.2095111,10.5241456 C93.1466785,12.9348204 88.8115976,14.5840891 84.201157,15.4728407 C80.13988,11.1582062 75.1491809,9 69.225726,9 C63.5580733,9 58.7256116,10.9984132 54.7265628,14.9961285 C50.7297364,18.9936216 48.731101,23.8260834 48.731101,29.4941806 C48.731101,31.0167705 48.900006,32.5824757 49.238705,34.1897404 C40.8627936,33.7668111 33.0055983,31.6623877 25.6657858,27.8764704 C18.3264179,24.0901086 12.0976004,19.0456266 6.97933358,12.7430243 C5.11804461,15.914883 4.18706676,19.3629902 4.18706676,23.0853459 C4.18706676,26.5963481 5.01181224,29.8539927 6.66241441,32.8573908 C8.31190536,35.8603444 10.5332287,38.2923546 13.3252733,40.1538658 C10.0251802,40.0267426 6.93732957,39.1593263 4.06127697,37.5518394 L4.06127697,37.8056414 C4.06127697,42.7552255 5.61586996,47.1007518 8.72461146,50.8455541 C11.8337975,54.5899119 15.7575057,56.9468038 20.4948473,57.9202302 C18.7180108,58.3849412 16.919839,58.6176301 15.1012208,58.6176301 C13.9166631,58.6176301 12.6263176,58.5120645 11.2306287,58.3020444 C12.5418651,62.4044364 14.9532066,65.7767587 18.4637643,68.4219003 C21.9749887,71.0657085 25.9513687,72.4285054 30.3931265,72.5151803 C22.9484151,78.3517381 14.4671602,81.2700169 4.94936183,81.2700169 C3.13007687,81.2700169 1.48080817,81.1871201 0,81.0168816 C9.51802061,87.1499121 20.0085786,90.2164273 31.4723407,90.2164273 C38.748147,90.2164273 45.579911,89.064984 51.96541,86.7589859 C58.3540205,84.4545434 63.8103197,81.3658038 68.3369744,77.494545 C72.8622957,73.6241752 76.7655576,69.171972 80.0434264,64.1383799 C83.3215174,59.1043433 85.7635285,53.8489522 87.3723489,48.3710955 C88.9791691,42.8921275 89.783246,37.4047142 89.783246,31.9046331 C89.783246,30.7200755 89.7619106,29.8322129 89.7194621,29.2397118 C93.7391795,26.3223219 97.1655069,22.7895399 100,18.6449216" id="Fill-1" fill="#FFFFFF"></path>
    </g>
</svg>